<svg xmlns="http://www.w3.org/2000/svg" version="1.1"
    xmlns:xlink="http://www.w3.org/1999/xlink"
    xmlns:svgjs="http://svgjs.com/svgjs" width="512" height="512" x="0" y="0" viewBox="0 0 512 512" style="enable-background:new 0 0 512 512" xml:space="preserve" class="">
    <g>
        <path d="M135.912 124.412a6 6 0 0 0 1.869-.3 235.439 235.439 0 0 1 10.057-3.041 6 6 0 1 0-3.217-11.56c-3.593 1-7.15 2.075-10.576 3.2a6 6 0 0 0 1.867 11.7zM168.053 116.193a6.006 6.006 0 0 0 1.141-.11c33.075-6.369 72.565-8.122 117.372-5.208a6 6 0 0 0 .78-11.975c-45.827-2.98-86.342-1.162-120.421 5.4a6 6 0 0 0 1.128 11.893z" fill="#000000" data-original="#000000"></path>
        <path d="M493.975 367.411c-30.888-21.289-49.517-29.3-72.191-37.259 21.972-8.518 58.282-26.856 68.026-57.622 15.822-49.962 12.033-93.8-10.959-126.775-31.058-44.544-95.508-69.394-191.563-73.855-58.374-3.79-107.829.2-147.009 11.865-35.791 10.655-63.335 27.758-81.866 50.833-14.9 18.553-23.848 40.765-26.595 66.018-2.461 22.614.075 47.112 7.536 72.814 8.147 28.068 46.344 49.183 66.037 58.41a460.628 460.628 0 0 1-82.212 32.14 17.97 17.97 0 0 0-8.745 29.12L51.3 435.336a17.971 17.971 0 0 0 19.162 5.271 436.3 436.3 0 0 0 126.389-65.436c10.811 5.7 44.174 21.905 73.974 21.905 10.369 0 20.308-1.963 28.71-7.015 8.106-4.873 14.1-12.109 17.964-21.637C340.436 385.9 414.747 439.9 457.174 439.9c.519 0 1.042-.008 1.552-.024a18.422 18.422 0 0 0 14.772-8.321l25.481-38.807a18.355 18.355 0 0 0-5.004-25.337zm-22.363-210.842c18.7 29.659 20.983 67.419 6.758 112.338-10.854 34.271-64.833 51.847-75.114 54.908a1410.99 1410.99 0 0 1-8.8-3.024c-25.767-8.968-42.805-26.824-48.593-33.611a267.814 267.814 0 0 0 64.45-33.5c37.892-27.197 58.787-60.475 61.299-97.111zM344.96 266.375c-6.575-15.1-23.73-19.975-36.963-21.408-24.44-2.644-60.2 3.22-106.277 17.432a10 10 0 0 0-3.973 2.341c-10.458-2.994-38.172-11.858-64.916-28.36a185.41 185.41 0 0 1-22.381-16.08 146.544 146.544 0 0 1 30.481-32.031c30.1-23.458 65.82-33.677 106.164-30.374 21.051 1.724 40.265.442 57.218-.688 48.907-3.26 84.487-5.627 125.884 63.285a175.885 175.885 0 0 1-26.64 23.269c-21.946 15.8-44.75 25.666-56.518 30.184a27.722 27.722 0 0 0-2.079-7.57zM72.053 137.124c16.874-18.64 40.928-32.716 71.65-41.862C181.529 84 229.6 80.171 286.566 83.875l.112.006c83.1 3.856 141.127 23.041 172.867 57.072 2.034 25.284-5.075 48.649-21.208 69.842-19.635-31.707-39.765-50.84-62.909-59.9-22.814-8.934-46.663-7.344-71.912-5.661-17.345 1.157-35.28 2.352-55.443.7-54.1-4.434-92.138 15.428-114.518 32.868a159.248 159.248 0 0 0-32.027 33.298c-21.811-21.852-31.695-46.955-29.475-74.976zm17.064 172.4C67.825 296.549 54.6 282.91 50.878 270.081c-7.022-24.188-9.42-47.124-7.13-68.171 1.977-18.179 7.476-34.578 16.358-48.937 3.015 36.382 25.66 68.465 66.424 93.619 26.8 16.54 53.98 25.62 66.161 29.191a476.333 476.333 0 0 1-73.7 48.947 231.741 231.741 0 0 1-29.874-15.209zM66.728 429.2a5.989 5.989 0 0 1-6.387-1.758l-36.866-42.236a5.823 5.823 0 0 1-1.22-5.594 5.937 5.937 0 0 1 4.167-4.083c80.817-22.686 147.358-67.584 176.682-92.763l44.354 28.034c-14.758 18.374-72.571 82.988-180.73 118.4zm226.633-49.432c-15.74 9.47-40.113 4.581-57.788-1.188a223.248 223.248 0 0 1-28.248-11.574 377.261 377.261 0 0 0 7.605-6.293c22.782-19.379 36.732-35.793 42.749-43.451l42.421 26.819a14.483 14.483 0 0 0 10.242 2.041c-1.455 16.431-7.142 27.728-16.981 33.649zm16.863-46.887a2.592 2.592 0 0 1-3.712 1.053l-97.055-61.352c99.72-30.069 120.287-11.092 124.5-1.418a16.943 16.943 0 0 1-.53 14.205zm178.724 53.274-25.481 38.807a6.406 6.406 0 0 1-5.128 2.914c-18.168.6-48.055-11.917-86.365-36.157-23.553-14.9-43.644-30.088-50.907-35.7a103.551 103.551 0 0 0 1.611-21.293l17.509-35.853c8.55 9.176 25.7 24.677 50.327 33.248 5.05 1.757 9.76 3.355 14.227 4.87 29.409 9.973 47.16 15.993 82.423 40.3a6.427 6.427 0 0 1 1.784 8.867z" fill="#000000" data-original="#000000"></path>
    </g>
</svg>