<svg xmlns="http://www.w3.org/2000/svg" version="1.1"
    xmlns:xlink="http://www.w3.org/1999/xlink"
    xmlns:svgjs="http://svgjs.com/svgjs" width="512" height="512" x="0" y="0" viewBox="0 0 512 512" style="enable-background:new 0 0 512 512" xml:space="preserve" class="">
    <g>
        <path d="M134.166 179.583c22.24-17.33 60.041-37.062 113.823-32.66 20.234 1.657 38.207.458 55.59-.7 50.322-3.352 90.357-6.012 134.665 66.327 16.99-21.789 24.456-45.892 22.266-72.037-31.878-34.385-90.223-53.759-173.789-57.637C229.536 79.16 181.354 83 143.415 94.3c-31.038 9.24-55.325 23.5-72.334 42.4-2.386 28.836 7.88 54.6 30.586 76.939a157.3 157.3 0 0 1 32.499-34.056zm32.945-74.307c33.993-6.547 74.425-8.36 120.166-5.385a5 5 0 0 1-.649 9.979c-44.894-2.918-84.467-1.161-117.627 5.225a5.061 5.061 0 0 1-.951.091 5 5 0 0 1-.939-9.91zm-32.758 8.377a243.436 243.436 0 0 1 10.532-3.185 5 5 0 1 1 2.682 9.633 233.725 233.725 0 0 0-10.1 3.055 5 5 0 0 1-3.113-9.5z" fill="#000000" data-original="#000000" class=""></path>
        <path d="M409.727 252.862a266.264 266.264 0 0 1-64.916 33.617c-.079.239-.155.479-.24.716 5.3 6.337 22.734 25.2 49.554 34.533 3.167 1.1 6.185 2.135 9.106 3.13 9.584-2.826 64.975-20.562 76.089-55.656 14.731-46.518 11.848-85.441-8.537-115.738-1.52 37.528-22.383 71.636-61.056 99.398zM334.872 270.76c-12.881-29.58-92.006-9.389-127.8 1.5l98.9 62.519a3.59 3.59 0 0 0 5.145-1.46l23.2-47.513a17.947 17.947 0 0 0 .555-15.046zM119.044 325.827c38.813-21 65.613-42.045 75.738-50.486-11.035-3.129-39.585-12.238-67.731-29.606-41.59-25.664-64.195-58.558-66.164-95.852-9.924 15.084-16.024 32.493-18.137 51.917-2.3 21.177.106 44.243 7.164 68.558 8.386 28.876 58.44 51.032 69.13 55.469zM487.728 376.462c-35.377-24.384-53.178-30.421-82.669-40.422a1887.368 1887.368 0 0 1-14.221-4.867c-25.436-8.852-42.823-25.149-50.912-34.055L321.672 334.5a102 102 0 0 1-1.7 21.944c6.852 5.309 27.34 20.86 51.443 36.112 38.491 24.355 68.593 36.92 86.948 36.321a7.412 7.412 0 0 0 5.931-3.364l25.487-38.813a7.422 7.422 0 0 0-2.053-10.238zM300.63 343.229l-43.185-27.3c-5.644 7.268-19.7 24.054-43.166 44.018q-4.122 3.506-8.8 7.257a225.4 225.4 0 0 0 29.751 12.311c17.884 5.84 42.574 10.775 58.645 1.106 10.395-6.254 16.27-18.273 17.56-35.765a13.564 13.564 0 0 1-10.8-1.628z" fill="#000000" data-original="#000000" class=""></path>
        <path d="M59.583 428.1a6.989 6.989 0 0 0 7.453 2.051c110.146-36.066 168.248-102.389 181.9-119.6l-45.926-29.032c-28.959 25.025-95.691 70.256-176.861 93.041a6.922 6.922 0 0 0-4.857 4.76 6.811 6.811 0 0 0 1.426 6.537z" fill="#000000" data-original="#000000" class=""></path>
    </g>
</svg>