<svg width="32" height="32" viewBox="0 0 32 32" fill="none"
    xmlns="http://www.w3.org/2000/svg">
    <path d="M8.38539 11.2239C9.77539 10.1408 12.138 8.90756 15.4993 9.18269C16.764 9.28625 17.8873 9.21131 18.9737 9.13894C22.1188 8.92944 24.621 8.76319 27.3903 13.2844C28.4521 11.9226 28.9188 10.4161 28.7819 8.78206C26.7895 6.633 23.143 5.42212 17.9201 5.17975C14.346 4.9475 11.3346 5.1875 8.96346 5.89375C7.02358 6.47125 5.50564 7.3625 4.44258 8.54375C4.29346 10.346 4.93508 11.9562 6.35421 13.3524C6.92067 12.5451 7.6054 11.8275 8.38539 11.2239ZM10.4445 6.57975C12.569 6.17056 15.096 6.05725 17.9548 6.24319C18.0375 6.24856 18.1147 6.28658 18.1694 6.34886C18.2241 6.41115 18.2518 6.4926 18.2464 6.57531C18.241 6.65802 18.203 6.7352 18.1407 6.78988C18.0784 6.84456 17.997 6.87225 17.9143 6.86687C15.1084 6.6845 12.6351 6.79431 10.5626 7.19344C10.543 7.1972 10.5231 7.19911 10.5031 7.19912C10.4254 7.19904 10.3505 7.17 10.2931 7.11767C10.2356 7.06534 10.1997 6.99347 10.1924 6.9161C10.185 6.83873 10.2068 6.7614 10.2534 6.69921C10.3 6.63702 10.3681 6.59443 10.4445 6.57975ZM8.39708 7.10331C8.61497 7.03201 8.83444 6.96563 9.05533 6.90425C9.09502 6.89272 9.1366 6.88919 9.17767 6.89384C9.21873 6.8985 9.25847 6.91125 9.29457 6.93137C9.33067 6.95148 9.36243 6.97856 9.38799 7.01103C9.41356 7.0435 9.43243 7.08072 9.44352 7.12054C9.4546 7.16035 9.45768 7.20197 9.45257 7.24298C9.44746 7.28399 9.43427 7.32358 9.41376 7.35946C9.39324 7.39534 9.36582 7.42679 9.33307 7.452C9.30032 7.47721 9.26289 7.49567 9.22296 7.50631C9.01113 7.5652 8.80066 7.62886 8.59171 7.69725C8.5136 7.72075 8.42941 7.71279 8.35709 7.67506C8.28478 7.63733 8.23009 7.57282 8.20469 7.49532C8.17929 7.41781 8.1852 7.33344 8.22116 7.26023C8.25712 7.18702 8.32028 7.13077 8.39714 7.1035L8.39708 7.10331Z" fill="#F2F2F2"/>
    <path d="M25.6079 15.8039C24.3586 16.6874 22.9933 17.3944 21.5507 17.9049C21.5458 17.9199 21.541 17.9349 21.5357 17.9497C21.8669 18.3457 22.9566 19.5247 24.6328 20.108C24.8308 20.1767 25.0194 20.2414 25.2019 20.3036C25.8009 20.127 29.2629 19.0185 29.9575 16.8251C30.8782 13.9177 30.698 11.4851 29.4239 9.59149C29.3289 11.937 28.025 14.0687 25.6079 15.8039ZM20.9295 16.9225C20.1244 15.0737 15.1791 16.3357 12.942 17.0162L19.1233 20.9237C19.1499 20.9405 19.1798 20.9516 19.211 20.9561C19.2423 20.9606 19.2741 20.9585 19.3044 20.9499C19.3348 20.9413 19.363 20.9264 19.3871 20.9061C19.4113 20.8859 19.431 20.8608 19.4448 20.8324L20.8948 17.8629C20.9684 17.718 21.0096 17.5589 21.0155 17.3965C21.0215 17.2341 20.9922 17.0724 20.9295 16.9225ZM7.44026 20.3642C9.86607 19.0517 11.5411 17.7364 12.1739 17.2088C11.4842 17.0132 9.69982 16.4439 7.94069 15.3584C5.34132 13.7544 3.92851 11.6986 3.80544 9.36768C3.18519 10.3104 2.80394 11.3985 2.67188 12.6125C2.52813 13.9361 2.67851 15.3777 3.11963 16.8974C3.64376 18.7021 6.77213 20.0869 7.44026 20.3642ZM30.483 23.5289C28.2719 22.0049 27.1594 21.6276 25.3162 21.0025C25.0195 20.9023 24.7232 20.8009 24.4274 20.6983C22.8376 20.1451 21.7509 19.1265 21.2454 18.5699L20.1045 20.9062C20.1187 21.3659 20.083 21.8257 19.9983 22.2777C20.4265 22.6096 21.707 23.5815 23.2134 24.5347C25.6191 26.0569 27.5005 26.8422 28.6477 26.8048C28.7218 26.802 28.7941 26.7814 28.8587 26.7448C28.9232 26.7082 28.9779 26.6567 29.0184 26.5946L30.6113 24.1687C30.6785 24.0667 30.7027 23.9422 30.6787 23.8224C30.6547 23.7026 30.5844 23.5971 30.483 23.5289ZM18.7894 21.4518L16.0903 19.7456C15.7376 20.1998 14.8591 21.2489 13.3924 22.4967C13.2207 22.6428 13.0374 22.7939 12.8424 22.9502C13.4431 23.2507 14.0645 23.5079 14.7019 23.7197C15.8196 24.0847 17.3628 24.3931 18.3672 23.7888C19.0169 23.3979 19.3841 22.6467 19.4647 21.5535C19.3513 21.5842 19.2327 21.5911 19.1165 21.5736C19.0003 21.556 18.889 21.5146 18.7897 21.4517L18.7894 21.4518Z" fill="#F2F2F2"/>
    <path d="M3.72395 26.7563C3.78038 26.8211 3.85467 26.8678 3.93752 26.8906C4.02038 26.9134 4.10812 26.9113 4.18976 26.8844C11.0739 24.6303 14.7053 20.4851 15.5585 19.4094L12.6881 17.5949C10.8782 19.159 6.70745 21.9859 1.63433 23.41C1.5624 23.4293 1.49667 23.4668 1.44349 23.5189C1.39031 23.571 1.35148 23.636 1.33076 23.7075C1.30921 23.7775 1.30609 23.8519 1.3217 23.9235C1.33731 23.9951 1.37113 24.0614 1.41989 24.1161L3.72395 26.7563Z" fill="#F2F2F2"/>
</svg>
