<svg width="32" height="32" viewBox="0 0 32 32" fill="none"
    xmlns="http://www.w3.org/2000/svg">
    <path d="M8.4945 7.77572C8.53418 7.77569 8.57361 7.76936 8.61131 7.75697C8.81939 7.68895 9.02896 7.62558 9.23987 7.56691C9.28779 7.55414 9.3327 7.53199 9.372 7.50174C9.41131 7.4715 9.44422 7.43376 9.46884 7.39071C9.49345 7.34766 9.50929 7.30015 9.51542 7.25094C9.52156 7.20173 9.51787 7.15179 9.50458 7.10402C9.49128 7.05624 9.46864 7.01158 9.43797 6.97261C9.40729 6.93364 9.36919 6.90115 9.32588 6.877C9.28256 6.85286 9.23488 6.83754 9.18561 6.83195C9.13633 6.82635 9.08644 6.83059 9.03881 6.84441C8.81425 6.90691 8.59194 6.9741 8.37781 7.04441C8.29312 7.07224 8.22112 7.12934 8.17472 7.20545C8.12831 7.28156 8.11054 7.37172 8.12459 7.45975C8.13864 7.54778 8.18358 7.62793 8.25137 7.68582C8.31916 7.74371 8.40535 7.77562 8.4945 7.77572ZM10.5033 7.26203C10.5272 7.26202 10.5511 7.25972 10.5746 7.25516C12.6418 6.8571 15.1099 6.74753 17.9104 6.92966C18.0096 6.93612 18.1074 6.9029 18.1821 6.83729C18.2569 6.77168 18.3025 6.67906 18.309 6.57981C18.3154 6.48056 18.2822 6.38281 18.2166 6.30806C18.151 6.23331 18.0584 6.18769 17.9591 6.18122C15.0949 5.99497 12.5627 6.1086 10.4328 6.51872C10.3412 6.53627 10.2593 6.58736 10.2033 6.66202C10.1473 6.73668 10.1212 6.82953 10.13 6.92244C10.1388 7.01535 10.1819 7.10163 10.251 7.16443C10.32 7.22723 10.41 7.26203 10.5033 7.26203Z" fill="#F2F2F2"/>
    <path d="M30.8734 22.9632C28.9429 21.6326 27.7786 21.1319 26.3615 20.6345C27.7347 20.1021 30.0041 18.956 30.6131 17.0331C31.602 13.9105 31.3652 11.1706 29.9282 9.10968C27.9871 6.32568 23.9589 4.77256 17.9555 4.49374C14.3071 4.25687 11.2162 4.50624 8.76744 5.23531C6.5305 5.90124 4.809 6.97018 3.65081 8.41237C2.71956 9.57193 2.16031 10.9602 1.98863 12.5385C1.83481 13.9519 1.99331 15.483 2.45963 17.0894C2.96881 18.8436 5.35613 20.1633 6.58694 20.74C4.94244 21.5725 3.22179 22.2452 1.44869 22.7487C1.26583 22.7995 1.0988 22.8957 0.963209 23.0285C0.827614 23.1612 0.727871 23.3262 0.67329 23.508C0.618708 23.6897 0.61107 23.8823 0.651086 24.0678C0.691103 24.2533 0.77747 24.4257 0.902125 24.5687L3.20625 27.2085C3.35135 27.3751 3.54236 27.4952 3.75538 27.5538C3.9684 27.6124 4.19398 27.6069 4.40388 27.5379C7.24308 26.6162 9.91168 25.2346 12.3032 23.4482C12.9789 23.8044 15.0641 24.8172 16.9266 24.8172C17.5746 24.8172 18.1958 24.6946 18.7209 24.3788C19.2276 24.0742 19.6022 23.622 19.8437 23.0265C21.2773 24.1187 25.9217 27.4937 28.5734 27.4937C28.6058 27.4937 28.6385 27.4932 28.6704 27.4922C28.8547 27.4858 29.0347 27.4352 29.1954 27.3447C29.356 27.2542 29.4926 27.1265 29.5936 26.9722L31.1862 24.5467C31.3532 24.2948 31.414 23.9872 31.3554 23.6907C31.2969 23.3941 31.1237 23.1327 30.8734 22.9632ZM29.4757 9.78556C30.6445 11.6392 30.7872 13.9992 29.8981 16.8067C29.2197 18.9486 25.8461 20.0471 25.2035 20.2384C25.02 20.176 24.8366 20.113 24.6535 20.0494C23.0431 19.4889 21.9782 18.3729 21.6164 17.9487C23.048 17.437 24.4032 16.7326 25.6446 15.855C28.0128 14.1552 29.3188 12.0753 29.4757 9.78556ZM21.56 16.6484C21.1491 15.7047 20.0769 15.4 19.2498 15.3104C17.7223 15.1452 15.4873 15.5117 12.6075 16.3999C12.5145 16.4287 12.4294 16.4788 12.3592 16.5462C11.7056 16.3591 9.97344 15.8051 8.30194 14.7737C7.81138 14.4739 7.34382 14.138 6.90313 13.7687C7.43324 13.0089 8.07557 12.3339 8.80819 11.7668C10.6894 10.3007 12.9219 9.66199 15.4434 9.86843C16.7591 9.97618 17.96 9.89606 19.0196 9.82543C22.0763 9.62168 24.3 9.47374 26.8873 13.7807C26.3826 14.3202 25.8248 14.8075 25.2223 15.2351C23.8507 16.2226 22.4254 16.8392 21.6899 17.1216C21.6693 16.9585 21.6255 16.7992 21.56 16.6484ZM4.50331 8.57024C5.55794 7.40524 7.06131 6.52549 8.98144 5.95387C11.3456 5.24999 14.35 5.01068 17.9104 5.24218L17.9174 5.24256C23.1111 5.48356 26.7378 6.68262 28.7216 8.80956C28.8487 10.3898 28.4044 11.8501 27.3961 13.1747C26.1689 11.193 24.9108 9.99718 23.4643 9.43093C22.0384 8.87256 20.5478 8.97193 18.9697 9.07712C17.8857 9.14943 16.7647 9.22412 15.5046 9.12087C12.1233 8.84374 9.74594 10.0851 8.34719 11.1751C7.58234 11.7678 6.90802 12.4689 6.3455 13.2562C4.98231 11.8905 4.36456 10.3216 4.50331 8.57024ZM5.56981 19.3452C4.23906 18.5343 3.4125 17.6819 3.17988 16.8801C2.741 15.3683 2.59113 13.9348 2.73425 12.6194C2.85781 11.4832 3.2015 10.4582 3.75663 9.56081C3.94506 11.8347 5.36038 13.8399 7.90813 15.412C9.58313 16.4457 11.2819 17.0132 12.0432 17.2364C10.606 18.3969 9.06394 19.421 7.43694 20.2956C6.79243 20.0243 6.16842 19.7066 5.56981 19.3451V19.3452ZM4.1705 26.825C4.10053 26.848 4.02534 26.8498 3.95433 26.8303C3.88333 26.8107 3.81966 26.7707 3.77131 26.7151L1.46719 24.0754C1.42544 24.0286 1.39648 23.9718 1.38312 23.9106C1.36976 23.8493 1.37246 23.7857 1.39094 23.7257C1.40871 23.6644 1.44202 23.6087 1.48765 23.564C1.53328 23.5192 1.58967 23.4871 1.65138 23.4706C6.70244 22.0527 10.8612 19.2466 12.694 17.6729L15.4661 19.425C14.5437 20.5734 10.9304 24.6117 4.1705 26.825ZM18.3351 23.7355C17.3513 24.3274 15.828 24.0218 14.7233 23.6612C14.119 23.4607 13.5291 23.219 12.9578 22.9379C13.118 22.8088 13.2764 22.6777 13.4331 22.5446C14.857 21.3334 15.7289 20.3075 16.1049 19.8289L18.7563 21.5051C18.9463 21.6257 19.1746 21.6712 19.3964 21.6326C19.3054 22.6596 18.95 23.3656 18.3351 23.7357V23.7355ZM19.389 20.8051C19.379 20.8255 19.3648 20.8436 19.3474 20.8582C19.3299 20.8728 19.3096 20.8835 19.2877 20.8897C19.2658 20.8959 19.2428 20.8975 19.2203 20.8942C19.1978 20.891 19.1762 20.883 19.157 20.8709L13.0911 17.0364C19.3236 15.1571 20.609 16.3431 20.8723 16.9477C20.9314 17.0893 20.9591 17.242 20.9534 17.3953C20.9476 17.5486 20.9087 17.6988 20.8392 17.8356L19.389 20.8051ZM30.5592 24.1347L28.9667 26.5601C28.9318 26.6139 28.8844 26.6586 28.8286 26.6903C28.7729 26.722 28.7103 26.7398 28.6462 26.7422C27.5107 26.7797 25.6427 25.9974 23.2484 24.4824C21.7763 23.5512 20.5206 22.6019 20.0667 22.2512C20.146 21.8122 20.1798 21.3663 20.1674 20.9204L21.2617 18.6796C21.7961 19.2531 22.8679 20.2219 24.4071 20.7576C24.7227 20.8674 25.0171 20.9672 25.2963 21.0619C27.1344 21.6852 28.2438 22.0615 30.4478 23.5807C30.5356 23.6397 30.5966 23.7311 30.6175 23.8348C30.6384 23.9386 30.6174 24.0464 30.5592 24.1349V24.1347Z" fill="#F2F2F2"/>
</svg>
