<svg width="32" height="30" viewBox="0 0 32 30" fill="none"
    xmlns="http://www.w3.org/2000/svg">
    <path d="M23.2661 29.3304C23.0422 29.3304 22.8129 29.3024 22.5862 29.2424L1.97093 23.7217C1.29125 23.533 0.712833 23.085 0.360243 22.4741C0.00765208 21.8632 -0.0909096 21.1382 0.085782 20.4553L2.68686 10.7603C2.7348 10.5921 2.8469 10.4495 2.99899 10.3632C3.15108 10.277 3.33098 10.2539 3.49992 10.299C3.66886 10.3441 3.81331 10.4538 3.90213 10.6044C3.99094 10.7551 4.01702 10.9346 3.97473 11.1042L1.37499 20.7966C1.18967 21.5032 1.61363 22.2391 2.32156 22.4351L22.9289 27.9532C23.2685 28.0436 23.6301 27.9956 23.9343 27.8196C24.2385 27.6436 24.4604 27.3541 24.5514 27.0147L25.5926 23.1564C25.6153 23.0718 25.6545 22.9926 25.7079 22.9231C25.7613 22.8537 25.8279 22.7955 25.9037 22.7518C25.9796 22.7081 26.0634 22.6798 26.1502 22.6684C26.2371 22.6571 26.3253 22.663 26.4098 22.6858C26.4944 22.7085 26.5737 22.7477 26.6431 22.8011C26.7125 22.8545 26.7707 22.921 26.8144 22.9969C26.8581 23.0728 26.8864 23.1566 26.8978 23.2434C26.9091 23.3302 26.9032 23.4184 26.8805 23.503L25.8406 27.356C25.689 27.9227 25.3544 28.4236 24.8888 28.7806C24.4233 29.1377 23.8529 29.331 23.2661 29.3304Z" fill="#F2F2F2"/>
    <path d="M29.3282 21.3312H7.997C6.52648 21.3312 5.3306 20.1353 5.3306 18.6648V2.6664C5.3306 1.19588 6.52648 0 7.997 0H29.3282C30.7987 0 31.9946 1.19588 31.9946 2.6664V18.6648C31.9946 20.1353 30.7987 21.3312 29.3282 21.3312ZM7.997 1.3332C7.26241 1.3332 6.6638 1.93181 6.6638 2.6664V18.6648C6.6638 19.3994 7.26241 19.998 7.997 19.998H29.3282C30.0628 19.998 30.6614 19.3994 30.6614 18.6648V2.6664C30.6614 1.93181 30.0628 1.3332 29.3282 1.3332H7.997Z" fill="#F2F2F2"/>
    <path d="M11.9966 9.33244C10.5261 9.33244 9.3302 8.13656 9.3302 6.66604C9.3302 5.19552 10.5261 3.99963 11.9966 3.99963C13.4671 3.99963 14.663 5.19552 14.663 6.66604C14.663 8.13656 13.4671 9.33244 11.9966 9.33244ZM11.9966 5.33284C11.262 5.33284 10.6634 5.93144 10.6634 6.66604C10.6634 7.40063 11.262 7.99924 11.9966 7.99924C12.7312 7.99924 13.3298 7.40063 13.3298 6.66604C13.3298 5.93144 12.7312 5.33284 11.9966 5.33284ZM6.09052 19.9047C5.95878 19.9047 5.83 19.8656 5.72044 19.7925C5.61089 19.7193 5.52547 19.6153 5.47497 19.4936C5.42447 19.372 5.41116 19.238 5.43672 19.1088C5.46228 18.9796 5.52556 18.8608 5.61856 18.7675L11.9153 12.4708C12.6699 11.7162 13.9884 11.7162 14.743 12.4708L16.6175 14.3453L21.8063 8.11923C21.9926 7.89586 22.2253 7.71575 22.4882 7.59142C22.7511 7.46709 23.038 7.40153 23.3288 7.3993H23.3435C23.6319 7.39914 23.9169 7.46137 24.179 7.58173C24.4412 7.70208 24.6741 7.87771 24.862 8.09656L31.8346 16.2318C31.8927 16.298 31.9371 16.3752 31.9652 16.4587C31.9933 16.5423 32.0046 16.6306 31.9983 16.7185C31.9921 16.8064 31.9684 16.8922 31.9288 16.971C31.8892 17.0497 31.8343 17.1198 31.7674 17.1772C31.7005 17.2346 31.6228 17.2781 31.539 17.3053C31.4551 17.3325 31.3667 17.3428 31.2789 17.3356C31.191 17.3284 31.1055 17.3038 31.0272 17.2633C30.9489 17.2228 30.8794 17.1672 30.8227 17.0997L23.8501 8.96448C23.7877 8.8912 23.71 8.83247 23.6225 8.7924C23.535 8.75232 23.4397 8.73188 23.3435 8.7325C23.2462 8.7351 23.1505 8.75775 23.0625 8.79905C22.9744 8.84034 22.8957 8.89938 22.8315 8.97247L17.1748 15.7598C17.1154 15.8311 17.0418 15.8891 16.9587 15.9302C16.8756 15.9713 16.7848 15.9946 16.6921 15.9984C16.5995 16.0042 16.5067 15.9898 16.4201 15.9562C16.3336 15.9226 16.2553 15.8706 16.1908 15.8038L13.8004 13.4134C13.6731 13.2928 13.5045 13.2256 13.3291 13.2256C13.1538 13.2256 12.9851 13.2928 12.8578 13.4134L6.56114 19.7101C6.49936 19.7719 6.42599 19.8209 6.34523 19.8543C6.26447 19.8877 6.17791 19.9049 6.09052 19.9047Z" fill="#F2F2F2"/>
</svg>
