<svg width="32" height="32" viewBox="0 0 32 32" fill="none"
    xmlns="http://www.w3.org/2000/svg">
    <g clip-path="url(#clip0_11_252)">
        <path d="M8.33338 26C7.28938 25.9981 6.27225 25.6689 5.42509 25.0588C4.57793 24.4486 3.94338 23.5882 3.61072 22.5987L3.56405 22.4453C3.4147 21.9779 3.33693 21.4906 3.33338 21V11.9093L0.0987173 22.7067C-0.0992541 23.475 0.0122299 24.2903 0.40919 24.9772C0.806149 25.6642 1.45687 26.1679 2.22138 26.38L22.8387 31.9013C23.0961 31.968 23.3534 32 23.6067 32C24.9347 32 26.1481 31.1187 26.4881 29.82L27.6894 26H8.33338ZM12.0001 12C13.4707 12 14.6667 10.804 14.6667 9.33332C14.6667 7.86266 13.4707 6.66666 12.0001 6.66666C10.5294 6.66666 9.33338 7.86266 9.33338 9.33332C9.33338 10.804 10.5294 12 12.0001 12Z" fill="#F2F2F2"/>
        <path d="M28.6667 2.66666H8.66671C7.78298 2.66772 6.93575 3.01924 6.31085 3.64414C5.68596 4.26903 5.33443 5.11626 5.33337 5.99999V20.6667C5.33337 22.504 6.82937 24 8.66671 24H28.6667C30.504 24 32 22.504 32 20.6667V5.99999C32 4.16266 30.504 2.66666 28.6667 2.66666ZM8.66671 5.33332H28.6667C28.8435 5.33332 29.0131 5.40356 29.1381 5.52859C29.2631 5.65361 29.3334 5.82318 29.3334 5.99999V15.4653L25.1214 10.5507C24.8987 10.2948 24.624 10.0894 24.3157 9.948C24.0074 9.80661 23.6725 9.73252 23.3334 9.73066C22.9931 9.73242 22.6572 9.80864 22.3495 9.95399C22.0418 10.0993 21.7696 10.3103 21.552 10.572L16.6 16.516L14.9867 14.9067C14.548 14.4686 13.9533 14.2226 13.3334 14.2226C12.7134 14.2226 12.1188 14.4686 11.68 14.9067L8.00004 18.5853V5.99999C8.00004 5.82318 8.07028 5.65361 8.1953 5.52859C8.32033 5.40356 8.4899 5.33332 8.66671 5.33332Z" fill="#F2F2F2"/>
    </g>
    <defs>
        <clipPath id="clip0_11_252">
            <rect width="32" height="32" fill="white"/>
        </clipPath>
    </defs>
</svg>
