<svg width="32" height="32" viewBox="0 0 32 32" fill="none"
    xmlns="http://www.w3.org/2000/svg">
    <path d="M16.3475 6.32998C16.2544 6.24096 16.1306 6.19128 16.0019 6.19128C15.8731 6.19128 15.7493 6.24096 15.6562 6.32998L4.14999 17.3219C4.10113 17.3686 4.06225 17.4248 4.03572 17.487C4.00918 17.5492 3.99554 17.6161 3.99562 17.6837L3.99374 28C3.99374 28.5304 4.20446 29.0391 4.57953 29.4142C4.9546 29.7893 5.46331 30 5.99374 30H12C12.2652 30 12.5196 29.8946 12.7071 29.7071C12.8946 29.5196 13 29.2652 13 29V20.5C13 20.3674 13.0527 20.2402 13.1464 20.1464C13.2402 20.0527 13.3674 20 13.5 20H18.5C18.6326 20 18.7598 20.0527 18.8535 20.1464C18.9473 20.2402 19 20.3674 19 20.5V29C19 29.2652 19.1054 29.5196 19.2929 29.7071C19.4804 29.8946 19.7348 30 20 30H26.0037C26.5342 30 27.0429 29.7893 27.418 29.4142C27.793 29.0391 28.0037 28.5304 28.0037 28V17.6837C28.0038 17.6161 27.9902 17.5492 27.9636 17.487C27.9371 17.4248 27.8982 17.3686 27.8494 17.3219L16.3475 6.32998Z" fill="#F2F2F2"/>
    <path d="M30.6819 15.2594L26.0069 10.7869V4C26.0069 3.73478 25.9015 3.48043 25.714 3.29289C25.5264 3.10536 25.2721 3 25.0069 3H22.0069C21.7416 3 21.4873 3.10536 21.2998 3.29289C21.1122 3.48043 21.0069 3.73478 21.0069 4V6L17.3869 2.53875C17.0481 2.19625 16.5444 2 16 2C15.4575 2 14.955 2.19625 14.6162 2.53938L1.32249 15.2581C0.933743 15.6331 0.884993 16.25 1.23874 16.6562C1.32758 16.7588 1.43634 16.8422 1.55843 16.9014C1.68052 16.9605 1.81337 16.9942 1.94889 17.0004C2.08442 17.0066 2.21979 16.9852 2.34677 16.9374C2.47375 16.8896 2.58967 16.8165 2.68749 16.7225L15.6562 4.33C15.7493 4.24099 15.8731 4.19131 16.0019 4.19131C16.1306 4.19131 16.2544 4.24099 16.3475 4.33L29.3175 16.7225C29.5085 16.9057 29.7645 17.0057 30.0291 17.0006C30.2938 16.9954 30.5456 16.8855 30.7294 16.695C31.1131 16.2975 31.0812 15.6412 30.6819 15.2594Z" fill="#F2F2F2"/>
</svg>
