<?xml version="1.0" encoding="UTF-8" standalone="no"?>
<!DOCTYPE svg PUBLIC "-//W3C//DTD SVG 20010904//EN"
              "http://www.w3.org/TR/2001/REC-SVG-20010904/DTD/svg10.dtd">

<svg xmlns="http://www.w3.org/2000/svg"
     width="2.5in" height="2.5in"
     viewBox="0 0 750 750">
  <path id="Seleção"
        fill="none" stroke="black" stroke-width="1"
        d="M 363.00,41.00
           C 363.00,41.00 374.79,42.02 374.79,42.02
             374.79,42.02 389.00,61.00 389.00,61.00
             389.00,53.74 390.19,43.12 390.19,43.12
             390.19,43.12 402.00,43.00 402.00,43.00
             402.00,43.00 399.00,82.00 399.00,82.00
             399.00,82.00 387.19,81.06 387.19,81.06
             387.19,81.06 374.44,60.38 374.44,60.38
             374.43,63.89 372.44,79.50 372.44,79.50
             372.44,79.50 363.19,79.10 361.00,79.18
             361.00,79.18 363.00,41.00 363.00,41.00 Z
           M 324.44,42.88
           C 324.44,42.88 338.94,42.38 338.94,42.38
             338.94,42.38 356.25,79.00 356.25,79.00
             356.25,79.00 344.50,80.06 344.50,80.06
             344.50,80.06 340.81,74.31 340.81,74.31
             340.81,74.31 327.38,75.19 327.38,75.19
             327.38,75.19 326.44,81.69 326.44,81.69
             326.44,81.69 314.56,82.50 314.56,82.50
             314.56,82.50 324.44,42.88 324.44,42.88 Z
           M 416.44,45.31
           C 420.22,43.91 443.59,49.63 446.99,58.00
             450.13,65.71 447.19,86.25 431.00,86.00
             421.96,86.12 413.69,83.88 406.75,82.06
             406.75,82.06 416.44,45.31 416.44,45.31 Z
           M 289.00,49.00
           C 289.00,49.00 300.31,46.75 300.31,46.75
             300.31,46.75 310.25,83.88 310.25,83.88
             310.25,83.88 298.25,86.06 298.25,86.06
             298.25,86.06 281.00,70.25 281.00,70.25
             281.00,70.25 285.00,89.00 285.00,89.00
             285.00,89.00 273.56,92.06 273.56,92.06
             273.56,92.06 264.00,54.00 264.00,54.00
             264.00,54.00 275.19,53.00 275.19,53.00
             275.19,53.00 289.56,63.65 294.00,67.00
             294.00,67.00 289.00,49.00 289.00,49.00 Z
           M 333.00,55.00
           C 333.00,55.00 330.00,65.00 330.00,65.00
             330.00,65.00 337.00,65.00 337.00,65.00
             337.00,65.00 333.00,55.00 333.00,55.00 Z
           M 421.38,75.50
           C 423.95,75.97 427.43,77.27 429.89,75.98
             435.21,73.14 436.06,62.68 433.83,59.48
             432.47,57.54 429.16,56.73 427.00,56.00
             427.00,56.00 421.38,75.50 421.38,75.50 Z
           M 464.00,55.00
           C 464.00,55.00 494.00,66.00 494.00,66.00
             494.00,66.00 491.00,74.00 491.00,74.00
             491.00,74.00 472.00,67.00 472.00,67.00
             472.00,67.00 470.00,72.00 470.00,72.00
             470.00,72.00 487.00,79.00 487.00,79.00
             487.00,79.00 485.00,86.00 485.00,86.00
             485.00,86.00 467.12,80.38 467.12,80.38
             467.12,80.38 465.00,87.00 465.00,87.00
             468.21,87.75 483.88,93.69 483.88,93.69
             483.88,93.69 481.63,100.05 481.00,102.00
             481.00,102.00 449.00,91.00 449.00,91.00
             449.00,91.00 464.00,55.00 464.00,55.00 Z
           M 245.00,104.00
           C 242.62,105.24 233.62,108.12 233.62,108.12
             233.62,108.12 217.19,73.38 217.19,73.38
             217.19,73.38 239.93,60.55 246.69,62.06
             256.20,64.19 256.42,75.29 252.00,82.00
             258.70,83.28 264.69,87.83 269.00,93.00
             269.00,93.00 256.44,97.85 256.44,97.85
             256.44,97.85 246.19,89.05 238.44,89.25
             238.44,89.25 245.00,104.00 245.00,104.00 Z
           M 235.00,82.00
           C 237.32,81.11 240.66,80.02 241.92,77.68
             243.33,75.07 241.43,72.50 237.00,73.66
             235.21,74.13 233.61,75.13 232.00,76.00
             232.00,76.00 235.00,82.00 235.00,82.00 Z
           M 510.62,82.94
           C 505.25,85.44 522.49,97.32 522.50,97.31
             528.18,105.69 521.80,114.26 512.00,115.44
             502.84,116.55 485.56,105.81 489.69,93.44
             489.69,93.44 500.75,96.88 500.75,96.88
             502.10,98.62 500.98,102.30 503.50,104.69
             506.30,107.34 510.88,105.82 510.88,103.12
             510.88,100.10 505.04,96.76 503.04,94.83
             497.30,89.29 493.84,81.14 502.04,75.74
             509.39,70.90 534.31,77.35 528.31,93.56
             528.31,93.56 519.36,90.27 519.36,90.27
             515.00,83.62 516.44,82.12 510.62,82.94 Z
           M 177.81,93.88
           C 177.81,93.88 206.81,77.88 206.81,77.88
             206.81,77.88 210.88,85.69 210.88,85.69
             210.88,85.69 194.00,95.00 194.00,95.00
             194.00,95.00 196.00,100.00 196.00,100.00
             196.00,100.00 213.00,91.00 213.00,91.00
             213.00,91.00 217.00,99.00 217.00,99.00
             214.36,100.40 202.31,106.88 201.19,107.56
             201.88,108.94 204.38,112.69 204.88,113.81
             205.94,113.31 221.62,104.62 223.06,103.75
             224.06,105.25 226.38,110.62 226.94,111.62
             226.25,112.25 200.00,127.50 198.62,128.06
             198.12,127.44 178.88,96.19 177.81,93.88 Z
           M 179.13,143.65
           C 177.96,144.57 170.96,149.78 169.48,150.83
             168.87,150.35 144.39,120.22 143.78,119.61
             144.78,118.70 166.78,101.83 167.39,101.43
             168.22,101.91 172.87,107.17 173.43,107.96
             172.57,108.83 159.96,118.96 159.96,118.96
             159.96,118.96 163.70,124.43 163.70,124.43
             163.70,124.43 175.39,114.87 175.39,114.87
             175.39,114.87 180.78,121.65 180.78,121.65
             178.37,123.43 171.17,129.43 170.17,130.65
             170.48,131.48 177.91,141.78 179.13,143.65 Z
           M 562.17,105.17
           C 567.06,104.68 570.42,108.75 574.00,111.75
             577.80,114.94 582.01,118.23 583.85,123.00
             587.35,132.04 579.58,143.36 572.00,147.77
             562.03,153.58 553.69,147.88 546.00,141.58
             543.73,139.72 537.81,135.93 538.12,132.69
             538.12,132.69 562.17,105.17 562.17,105.17 Z
           M 553.31,134.25
           C 556.17,135.68 559.68,139.29 563.00,138.22
             568.67,136.39 577.77,124.77 566.00,119.00
             561.83,124.51 553.31,134.25 553.31,134.25 Z
           M 600.00,135.00
           C 605.74,139.11 622.69,159.25 622.69,159.25
             622.69,159.25 615.31,164.62 615.31,164.62
             615.31,164.62 602.38,150.88 602.38,150.88
             602.38,150.88 597.75,153.31 597.75,153.31
             597.75,153.31 610.19,168.00 610.19,168.00
             610.19,168.00 603.69,173.19 603.69,173.19
             603.69,173.19 590.69,159.81 590.69,159.81
             590.69,159.81 585.69,163.50 585.69,163.50
             585.69,163.50 599.81,180.50 599.81,180.50
             599.81,180.50 592.00,186.00 592.00,186.00
             592.00,186.00 571.61,161.17 571.61,161.17
             571.61,161.17 600.00,135.00 600.00,135.00 Z
           M 116.00,150.53
           C 126.72,148.77 137.42,153.60 141.91,164.00
             146.58,174.81 138.06,189.78 127.00,192.47
             114.37,195.54 99.46,185.19 99.13,172.00
             98.89,162.31 107.19,153.28 116.00,150.53 Z
           M 117.00,162.45
           C 103.35,167.92 116.98,182.82 125.98,180.55
             131.52,179.16 133.08,173.65 130.11,169.04
             127.09,164.35 122.48,161.91 117.00,162.45 Z
           M 608.00,205.00
           C 608.00,205.00 642.25,185.88 642.25,185.88
             642.25,185.88 648.69,196.06 648.69,196.06
             648.69,196.06 637.19,203.44 637.19,203.44
             637.19,203.44 655.19,206.88 655.19,206.88
             655.19,206.88 663.00,221.00 663.00,221.00
             663.00,221.00 643.38,216.62 643.38,216.62
             643.38,216.62 630.00,242.00 630.00,242.00
             630.00,242.00 672.75,240.94 672.75,240.94
             672.75,240.94 677.12,253.50 677.12,253.50
             677.12,253.50 667.90,262.60 665.00,265.15
             659.48,270.02 651.36,278.28 645.00,281.00
             643.67,278.44 640.94,268.62 640.94,268.62
             640.94,268.62 645.00,266.44 645.00,266.44
             645.00,266.44 640.81,253.00 640.81,253.00
             640.81,253.00 633.94,253.06 633.94,253.06
             633.94,253.06 622.55,229.00 622.55,229.00
             622.55,229.00 630.56,213.12 630.56,213.12
             630.56,213.12 625.69,211.75 625.69,211.75
             625.69,211.75 613.44,216.00 613.44,216.00
             613.44,216.00 608.00,205.00 608.00,205.00 Z
           M 72.31,188.34
           C 74.26,188.44 74.86,188.18 76.22,190.16
             79.36,194.75 74.12,197.19 71.44,200.12
             70.49,201.72 70.74,205.11 69.41,205.83
             67.38,206.94 65.22,204.75 64.66,202.94
             63.48,199.15 66.69,196.94 69.31,195.00
             72.75,192.12 69.41,190.94 72.31,188.34 Z
           M 102.00,238.00
           C 96.86,236.36 95.14,233.00 91.73,229.00
             88.56,225.29 75.76,211.12 74.36,208.00
             72.71,204.32 76.05,196.99 79.39,195.06
             81.86,193.63 87.99,195.57 91.00,196.00
             91.00,196.00 122.00,201.00 122.00,201.00
             121.30,204.43 119.61,209.18 116.62,211.31
             113.08,213.85 110.85,210.19 106.25,217.02
             101.91,224.05 106.34,224.41 106.25,229.00
             105.91,231.29 103.16,235.81 102.00,238.00 Z
           M 99.00,209.00
           C 99.00,209.00 88.00,207.00 88.00,207.00
             88.00,207.00 96.00,215.00 96.00,215.00
             96.00,215.00 99.00,209.00 99.00,209.00 Z
           M 93.96,266.26
           C 89.87,261.17 87.67,268.43 82.00,270.20
             73.59,272.83 62.43,269.81 56.21,263.68
             46.27,253.86 53.04,229.04 72.13,230.04
             72.13,230.04 71.00,242.00 71.00,242.00
             69.53,242.31 67.86,241.62 66.48,242.39
             57.22,249.17 68.39,260.26 78.09,259.00
             80.82,258.53 84.03,256.04 84.65,253.35
             85.55,249.45 81.56,246.47 79.75,244.34
             80.41,243.06 85.88,236.62 87.00,235.75
             90.97,235.66 96.72,244.29 94.91,253.94
             94.91,253.94 96.81,253.94 96.81,253.94
             102.47,250.28 105.62,258.12 103.35,264.00
             102.70,266.21 100.91,268.89 99.81,270.98
             99.81,270.98 96.16,269.86 96.16,269.86
             98.01,265.43 100.02,260.97 98.50,260.00
             96.69,259.44 95.65,264.12 93.96,266.26 Z
           M 662.00,252.00
           C 662.00,252.00 651.00,252.00 651.00,252.00
             651.00,252.00 653.00,259.00 653.00,259.00
             653.00,259.00 662.00,252.00 662.00,252.00 Z
           M 665.31,294.88
           C 662.56,295.25 648.94,298.00 648.94,298.00
             648.94,298.00 647.59,286.14 647.59,286.14
             647.59,286.14 686.00,277.00 686.00,277.00
             687.10,284.14 692.97,301.15 691.42,307.00
             689.29,315.01 676.29,316.91 672.00,310.00
             672.00,310.00 656.00,323.00 656.00,323.00
             656.00,323.00 697.00,335.00 697.00,335.00
             697.00,335.00 698.00,348.44 698.00,348.44
             698.00,348.44 659.50,366.56 659.50,366.56
             659.50,366.56 658.06,354.00 658.06,354.00
             658.06,354.00 664.00,351.94 664.00,351.94
             664.00,351.94 662.69,337.56 662.69,337.56
             662.69,337.56 656.50,336.69 656.50,336.69
             656.50,336.69 652.12,310.06 652.12,310.06
             652.12,310.06 662.62,304.05 665.31,294.88 Z
           M 77.25,308.25
           C 76.75,310.06 74.25,318.88 73.81,320.50
             72.38,319.62 38.62,298.00 37.62,297.31
             37.69,296.38 40.75,284.88 41.19,283.88
             42.69,283.62 84.06,278.31 84.06,278.31
             83.75,280.06 81.56,288.44 81.12,290.62
             80.25,290.81 75.25,291.88 74.25,292.12
             73.81,294.25 71.74,302.21 71.00,305.00
             71.00,305.00 77.25,308.25 77.25,308.25 Z
           M 681.00,302.00
           C 680.97,292.98 680.87,291.67 673.00,293.00
             674.48,298.42 675.10,301.02 681.00,302.00 Z
           M 64.00,293.00
           C 64.00,293.00 51.81,293.88 51.81,293.88
             51.94,294.25 62.12,298.50 62.88,299.06
             62.88,299.06 64.00,293.00 64.00,293.00 Z
           M 33.00,321.00
           C 33.00,321.00 72.22,324.91 73.16,325.06
             73.16,325.78 72.69,336.38 72.69,336.84
             71.78,336.81 32.00,334.00 32.00,334.00
             32.00,334.00 33.00,321.00 33.00,321.00 Z
           M 685.00,342.00
           C 685.00,342.00 672.00,340.00 672.00,340.00
             672.00,340.00 673.00,348.00 673.00,348.00
             677.29,346.99 682.45,345.80 685.00,342.00 Z
           M 57.00,344.00
           C 68.73,345.32 72.54,354.33 71.13,365.00
             70.73,367.96 70.44,370.34 68.91,373.00
             65.24,379.44 59.11,382.20 52.00,382.83
             46.36,383.33 38.32,381.88 34.21,377.79
             27.60,371.22 26.62,355.16 33.39,348.39
             35.77,346.01 39.32,344.77 42.48,343.87
             42.74,345.65 44.07,353.13 44.30,355.13
             42.46,357.61 38.51,359.87 39.79,363.96
             41.76,370.20 53.02,371.21 57.77,367.91
             61.35,365.43 61.69,360.66 58.57,357.65
             57.27,356.40 55.60,355.75 54.00,355.00
             54.00,355.00 57.00,344.00 57.00,344.00 Z
           M 689.00,367.00
           C 689.00,367.00 698.00,367.00 698.00,367.00
             698.00,367.00 697.25,405.06 697.25,405.06
             694.42,405.06 687.31,404.88 687.31,404.88
             687.31,404.88 686.88,390.81 686.88,390.81
             686.88,390.81 657.38,389.31 657.38,389.31
             657.38,389.31 656.94,377.38 656.94,377.38
             656.94,377.38 688.56,378.44 688.56,378.44
             688.56,378.44 689.00,370.20 689.00,367.00 Z
           M 50.00,390.44
           C 56.45,389.61 62.70,389.92 67.90,394.39
             75.74,401.13 76.46,418.18 69.47,425.67
             64.41,431.10 57.03,432.18 50.00,431.98
             35.98,431.60 31.71,421.39 32.01,409.00
             32.11,405.10 32.76,401.40 34.99,398.09
             38.56,392.81 44.16,391.53 50.00,390.44 Z
           M 51.00,403.33
           C 48.15,404.04 45.49,404.73 43.60,407.22
             40.63,411.14 41.72,418.48 50.00,418.96
             53.27,419.15 57.92,418.87 60.66,416.91
             64.94,413.86 64.87,406.82 60.66,404.17
             58.07,402.55 53.90,403.01 51.00,403.33 Z
           M 656.00,408.00
           C 656.00,408.00 696.00,417.00 696.00,417.00
             696.00,417.00 689.44,448.44 689.44,448.44
             689.44,448.44 681.06,446.81 681.06,446.81
             681.06,446.81 684.50,426.38 684.50,426.38
             684.50,426.38 678.12,425.69 678.12,425.69
             678.12,425.69 675.00,444.00 675.00,444.00
             675.00,444.00 667.12,441.94 667.12,441.94
             667.12,441.94 668.73,432.41 670.00,422.94
             668.67,422.87 663.12,422.00 663.12,422.00
             663.12,422.00 657.94,441.75 657.94,441.75
             657.94,441.75 649.12,439.69 649.12,439.69
             649.12,439.69 656.00,408.00 656.00,408.00 Z
           M 50.00,443.00
           C 51.43,446.09 53.18,449.49 52.66,453.00
             52.30,455.49 50.60,457.68 51.03,459.92
             51.42,461.94 53.48,463.46 54.99,461.54
             56.01,460.25 55.97,457.58 56.00,456.00
             56.00,456.00 56.00,452.00 56.00,452.00
             56.05,443.20 59.66,435.31 70.00,436.56
             83.86,438.22 92.73,465.97 74.00,472.00
             72.78,469.22 70.40,464.17 71.30,461.17
             71.30,461.17 74.16,455.91 74.16,455.91
             75.21,451.98 71.49,447.97 68.73,450.58
             66.69,452.51 67.02,457.37 67.00,460.00
             66.96,466.38 65.84,472.54 59.00,475.11
             57.41,475.70 55.67,475.87 54.00,475.62
             41.95,473.81 34.54,448.32 50.00,443.00 Z
           M 662.00,465.00
           C 662.00,465.00 653.94,462.69 653.94,462.69
             653.94,462.69 658.75,447.06 658.75,447.06
             658.75,447.06 667.00,450.00 667.00,450.00
             667.00,450.00 662.00,465.00 662.00,465.00 Z
           M 642.00,465.00
           C 642.00,465.00 679.69,481.38 679.69,481.38
             679.69,481.38 674.83,493.65 673.22,497.00
             670.79,502.05 668.53,506.36 663.00,508.44
             653.38,512.04 628.39,505.08 633.92,484.00
             635.40,478.38 639.43,470.45 642.00,465.00 Z
           M 92.13,510.65
           C 91.10,508.51 87.11,504.01 86.94,502.00
             86.70,499.00 92.45,491.32 85.94,489.34
             81.90,488.11 81.54,493.44 81.93,496.00
             81.93,496.00 82.96,503.00 82.96,503.00
             83.05,505.16 83.01,507.94 82.30,509.99
             79.93,516.81 72.24,519.75 66.00,515.99
             58.94,511.74 51.98,496.33 58.43,489.16
             60.47,486.89 61.09,486.09 62.96,485.61
             63.96,487.48 67.96,494.58 68.57,496.00
             67.74,498.04 65.43,498.22 66.09,502.57
             66.89,505.38 72.22,506.39 71.87,503.39
             70.65,499.74 70.01,492.00 70.01,492.00
             69.95,489.39 69.83,485.42 70.85,483.04
             73.51,476.85 82.29,475.42 88.00,477.72
             97.77,481.66 106.57,503.70 92.13,510.65 Z
           M 645.00,481.00
           C 644.50,482.96 643.36,486.05 643.81,488.00
             645.01,493.23 654.97,498.18 659.98,496.39
             663.96,494.96 666.52,490.23 661.85,487.13
             661.85,487.13 654.00,483.77 654.00,483.77
             650.26,482.11 649.06,481.64 645.00,481.00 Z
           M 105.06,506.56
           C 105.06,506.56 111.00,514.94 112.06,516.69
             110.89,518.86 109.31,520.62 108.25,522.25
             108.81,523.81 112.42,530.67 114.42,533.80
             116.05,533.53 120.58,532.93 121.78,532.84
             122.49,533.89 128.13,542.36 128.89,543.62
             128.89,543.62 89.12,552.50 85.44,552.94
             84.19,551.44 79.19,544.19 77.69,541.12
             79.06,538.94 105.06,506.56 105.06,506.56 Z
           M 626.00,510.56
           C 636.56,508.72 648.07,513.87 652.47,524.00
             657.57,535.75 648.99,550.26 637.00,553.29
             626.06,556.06 611.33,545.21 610.20,534.00
             609.19,524.04 616.88,513.74 626.00,510.56 Z
           M 628.02,522.48
           C 613.95,526.72 625.54,542.15 636.00,540.84
             640.38,540.29 643.47,536.43 642.53,532.00
             641.25,526.01 633.57,522.43 628.02,522.48 Z
           M 105.00,537.00
           C 100.41,529.16 96.64,533.84 94.00,540.00
             94.00,540.00 105.00,537.00 105.00,537.00 Z
           M 590.00,576.66
           C 603.16,576.08 604.10,593.02 593.00,594.62
             583.37,596.00 577.61,581.11 590.00,576.66 Z
           M 141.02,581.74
           C 154.42,578.83 156.69,595.53 146.98,599.10
             136.57,602.92 129.22,588.23 141.02,581.74 Z
           M 427.64,666.73
           C 427.45,655.82 432.17,652.39 442.00,650.62
             452.56,648.71 460.00,652.05 458.90,664.00
             458.68,666.31 458.20,667.92 457.16,670.00
             455.28,673.76 450.80,678.58 448.00,682.00
             450.84,681.62 464.09,679.36 464.09,679.36
             464.09,679.36 466.45,687.64 466.45,687.64
             466.45,687.64 433.55,695.36 433.55,695.36
             432.45,683.55 440.52,677.03 445.86,668.00
             447.39,665.40 450.18,659.18 444.00,658.73
             437.73,658.55 440.66,664.50 438.64,666.00
             438.64,666.00 427.64,666.73 427.64,666.73 Z
           M 273.00,668.00
           C 273.00,668.00 274.61,659.22 274.61,659.22
             283.17,657.43 285.68,656.35 291.65,651.13
             291.65,651.13 300.26,653.17 300.26,653.17
             300.26,653.17 290.52,695.09 290.52,695.09
             290.52,695.09 279.26,691.48 279.26,691.48
             279.26,691.48 285.65,665.83 285.65,665.83
             282.87,666.00 280.00,667.57 273.00,668.00 Z
           M 343.00,686.00
           C 326.49,692.19 319.63,677.50 324.23,667.04
             328.75,656.74 344.85,657.04 351.66,664.21
             357.23,670.08 356.97,683.76 354.39,691.10
             349.41,704.95 325.25,707.08 323.00,691.10
             323.00,691.10 333.55,691.18 333.55,691.18
             334.54,696.21 344.46,698.53 343.00,686.00 Z
           M 398.18,684.91
           C 391.47,688.05 385.04,690.12 379.22,683.89
             376.92,681.42 375.53,678.36 375.20,675.00
             373.85,661.50 389.53,655.84 399.96,661.05
             406.97,664.55 409.13,672.80 409.68,680.00
             409.99,684.13 409.01,692.32 406.35,695.56
             398.98,704.55 383.87,704.57 378.00,693.91
             378.00,693.91 387.73,691.36 387.73,691.36
             390.41,697.60 401.11,695.53 398.18,684.91 Z
           M 337.22,667.64
           C 331.19,671.87 334.57,681.86 340.78,679.24
             344.96,677.48 346.16,666.56 337.22,667.64 Z
           M 391.01,667.66
           C 382.81,670.61 387.56,681.14 392.88,679.34
             397.19,677.89 398.21,668.69 391.01,667.66 Z" />
</svg>
