<?xml version="1.0" encoding="UTF-8" standalone="no"?>
<!DOCTYPE svg PUBLIC "-//W3C//DTD SVG 20010904//EN"
              "http://www.w3.org/TR/2001/REC-SVG-20010904/DTD/svg10.dtd">

<svg xmlns="http://www.w3.org/2000/svg"
     width="2.5in" height="2.5in"
     viewBox="0 0 750 750">
  <path id="Seleção #1"
        fill="none" stroke="black" stroke-width="1"
        d="M 607.00,98.00
           C 607.00,98.00 608.00,98.00 608.00,98.00
             608.00,98.00 607.00,99.00 607.00,99.00
             607.00,99.00 607.00,98.00 607.00,98.00 Z
           M 371.00,137.25
           C 371.00,137.25 370.12,166.81 370.12,166.81
             370.12,166.81 365.25,166.88 365.25,166.88
             365.25,166.88 366.88,127.00 366.88,127.00
             366.88,127.00 372.81,127.56 372.81,127.56
             372.81,127.56 382.75,157.38 382.75,157.38
             382.75,157.38 384.36,128.21 384.31,128.12
             384.31,128.12 387.12,128.75 389.00,129.00
             387.19,136.44 387.75,167.81 387.75,167.81
             387.75,167.81 381.25,167.56 381.25,167.56
             381.25,167.56 371.00,137.25 371.00,137.25 Z
           M 353.00,128.00
           C 353.00,128.00 358.19,127.88 358.19,127.88
             358.19,127.88 358.81,168.25 358.81,168.25
             358.81,168.25 354.88,168.06 354.88,168.06
             354.88,168.06 353.00,128.00 353.00,128.00 Z
           M 403.04,130.53
           C 405.21,130.26 405.68,130.02 408.00,130.53
             421.57,132.09 418.10,147.75 415.87,157.00
             414.77,161.55 413.83,167.28 408.96,169.26
             403.90,171.31 396.11,169.82 394.43,163.96
             392.58,157.53 395.15,139.62 398.99,134.11
             400.47,131.98 400.96,131.94 403.04,130.53 Z
           M 306.00,135.49
           C 309.32,135.19 311.11,135.14 313.87,137.43
             316.51,139.62 317.79,142.87 318.95,146.00
             322.28,155.04 328.17,172.30 314.00,174.67
             305.41,176.10 302.69,169.94 300.36,163.00
             298.46,157.36 294.77,144.47 298.74,139.34
             300.63,136.89 303.18,136.23 306.00,135.49 Z
           M 406.02,136.73
           C 399.14,138.89 399.48,145.91 398.84,152.00
             398.65,153.75 398.12,156.33 398.31,158.00
             398.77,161.99 401.90,164.57 405.96,163.67
             410.47,162.67 411.23,157.85 411.92,154.00
             413.15,147.06 415.78,137.41 406.02,136.73 Z
           M 429.31,134.88
           C 429.31,134.88 433.50,137.31 433.50,137.31
             433.50,137.31 420.72,166.93 430.04,169.75
             434.46,171.08 436.78,167.60 438.19,164.00
             439.79,159.91 446.19,140.00 446.19,140.00
             446.19,140.00 450.44,141.06 450.44,141.06
             450.44,141.06 444.42,160.00 444.42,160.00
             443.30,163.84 441.89,169.73 439.35,172.79
             433.66,179.66 423.45,176.10 421.18,169.96
             419.71,165.96 421.45,159.94 422.66,156.00
             422.66,156.00 429.31,134.88 429.31,134.88 Z
           M 308.99,141.73
           C 298.59,142.46 302.19,153.15 304.16,160.00
             305.19,163.61 306.75,167.92 311.01,168.58
             315.32,169.26 318.48,166.25 318.38,161.98
             318.30,158.88 315.09,146.50 313.28,144.23
             311.73,142.29 311.11,142.39 308.99,141.73 Z
           M 266.00,150.00
           C 266.00,150.00 279.06,143.54 283.44,145.06
             286.45,146.11 288.07,149.37 289.65,152.00
             292.91,157.43 298.93,171.67 296.26,177.82
             294.60,181.65 280.56,186.69 280.56,186.69
             280.56,186.69 266.00,150.00 266.00,150.00 Z
           M 460.00,187.81
           C 460.00,187.81 443.00,180.25 443.00,180.25
             443.00,180.25 458.31,144.50 458.31,144.50
             458.31,144.50 475.31,152.00 475.31,152.00
             475.31,152.00 473.00,157.00 473.00,157.00
             473.00,157.00 460.56,151.31 460.56,151.31
             460.56,151.31 456.56,161.25 456.56,161.25
             456.56,161.25 468.62,167.06 468.62,167.06
             468.62,167.06 466.19,171.38 466.19,171.38
             466.19,171.38 454.19,166.56 454.19,166.56
             454.19,166.56 449.81,176.88 449.81,176.88
             449.81,176.88 462.44,182.88 462.44,182.88
             462.44,182.88 460.00,187.81 460.00,187.81 Z
           M 282.00,179.00
           C 285.29,178.18 290.79,176.61 291.67,172.79
             292.67,168.45 286.88,154.06 282.90,152.06
             279.64,150.43 275.11,152.77 272.00,154.00
             272.00,154.00 282.00,179.00 282.00,179.00 Z
           M 230.00,170.00
           C 230.00,170.00 246.00,161.00 246.00,161.00
             246.97,163.50 248.30,165.96 248.30,165.96
             248.30,165.96 236.74,173.04 236.74,173.04
             236.74,173.04 242.26,181.43 242.26,181.43
             242.26,181.43 254.00,175.00 254.00,175.00
             254.00,175.00 256.22,180.65 256.22,180.65
             256.22,180.65 245.57,186.09 245.57,186.09
             245.57,186.09 251.91,196.09 251.91,196.09
             251.91,196.09 264.00,189.00 264.00,189.00
             264.00,189.00 266.30,194.70 266.30,194.70
             266.30,194.70 250.96,203.30 250.96,203.30
             250.96,203.30 232.47,176.70 230.00,170.00 Z
           M 478.00,197.31
           C 478.00,197.31 474.19,195.81 474.19,195.81
             474.19,195.81 495.06,162.00 495.06,162.00
             495.06,162.00 498.69,164.50 498.69,164.50
             498.69,164.50 491.77,175.69 490.00,178.00
             492.20,179.07 501.12,184.50 501.12,184.50
             501.12,184.50 507.32,174.75 509.00,172.00
             509.00,172.00 513.00,173.00 513.00,173.00
             513.00,173.00 492.56,206.31 492.56,206.31
             492.56,206.31 488.69,204.00 488.69,204.00
             488.69,204.00 494.49,195.57 497.00,189.00
             497.00,189.00 486.50,182.62 486.50,182.62
             485.37,185.58 478.00,197.31 478.00,197.31 Z
           M 263.00,182.00
           C 262.23,179.78 261.06,176.94 261.06,176.94
             261.06,176.94 269.25,173.44 269.25,173.44
             269.25,173.44 271.06,178.38 271.06,178.38
             271.06,178.38 263.00,182.00 263.00,182.00 Z
           M 470.62,173.75
           C 470.62,173.75 478.62,178.06 478.62,178.06
             478.62,178.06 476.25,182.31 476.25,182.31
             476.25,182.31 468.00,177.00 468.00,177.00
             468.00,177.00 470.62,173.75 470.62,173.75 Z
           M 223.52,174.91
           C 223.52,174.91 227.52,179.35 227.52,179.35
             227.52,179.35 221.39,184.57 221.39,184.57
             221.39,184.57 241.57,210.17 241.57,210.17
             241.57,210.17 237.87,213.09 237.87,213.09
             237.87,213.09 216.87,187.91 216.87,187.91
             216.87,187.91 211.48,192.70 211.48,192.70
             211.48,192.70 207.26,187.74 207.26,187.74
             207.26,187.74 223.52,174.91 223.52,174.91 Z
           M 497.94,211.69
           C 497.94,211.69 494.44,209.06 494.44,209.06
             494.44,209.06 513.29,194.69 520.00,189.85
             522.24,188.23 528.67,182.97 530.27,188.23
             531.06,190.83 527.62,196.60 526.36,199.00
             526.36,199.00 513.12,224.69 513.12,224.69
             513.12,224.69 509.69,221.00 509.69,221.00
             509.69,221.00 513.44,212.94 513.44,212.94
             513.44,212.94 506.00,205.94 506.00,205.94
             506.00,205.94 497.94,211.69 497.94,211.69 Z
           M 523.00,194.00
           C 523.00,194.00 511.00,203.00 511.00,203.00
             511.00,203.00 517.00,207.00 517.00,207.00
             517.00,207.00 523.00,194.00 523.00,194.00 Z
           M 195.75,199.12
           C 195.75,199.12 230.75,219.75 230.75,219.75
             230.75,219.75 227.12,222.12 227.12,222.12
             227.12,222.12 218.50,217.62 218.50,217.62
             218.50,217.62 211.75,224.88 211.75,224.88
             211.75,224.88 216.75,233.88 216.75,233.88
             216.75,233.88 213.12,237.00 213.12,237.00
             213.12,237.00 191.88,203.00 191.88,203.00
             191.88,203.00 195.75,199.12 195.75,199.12 Z
           M 200.38,206.88
           C 201.59,210.59 205.70,217.13 209.00,220.00
             209.00,220.00 213.00,214.00 213.00,214.00
             213.00,214.00 200.38,206.88 200.38,206.88 Z
           M 199.00,255.62
           C 199.00,255.62 167.38,231.12 167.38,231.12
             167.69,229.65 176.24,219.71 179.04,218.83
             185.61,216.77 192.58,224.33 194.00,230.00
             200.51,230.69 208.83,235.01 211.88,240.88
             210.57,241.09 208.00,242.62 208.00,242.62
             208.00,242.62 197.76,230.04 191.38,237.62
             191.38,237.62 188.88,241.88 188.88,241.88
             188.88,241.88 202.12,252.00 202.12,252.00
             202.12,252.00 199.00,255.62 199.00,255.62 Z
           M 181.33,224.59
           C 172.03,229.24 178.99,237.88 183.83,237.10
             189.20,236.24 192.82,224.39 181.33,224.59 Z
           M 562.00,224.74
           C 567.86,225.45 573.11,231.99 570.96,237.96
             570.31,239.75 565.44,244.12 565.44,244.12
             565.44,244.12 562.94,241.19 562.94,241.19
             562.94,241.19 567.84,235.20 564.75,232.19
             562.62,229.93 558.60,229.52 556.56,231.56
             553.16,235.31 558.02,240.40 558.51,245.00
             559.15,251.10 550.59,257.45 545.00,257.68
             538.74,257.94 532.95,249.86 535.05,244.00
             535.83,241.81 541.81,235.94 541.81,235.94
             541.81,235.94 544.12,240.50 544.12,240.50
             544.12,240.50 538.50,244.38 541.94,249.62
             544.37,252.48 548.16,252.38 550.66,249.60
             554.41,245.42 549.39,241.32 548.85,237.00
             547.96,230.02 556.36,225.82 562.00,224.74 Z
           M 258.09,234.00
           C 258.09,234.00 261.00,234.00 261.00,234.00
             261.00,234.00 260.91,265.96 260.91,265.96
             260.91,265.96 258.00,266.00 258.00,266.00
             258.00,266.00 258.09,234.00 258.09,234.00 Z
           M 267.00,266.00
           C 267.00,266.00 267.09,233.91 267.09,233.91
             267.09,233.91 271.73,234.09 271.73,234.09
             271.73,234.09 279.57,257.83 279.57,257.83
             279.57,257.83 280.00,234.00 280.00,234.00
             280.00,234.00 283.09,233.87 283.09,233.87
             283.09,233.87 283.00,266.00 283.00,266.00
             283.00,266.00 278.65,266.09 278.65,266.09
             278.65,266.09 270.13,243.22 270.13,243.22
             270.13,243.22 270.00,260.25 270.00,266.00
             270.00,266.00 267.00,266.00 267.00,266.00 Z
           M 292.00,239.00
           C 291.37,238.95 286.94,239.00 286.94,239.00
             286.94,239.00 287.00,234.38 287.00,234.38
             287.00,234.38 300.75,234.25 300.75,234.25
             300.75,234.25 300.94,239.00 300.94,239.00
             300.94,239.00 295.12,239.06 295.12,239.06
             295.12,239.06 295.00,266.00 295.00,266.00
             295.00,266.00 292.00,266.00 292.00,266.00
             292.00,266.00 292.00,239.00 292.00,239.00 Z
           M 304.00,265.91
           C 304.00,265.91 304.00,234.18 304.00,234.18
             304.00,234.18 317.09,234.17 317.09,234.17
             317.09,234.17 317.00,238.87 317.00,238.87
             317.00,238.87 308.22,239.04 308.22,239.04
             308.22,239.04 308.30,247.78 308.30,247.78
             308.30,247.78 317.00,248.00 317.00,248.00
             317.00,248.00 316.87,251.91 316.87,251.91
             316.87,251.91 308.00,251.91 308.00,251.91
             308.00,251.91 307.91,260.83 307.91,260.83
             307.91,260.83 316.83,261.04 316.83,261.04
             316.83,261.04 316.87,266.00 316.87,266.00
             316.87,266.00 304.00,265.91 304.00,265.91 Z
           M 324.61,265.83
           C 324.61,265.83 321.13,265.87 321.13,265.87
             321.13,265.87 321.09,234.13 321.09,234.13
             321.09,234.13 332.43,233.40 334.65,236.70
             337.26,241.70 335.32,247.28 333.91,250.09
             336.09,255.27 335.45,266.00 335.45,266.00
             335.45,266.00 332.48,266.04 332.48,266.04
             332.70,265.57 332.82,252.41 331.09,253.09
             331.09,253.09 324.09,253.22 324.09,253.22
             324.09,253.22 324.61,265.83 324.61,265.83 Z
           M 339.88,234.00
           C 339.88,234.00 344.26,234.04 344.26,234.04
             344.26,234.04 351.57,257.61 351.57,257.61
             351.57,257.61 352.00,234.00 352.00,234.00
             352.00,234.00 355.00,233.91 355.00,233.91
             355.00,233.91 355.00,265.87 355.00,265.87
             355.00,265.87 350.70,265.87 350.70,265.87
             350.70,265.87 343.26,243.00 343.26,243.00
             343.26,243.00 343.17,266.13 343.17,266.13
             343.17,266.13 339.88,266.00 339.88,266.00
             339.88,266.00 339.88,234.00 339.88,234.00 Z
           M 358.57,266.04
           C 358.57,266.04 366.30,234.13 366.30,234.13
             366.30,234.13 369.61,234.26 369.61,234.26
             369.61,234.26 377.22,266.04 377.22,266.04
             377.22,266.04 372.96,265.91 372.96,265.91
             372.96,265.91 371.35,258.30 371.35,258.30
             371.35,258.30 366.47,258.06 364.00,258.00
             364.00,258.00 362.65,266.04 362.65,266.04
             362.65,266.04 358.57,266.04 358.57,266.04 Z
           M 385.00,239.00
           C 384.09,238.92 379.12,238.88 379.12,238.88
             379.12,238.88 379.25,234.06 379.25,234.06
             379.25,234.06 394.31,234.69 394.31,234.69
             394.31,234.69 393.94,239.00 393.94,239.00
             393.94,239.00 388.38,239.06 388.38,239.06
             388.38,239.06 388.19,266.12 388.19,266.12
             388.19,266.12 385.00,266.00 385.00,266.00
             385.00,266.00 385.00,239.00 385.00,239.00 Z
           M 398.00,234.50
           C 398.24,234.83 400.94,234.56 400.94,234.56
             400.94,234.56 401.19,265.69 401.19,265.69
             401.19,265.69 398.06,265.62 398.06,265.62
             398.06,265.62 398.00,234.50 398.00,234.50 Z
           M 411.11,234.74
           C 424.47,231.50 422.11,246.46 422.00,255.00
             421.94,258.89 421.74,262.83 417.89,264.98
             413.15,267.61 408.45,264.86 406.94,259.98
             405.46,255.21 405.35,241.43 408.14,237.23
             409.27,235.52 409.58,235.70 411.11,234.74 Z
           M 427.00,266.00
           C 427.00,266.00 427.06,234.56 427.06,234.56
             427.06,234.56 431.62,234.56 431.62,234.56
             431.62,234.56 438.69,255.06 438.69,255.06
             438.69,255.06 439.31,234.38 439.31,234.38
             439.31,234.38 442.94,234.31 442.94,234.31
             442.94,234.31 443.00,265.75 443.00,265.75
             443.00,265.75 438.31,265.69 438.31,265.69
             438.31,265.69 430.31,242.00 430.31,242.00
             430.31,242.00 430.06,266.06 430.06,266.06
             430.06,266.06 427.00,266.00 427.00,266.00 Z
           M 453.38,234.12
           C 453.38,234.12 457.06,234.12 457.06,234.12
             457.06,234.12 464.00,266.06 464.00,266.06
             464.00,266.06 460.31,266.00 460.31,266.00
             460.31,266.00 459.00,258.00 459.00,258.00
             456.24,258.10 452.00,258.06 452.00,258.06
             452.00,258.06 450.44,266.12 450.44,266.12
             450.44,266.12 446.56,266.19 446.56,266.19
             446.56,266.19 453.38,234.12 453.38,234.12 Z
           M 468.06,233.94
           C 468.06,233.94 471.19,233.75 471.19,233.75
             471.19,233.75 471.31,261.06 471.31,261.06
             471.31,261.06 480.50,261.06 480.50,261.06
             480.50,261.06 480.38,266.25 480.38,266.25
             480.38,266.25 468.00,266.12 468.00,266.12
             468.00,266.12 468.06,233.94 468.06,233.94 Z
           M 332.00,248.00
           C 333.01,240.16 331.58,239.10 324.00,239.00
             324.01,248.40 323.91,248.97 332.00,248.00 Z
           M 413.13,239.66
           C 412.65,239.98 411.96,239.92 411.02,241.31
             409.68,243.32 409.73,253.39 410.15,255.98
             410.62,258.92 412.55,261.47 415.86,260.34
             419.28,259.18 418.98,254.90 419.00,252.00
             419.03,246.87 420.35,239.12 413.13,239.66 Z
           M 368.00,242.00
           C 368.00,242.00 365.00,253.00 365.00,253.00
             365.00,253.00 370.00,253.00 370.00,253.00
             370.00,253.00 368.00,242.00 368.00,242.00 Z
           M 455.44,243.31
           C 455.44,243.31 453.00,253.00 453.00,253.00
             453.00,253.00 458.00,253.00 458.00,253.00
             458.00,253.00 455.44,243.31 455.44,243.31 Z
           M 196.00,257.00
           C 196.00,257.00 194.00,262.12 194.00,262.12
             194.00,262.12 185.00,260.25 185.00,260.25
             185.00,260.25 180.00,268.25 180.00,268.25
             180.00,268.25 186.38,274.62 186.38,274.62
             186.38,274.62 183.38,277.62 183.38,277.62
             183.38,277.62 160.06,256.00 160.06,256.00
             158.44,254.22 154.94,250.32 157.76,248.01
             159.96,246.20 165.54,248.57 168.00,249.26
             168.00,249.26 196.00,257.00 196.00,257.00 Z
           M 546.88,268.62
           C 546.88,268.62 545.81,264.38 545.81,264.38
             545.81,264.38 580.88,246.88 580.88,246.88
             580.88,246.88 581.31,250.56 581.31,250.56
             581.31,250.56 568.62,257.19 568.62,257.19
             568.62,257.19 574.50,268.56 574.50,268.56
             574.50,268.56 588.69,261.75 588.69,261.75
             588.69,261.75 589.81,266.00 589.81,266.00
             589.81,266.00 555.69,283.94 555.69,283.94
             555.69,283.94 554.94,279.62 554.94,279.62
             554.94,279.62 564.83,273.86 569.00,272.00
             569.00,272.00 563.62,260.56 563.62,260.56
             563.62,260.56 546.88,268.62 546.88,268.62 Z
           M 166.00,253.00
           C 167.20,257.54 172.28,261.34 176.00,264.00
             176.00,264.00 179.00,257.00 179.00,257.00
             179.00,257.00 166.00,253.00 166.00,253.00 Z
           M 148.12,266.50
           C 148.12,266.50 160.75,284.00 160.75,284.00
             160.75,284.00 178.24,281.22 183.00,281.00
             183.00,281.00 182.62,285.50 182.62,285.50
             182.62,285.50 161.25,289.12 161.25,289.12
             164.48,290.00 176.00,296.38 176.00,296.38
             176.00,296.38 174.75,300.00 174.75,300.00
             174.75,300.00 147.60,288.70 139.00,285.00
             139.68,283.86 141.38,281.00 141.38,281.00
             141.38,281.00 153.05,285.82 156.00,287.00
             156.00,287.00 146.11,271.00 146.11,271.00
             146.11,271.00 148.12,266.50 148.12,266.50 Z
           M 595.19,273.62
           C 595.19,273.62 596.00,278.00 596.00,278.00
             596.00,278.00 560.25,293.50 560.25,293.50
             560.25,293.50 558.69,289.00 558.69,289.00
             558.69,289.00 595.19,273.62 595.19,273.62 Z
           M 596.06,294.12
           C 595.79,292.57 594.31,287.06 594.31,287.06
             594.31,287.06 599.94,285.19 599.94,285.19
             599.94,285.19 606.38,304.31 606.38,304.31
             606.38,304.31 600.38,305.88 600.38,305.88
             600.38,305.88 598.31,298.62 598.31,298.62
             598.31,298.62 566.00,309.00 566.00,309.00
             566.00,309.00 565.00,305.00 565.00,305.00
             565.00,305.00 596.06,294.12 596.06,294.12 Z
           M 157.25,299.00
           C 157.25,299.00 161.91,300.04 162.25,300.62
             162.25,300.62 160.00,308.00 160.00,308.00
             160.00,308.00 154.38,307.00 154.38,307.00
             154.38,307.00 157.25,299.00 157.25,299.00 Z
           M 130.12,310.62
           C 130.12,310.62 132.25,306.12 132.25,306.12
             132.25,306.12 170.00,316.00 170.00,316.00
             168.02,323.37 168.75,321.75 168.75,321.75
             168.75,321.75 136.38,325.50 136.38,325.50
             136.38,325.50 166.00,333.00 166.00,333.00
             166.00,333.00 165.75,335.88 165.75,335.88
             165.75,335.88 133.12,330.45 126.00,327.00
             126.85,325.03 129.38,321.38 129.38,321.38
             129.38,321.38 160.50,318.50 160.50,318.50
             160.50,318.50 130.12,310.62 130.12,310.62 Z
           M 593.00,314.44
           C 596.40,314.00 602.92,313.41 605.96,315.02
             611.31,317.87 613.64,326.03 609.57,330.79
             605.56,335.48 594.99,337.63 589.00,338.56
             585.63,339.09 579.10,339.51 576.11,337.83
             571.07,335.00 569.62,325.70 573.51,321.39
             577.04,317.48 587.81,315.40 593.00,314.44 Z
           M 598.00,318.47
           C 594.08,318.80 581.99,321.03 579.35,323.56
             576.33,326.46 577.24,334.43 585.00,334.39
             588.36,334.37 600.17,331.84 602.69,329.91
             605.89,327.47 606.75,319.49 598.00,318.47 Z
           M 161.88,359.62
           C 161.88,359.62 161.70,362.26 162.00,364.00
             156.26,363.41 122.62,353.00 122.75,348.00
             126.12,343.38 164.00,340.00 164.00,340.00
             163.67,341.90 163.25,344.62 163.25,344.62
             163.25,344.62 154.00,346.00 154.00,346.00
             154.00,346.00 152.88,357.38 152.88,357.38
             156.62,357.97 161.88,359.62 161.88,359.62 Z
           M 587.36,352.36
           C 587.36,352.36 587.01,346.65 587.00,343.00
             589.85,343.24 592.82,343.09 592.82,343.09
             592.82,343.09 592.99,348.52 593.00,352.00
             590.34,351.78 587.36,352.36 587.36,352.36 Z
           M 148.00,347.00
           C 148.00,347.00 133.00,350.00 133.00,350.00
             133.00,350.00 147.00,354.00 147.00,354.00
             147.00,354.00 148.00,347.00 148.00,347.00 Z
           M 576.09,361.64
           C 576.09,361.64 576.38,359.07 576.00,356.81
             576.00,356.81 612.32,354.98 615.45,356.73
             615.45,356.73 618.11,372.21 611.94,375.51
             601.91,379.91 598.59,374.35 595.73,374.27
             595.78,374.27 593.52,377.07 576.73,377.55
             576.95,376.31 577.09,373.45 577.09,373.45
             581.73,373.45 597.37,375.13 592.55,361.82
             592.55,361.82 576.09,361.64 576.09,361.64 Z
           M 610.00,361.00
           C 610.00,361.00 599.00,361.00 599.00,361.00
             599.00,363.28 598.64,368.66 600.02,370.40
             601.91,372.79 608.02,372.37 609.43,369.57
             610.21,368.01 610.00,362.94 610.00,361.00 Z
           M 122.00,388.00
           C 122.00,384.07 121.40,374.21 123.17,371.13
             126.22,365.84 140.60,365.50 144.69,369.43
             148.54,373.15 146.75,383.38 146.75,383.38
             146.75,383.38 161.50,383.50 161.50,383.50
             161.50,383.50 161.38,387.62 161.38,387.62
             161.38,387.62 122.00,388.00 122.00,388.00 Z
           M 133.02,371.36
           C 125.42,373.70 127.96,381.68 129.60,382.98
             131.16,384.21 136.90,384.27 138.77,383.71
             142.48,382.58 141.76,375.96 139.98,373.43
             138.25,370.98 135.63,371.19 133.02,371.36 Z
           M 576.00,390.00
           C 576.00,390.00 594.09,390.82 594.09,390.82
             594.09,390.82 616.00,384.00 616.00,384.00
             615.75,385.42 615.45,388.55 615.45,388.55
             615.45,388.55 604.08,391.45 598.73,393.73
             602.18,395.36 615.27,401.73 615.27,401.73
             615.27,401.73 614.29,405.62 614.14,407.00
             614.14,407.00 592.18,395.64 592.18,395.64
             592.18,395.64 576.00,394.00 576.00,394.00
             576.00,394.00 576.00,390.00 576.00,390.00 Z
           M 155.12,410.00
           C 155.12,410.00 164.50,410.62 164.50,410.62
             164.50,410.62 165.00,415.00 165.00,415.00
             165.00,415.00 124.75,410.50 124.75,410.50
             124.75,410.50 124.88,405.38 124.88,405.38
             124.88,405.38 161.75,390.88 161.75,390.88
             161.75,390.88 162.00,396.62 162.00,396.62
             162.00,396.62 154.12,399.00 154.12,399.00
             154.12,399.00 155.12,410.00 155.12,410.00 Z
           M 148.00,402.00
           C 143.15,402.88 137.00,405.11 133.00,408.00
             133.00,408.00 149.00,409.00 149.00,409.00
             149.00,409.00 148.00,402.00 148.00,402.00 Z
           M 608.00,436.00
           C 608.00,436.00 590.00,432.12 590.00,432.12
             590.00,432.12 578.18,429.27 578.18,429.27
             570.59,426.35 568.18,415.38 575.45,409.91
             581.30,405.52 613.36,415.18 613.36,415.18
             613.36,415.18 612.36,418.64 612.36,418.64
             612.36,418.64 589.00,414.01 589.00,414.01
             586.87,413.80 584.22,413.12 582.10,414.01
             578.04,415.18 576.25,420.35 579.51,423.52
             583.04,426.96 609.09,431.55 609.09,431.55
             609.09,431.55 608.00,436.00 608.00,436.00 Z
           M 128.00,429.00
           C 132.81,426.66 148.61,422.56 154.25,421.38
             157.03,420.79 161.27,420.11 163.90,421.09
             168.88,422.96 170.43,430.75 167.40,434.79
             164.87,438.17 156.00,440.25 156.00,440.25
             156.00,440.25 155.00,436.00 155.00,436.00
             155.00,436.00 163.50,434.54 163.50,430.25
             163.50,426.10 158.08,425.31 155.00,425.92
             146.84,427.52 128.50,432.50 128.50,432.50
             128.50,432.50 128.00,429.00 128.00,429.00 Z
           M 298.50,487.25
           C 298.87,487.72 300.50,487.38 300.50,487.38
             300.50,487.38 300.75,492.88 300.75,492.88
             300.75,492.88 303.69,492.62 306.00,493.00
             306.00,493.00 306.00,487.00 306.00,487.00
             306.00,487.00 308.19,486.94 308.19,486.94
             308.19,486.94 308.31,493.00 308.31,493.00
             308.31,493.00 312.81,493.00 312.81,493.00
             312.81,493.00 312.81,495.19 312.81,495.19
             312.81,495.19 308.44,495.19 308.44,495.19
             308.23,497.60 308.31,500.50 308.31,500.50
             308.31,500.50 312.44,501.05 315.00,502.00
             315.00,502.00 314.62,504.88 314.62,504.88
             314.76,504.42 308.39,502.69 308.00,504.00
             308.32,506.65 308.50,512.25 308.50,512.25
             308.50,512.25 307.10,511.24 306.00,512.00
             306.00,512.00 306.00,503.00 306.00,503.00
             302.98,503.25 299.75,503.88 299.75,503.88
             299.95,503.84 296.90,511.39 295.62,511.62
             295.62,511.62 293.14,511.74 292.00,512.00
             292.26,512.60 297.54,505.23 297.00,504.00
             296.06,504.14 292.25,505.00 292.25,505.00
             292.25,505.00 291.27,503.43 290.62,503.00
             294.00,501.62 298.17,500.28 298.00,500.38
             298.00,500.38 298.00,496.00 298.00,496.00
             298.00,496.00 293.00,496.00 293.00,496.00
             293.00,496.00 293.00,493.00 293.00,493.00
             293.00,493.00 298.25,493.12 298.25,493.12
             298.25,493.12 298.50,487.25 298.50,487.25 Z
           M 381.18,498.00
           C 381.18,498.00 377.82,493.36 377.82,493.36
             377.82,493.36 387.55,486.64 387.55,486.64
             387.55,486.64 388.00,489.91 388.00,489.91
             388.00,489.91 382.18,493.27 382.18,493.27
             382.18,493.27 382.73,496.45 382.73,496.45
             382.73,496.45 392.36,490.82 392.36,490.82
             392.36,490.82 393.45,493.09 393.45,493.09
             393.45,493.09 381.82,501.82 381.82,501.82
             381.82,501.82 391.00,502.00 391.00,502.00
             391.00,502.00 390.91,499.09 390.91,499.09
             390.91,499.09 392.55,499.00 392.55,499.00
             392.55,499.00 394.55,504.00 394.55,504.00
             394.55,504.00 387.27,504.45 387.27,504.45
             387.27,504.45 387.14,508.15 387.00,512.00
             387.00,512.00 385.09,511.91 385.09,511.91
             385.09,511.91 384.55,504.18 384.55,504.18
             384.55,504.18 379.62,504.37 376.09,504.45
             376.09,504.45 381.18,498.00 381.18,498.00 Z
           M 412.09,489.64
           C 412.09,489.64 412.36,487.18 412.36,487.18
             412.36,487.18 414.55,487.27 414.55,487.27
             414.55,487.27 414.64,489.64 414.64,489.64
             414.64,489.64 420.85,489.99 424.00,490.00
             424.00,490.00 424.00,492.00 424.00,492.00
             424.00,492.00 415.00,492.00 415.00,492.00
             415.00,492.00 415.18,494.36 415.18,494.36
             415.18,494.36 421.75,494.44 421.75,494.44
             421.75,494.44 421.00,504.00 421.00,504.00
             421.00,504.00 416.00,504.00 416.00,504.00
             414.98,506.93 424.93,509.34 425.00,509.35
             425.00,509.35 424.30,512.52 424.30,512.52
             424.30,512.52 414.39,506.87 414.39,506.87
             414.39,506.87 414.30,511.96 414.30,511.96
             414.30,511.96 412.00,512.00 412.00,512.00
             412.00,512.00 412.00,507.00 412.00,507.00
             412.00,507.00 402.00,512.00 402.00,512.00
             402.00,512.00 401.00,509.00 401.00,509.00
             405.90,508.10 409.92,507.47 410.00,504.00
             410.00,504.00 405.00,504.00 405.00,504.00
             405.00,504.00 404.25,494.81 404.25,494.81
             404.25,494.81 411.82,494.64 411.82,494.64
             411.82,494.64 412.00,492.00 412.00,492.00
             412.00,492.00 402.36,491.82 402.36,491.82
             402.36,491.82 402.09,489.91 402.09,489.91
             402.09,489.91 412.09,489.64 412.09,489.64 Z
           M 329.73,488.09
           C 329.73,488.09 332.00,488.00 332.00,488.00
             332.00,488.00 332.00,495.00 332.00,495.00
             332.00,495.00 339.45,495.09 339.45,495.09
             339.45,495.09 339.55,497.91 339.55,497.91
             339.55,497.91 334.80,497.96 332.00,498.00
             332.00,498.00 332.00,506.00 332.00,506.00
             332.00,506.00 343.18,507.64 343.18,507.64
             343.18,507.64 343.00,511.00 343.00,511.00
             335.27,508.85 326.03,507.88 319.18,510.73
             319.18,510.73 319.00,507.91 319.00,507.91
             321.88,506.71 325.63,506.40 329.45,505.64
             329.45,505.64 329.73,488.09 329.73,488.09 Z
           M 348.36,488.73
           C 348.36,488.73 352.27,493.64 352.27,493.64
             349.45,493.16 349.95,494.05 346.55,490.45
             346.55,490.45 348.36,488.73 348.36,488.73 Z
           M 355.00,490.00
           C 355.00,490.00 368.64,489.36 368.64,489.36
             368.13,490.12 369.09,491.55 369.09,491.55
             369.09,491.55 360.32,491.90 356.82,492.36
             356.18,501.18 356.53,502.28 354.00,510.00
             354.00,510.00 352.09,509.55 352.09,509.55
             352.09,509.55 351.64,506.36 351.64,506.36
             355.27,502.55 355.00,495.50 355.00,490.00 Z
           M 430.81,488.69
           C 430.81,488.69 434.88,492.00 434.88,492.00
             434.88,492.00 435.00,494.00 435.00,494.00
             435.00,494.00 429.94,492.19 429.94,492.19
             429.94,492.19 430.81,488.69 430.81,488.69 Z
           M 443.00,492.06
           C 443.00,492.06 443.00,489.00 443.00,489.00
             443.00,489.00 446.00,489.00 446.00,489.00
             446.00,489.00 446.12,492.06 446.12,492.06
             446.12,492.06 453.00,492.12 453.00,492.12
             453.00,492.12 453.19,493.88 453.19,493.88
             453.19,493.88 449.81,494.25 449.81,494.25
             449.81,494.25 451.75,499.94 451.75,499.94
             451.75,499.94 438.56,500.12 438.56,500.12
             438.56,500.12 440.31,494.88 440.31,494.88
             440.31,494.88 437.25,494.88 437.25,494.88
             437.25,494.88 437.12,491.94 437.12,491.94
             437.12,491.94 443.00,492.06 443.00,492.06 Z
           M 358.73,496.36
           C 358.73,496.36 369.55,494.09 369.55,494.09
             369.55,494.09 369.45,496.45 369.45,496.45
             369.45,496.45 364.13,497.84 361.00,498.00
             361.00,498.00 361.00,511.00 361.00,511.00
             361.00,511.00 359.00,511.00 359.00,511.00
             359.00,511.00 358.73,496.36 358.73,496.36 Z
           M 448.00,498.00
           C 447.66,497.19 447.75,495.06 447.75,495.06
             447.75,495.06 442.94,494.88 442.94,494.88
             442.94,494.88 441.88,497.88 441.88,497.88
             441.88,497.88 448.00,498.00 448.00,498.00 Z
           M 305.88,495.75
           C 305.88,495.75 301.00,496.00 301.00,496.00
             301.00,496.00 301.00,500.00 301.00,500.00
             301.00,500.00 305.88,499.88 305.88,499.88
             305.88,499.88 305.88,495.75 305.88,495.75 Z
           M 412.00,498.96
           C 412.00,498.96 412.00,496.00 412.00,496.00
             412.00,496.00 407.04,495.96 407.04,495.96
             407.04,495.96 407.04,499.00 407.04,499.00
             407.04,499.00 412.00,498.96 412.00,498.96 Z
           M 419.00,496.00
           C 419.00,496.00 415.00,496.00 415.00,496.00
             415.00,496.00 414.88,498.38 414.88,498.38
             414.88,498.38 418.94,498.31 418.94,498.31
             418.94,498.31 419.00,496.00 419.00,496.00 Z
           M 346.00,499.00
           C 346.00,499.00 350.91,499.00 350.91,499.00
             350.91,499.00 350.91,500.45 350.91,500.45
             350.91,500.45 346.00,501.18 346.00,501.18
             346.00,501.18 346.00,499.00 346.00,499.00 Z
           M 433.62,498.75
           C 433.62,498.75 433.62,500.62 433.62,500.62
             433.62,500.62 429.62,502.00 429.62,502.00
             429.62,502.00 428.81,498.62 428.81,498.62
             428.81,498.62 433.62,498.75 433.62,498.75 Z
           M 363.00,501.00
           C 363.00,501.00 369.00,499.00 369.00,499.00
             369.00,499.00 369.00,501.00 369.00,501.00
             369.00,501.00 365.73,502.36 365.73,502.36
             367.00,505.28 370.27,509.18 370.27,509.18
             370.27,509.18 368.80,510.71 368.00,512.00
             368.00,512.00 363.00,501.00 363.00,501.00 Z
           M 414.91,502.00
           C 414.91,502.00 418.91,501.87 418.91,501.87
             418.91,501.87 418.87,499.96 418.87,499.96
             418.87,499.96 415.00,500.00 415.00,500.00
             415.00,500.00 414.91,502.00 414.91,502.00 Z
           M 450.88,511.94
           C 450.88,511.94 448.69,503.44 448.69,503.44
             448.69,503.44 450.50,503.25 450.50,503.25
             450.50,503.25 452.89,509.19 453.19,512.06
             453.19,512.06 450.88,511.94 450.88,511.94 Z
           M 439.00,503.00
           C 439.00,503.00 441.00,503.00 441.00,503.00
             440.40,506.18 437.81,512.06 437.81,512.06
             437.81,512.06 436.34,511.53 435.00,512.00
             435.51,512.08 440.03,503.17 439.00,503.00 Z
           M 444.00,503.00
           C 444.00,503.00 445.44,503.00 445.44,503.00
             445.44,503.00 445.38,512.06 445.38,512.06
             445.38,512.06 444.00,512.00 444.00,512.00
             444.00,512.00 444.00,503.00 444.00,503.00 Z
           M 432.00,505.00
           C 432.00,505.00 434.00,505.00 434.00,505.00
             434.00,505.00 432.56,511.75 432.56,511.75
             432.56,511.75 431.00,512.00 431.00,512.00
             431.00,512.00 432.00,505.00 432.00,505.00 Z
           M 378.55,507.27
           C 378.55,507.27 380.00,507.00 380.00,507.00
             377.86,512.02 377.77,512.51 374.00,512.00
             374.00,512.00 378.55,507.27 378.55,507.27 Z
           M 391.45,507.73
           C 391.75,507.80 392.64,507.00 392.64,507.00
             392.64,507.00 396.81,509.29 397.45,511.18
             394.45,512.45 394.45,513.09 391.45,507.73 Z
           M 325.76,523.00
           C 325.76,523.00 331.83,523.04 335.91,522.87
             336.30,521.91 336.13,520.65 337.48,519.96
             338.61,521.35 340.73,520.75 341.35,521.00
             341.38,521.35 341.56,522.58 341.87,522.83
             343.70,523.61 350.39,523.03 353.00,523.00
             353.00,523.00 353.00,525.00 353.00,525.00
             353.00,525.00 344.00,525.00 344.00,525.00
             344.00,525.00 344.00,527.17 344.00,527.17
             347.03,527.21 352.00,527.43 352.00,527.43
             352.00,527.43 351.78,532.04 351.78,532.04
             351.78,532.04 337.00,532.04 337.00,532.04
             337.00,532.04 328.17,532.09 328.17,532.09
             328.17,532.09 328.00,535.00 328.00,535.00
             328.00,535.00 354.00,535.00 354.00,535.00
             353.22,543.87 345.35,540.83 345.00,549.00
             345.00,549.00 354.00,550.00 354.00,550.00
             350.44,556.07 354.26,553.26 342.39,550.22
             342.39,550.22 332.57,554.00 332.57,554.00
             332.30,550.43 334.53,550.77 338.00,550.00
             338.00,550.00 338.13,547.83 338.13,547.83
             338.13,547.83 326.00,548.00 326.00,548.00
             324.87,550.35 326.57,551.39 322.00,551.00
             322.52,543.96 325.48,545.74 325.76,539.00
             325.76,539.00 325.76,523.00 325.76,523.00 Z
           M 393.38,535.19
           C 394.31,527.62 395.89,531.97 403.19,527.00
             405.36,525.52 406.46,522.05 409.31,522.50
             410.95,522.76 418.91,528.26 425.00,530.00
             425.00,530.00 423.31,535.69 423.31,535.69
             423.31,535.69 418.12,533.12 418.12,533.12
             418.00,536.00 418.06,534.81 409.94,535.06
             405.00,534.69 403.69,534.81 402.50,535.75
             397.99,535.55 402.88,532.62 393.38,535.19 Z
           M 334.87,524.87
           C 334.87,524.87 328.00,525.00 328.00,525.00
             328.00,525.00 328.13,531.09 328.13,531.09
             328.13,531.09 335.00,531.00 335.00,531.00
             335.00,531.00 335.00,529.00 335.00,529.00
             335.00,529.00 330.00,529.00 330.00,529.00
             330.00,529.00 330.00,527.00 330.00,527.00
             330.00,527.00 334.87,527.04 334.87,527.04
             334.87,527.04 334.87,524.87 334.87,524.87 Z
           M 341.83,526.87
           C 341.83,526.87 342.09,525.00 342.09,525.00
             342.09,525.00 337.09,525.04 337.09,525.04
             337.09,525.04 336.91,526.87 336.91,526.87
             336.91,526.87 341.83,526.87 341.83,526.87 Z
           M 377.00,524.00
           C 377.00,524.00 379.00,524.00 379.00,524.00
             379.00,524.00 380.00,525.00 380.00,525.00
             378.68,528.74 378.51,529.13 375.00,531.00
             375.00,531.00 377.00,524.00 377.00,524.00 Z
           M 415.75,531.94
           C 415.75,531.94 409.19,526.94 409.19,526.94
             409.19,526.94 403.75,532.00 403.75,532.00
             403.75,532.00 415.75,531.94 415.75,531.94 Z
           M 341.43,528.13
           C 341.43,528.13 337.00,528.09 337.00,528.09
             337.00,528.09 337.04,530.83 337.04,530.83
             337.04,530.83 341.43,530.83 341.43,530.83
             341.43,530.83 341.43,528.13 341.43,528.13 Z
           M 349.00,531.00
           C 349.00,531.00 348.87,528.57 348.87,528.57
             348.87,528.57 344.09,528.35 344.09,528.35
             344.09,528.35 344.37,530.46 344.00,531.00
             344.00,531.00 349.00,531.00 349.00,531.00 Z
           M 364.31,530.75
           C 364.31,530.75 366.00,531.00 366.00,531.00
             365.06,535.75 363.94,541.05 360.19,543.06
             360.19,543.06 358.75,543.31 357.31,542.75
             358.62,541.00 362.88,535.62 364.31,530.75 Z
           M 384.00,531.00
           C 384.00,531.00 386.00,531.00 386.00,531.00
             386.62,535.26 386.17,536.58 382.00,538.00
             382.00,538.00 384.00,531.00 384.00,531.00 Z
           M 339.83,538.09
           C 339.83,538.09 340.13,536.17 340.13,536.17
             340.13,536.17 328.22,536.65 328.22,536.65
             328.22,536.65 327.17,547.96 327.17,547.96
             332.45,545.82 333.65,544.62 337.00,540.00
             332.32,540.37 331.98,542.72 331.00,543.70
             331.00,543.70 329.54,544.30 328.74,543.96
             329.74,538.96 335.26,538.43 339.83,538.09 Z
           M 367.81,544.56
           C 367.41,545.16 366.04,544.53 365.75,544.75
             365.93,541.54 366.98,534.32 372.04,536.17
             374.11,536.92 378.35,541.74 380.44,543.31
             384.09,546.07 385.87,545.59 390.00,547.00
             385.65,558.68 375.89,541.08 370.69,539.56
             368.77,541.12 367.81,544.56 367.81,544.56 Z
           M 349.83,539.83
           C 350.33,539.54 350.78,536.87 350.78,536.87
             350.78,536.87 348.23,536.42 346.78,537.00
             345.83,537.38 346.04,539.96 346.04,539.96
             347.84,540.10 349.12,540.23 349.83,539.83 Z
           M 395.31,544.00
           C 395.38,542.56 395.40,541.27 396.62,540.25
             401.12,539.50 418.06,539.69 423.38,540.06
             423.31,540.94 423.00,542.69 423.00,542.69
             423.00,542.69 419.62,542.82 417.44,543.00
             417.44,543.00 419.00,552.00 419.00,552.00
             407.60,549.96 408.14,551.53 398.00,552.00
             398.00,552.00 402.19,543.00 402.19,543.00
             402.19,543.00 395.31,544.00 395.31,544.00 Z
           M 415.00,548.00
           C 414.37,546.29 414.42,544.46 413.44,543.56
             411.88,543.00 409.12,542.94 407.56,543.12
             406.13,543.83 405.31,546.19 403.88,547.88
             403.88,547.88 415.00,548.00 415.00,548.00 Z
           M 342.87,544.96
           C 342.85,544.55 340.40,543.80 338.52,544.09
             337.11,544.30 336.12,545.42 336.17,545.96
             337.91,545.78 341.96,548.70 342.87,544.96 Z
           M 493.00,544.00
           C 493.00,544.00 515.12,573.75 515.12,573.75
             515.12,573.75 511.25,577.38 511.25,577.38
             511.25,577.38 487.75,547.50 487.75,547.50
             487.75,547.50 493.00,544.00 493.00,544.00 Z
           M 233.44,581.25
           C 233.44,581.25 229.38,577.50 229.38,577.50
             229.38,577.50 249.50,545.56 249.50,545.56
             249.50,545.56 254.44,547.38 254.44,547.38
             254.44,547.38 245.50,562.94 245.50,562.94
             249.51,561.07 267.56,555.69 267.56,555.69
             267.56,555.69 271.62,559.44 271.62,559.44
             271.62,559.44 249.25,567.69 249.25,567.69
             249.25,567.69 252.31,591.69 252.31,591.69
             252.31,591.69 246.25,589.81 246.25,589.81
             246.25,589.81 243.75,566.06 243.75,566.06
             243.75,566.06 233.44,581.25 233.44,581.25 Z
           M 468.25,558.88
           C 468.25,558.88 474.50,555.88 474.50,555.88
             474.50,555.88 503.88,583.62 503.88,583.62
             503.88,583.62 498.75,586.25 498.75,586.25
             498.75,586.25 494.76,582.80 493.00,580.00
             493.00,580.00 480.00,586.00 480.00,586.00
             480.00,586.00 482.25,597.25 482.25,597.25
             482.25,597.25 477.00,599.00 477.00,599.00
             477.00,599.00 468.25,558.88 468.25,558.88 Z
           M 281.50,606.00
           C 275.85,604.48 260.00,596.62 260.00,596.62
             260.00,596.62 276.00,561.00 276.00,561.00
             276.00,561.00 296.62,570.00 296.62,570.00
             296.62,570.00 293.38,575.38 293.38,575.38
             293.38,575.38 278.00,568.00 278.00,568.00
             278.00,568.00 274.00,578.00 274.00,578.00
             274.00,578.00 289.00,584.00 289.00,584.00
             288.68,585.40 287.25,589.62 287.25,589.62
             287.25,589.62 274.03,584.29 271.00,583.00
             271.00,583.00 266.88,593.25 266.88,593.25
             266.88,593.25 284.00,601.00 284.00,601.00
             284.00,601.00 281.50,606.00 281.50,606.00 Z
           M 476.00,565.00
           C 476.00,565.00 478.00,580.00 478.00,580.00
             478.00,580.00 487.00,576.00 487.00,576.00
             487.00,576.00 476.00,565.00 476.00,565.00 Z
           M 443.12,589.00
           C 443.12,589.00 450.00,567.50 450.00,567.50
             450.00,567.50 456.12,566.62 456.12,566.62
             456.12,566.62 449.38,588.25 449.38,588.25
             449.38,588.25 470.50,602.12 470.50,602.12
             470.50,602.12 463.12,603.88 463.12,603.88
             463.12,603.88 444.00,592.00 444.00,592.00
             444.00,592.00 447.05,600.00 447.05,600.00
             447.94,602.38 450.12,608.38 450.12,608.38
             450.12,608.38 445.00,610.88 445.00,610.88
             445.00,610.88 432.12,574.75 432.12,574.75
             432.12,574.75 436.75,572.62 436.75,572.62
             436.75,572.62 443.12,589.00 443.12,589.00 Z
           M 301.88,571.38
           C 301.88,571.38 306.69,572.12 306.69,572.12
             306.69,572.12 294.50,610.56 294.50,610.56
             294.50,610.56 289.44,608.44 289.44,608.44
             289.44,608.44 301.88,571.38 301.88,571.38 Z
           M 306.62,600.00
           C 308.60,600.81 310.75,601.38 310.75,601.38
             310.75,601.38 310.14,606.03 313.25,608.50
             319.82,613.72 328.36,608.11 325.92,603.22
             323.19,597.76 308.67,599.58 309.39,588.00
             309.48,586.51 310.04,584.39 310.61,583.02
             311.44,581.02 312.56,579.29 314.33,578.01
             318.94,574.66 327.89,576.51 331.77,580.28
             334.11,582.54 334.38,592.12 334.38,592.12
             334.38,592.12 329.25,591.00 329.25,591.00
             331.38,584.50 319.25,577.62 315.50,585.62
             313.55,591.28 322.50,593.19 326.00,594.91
             332.57,598.17 333.74,604.47 330.99,610.98
             330.13,613.03 328.87,614.73 326.90,615.83
             321.83,618.64 310.27,616.48 307.09,610.90
             305.34,607.59 306.62,600.00 306.62,600.00 Z
           M 409.00,579.00
           C 409.00,579.00 414.38,578.62 414.38,578.62
             414.38,578.62 419.00,617.94 419.00,617.94
             419.00,617.94 412.25,618.75 412.25,618.75
             412.25,618.75 394.00,591.00 394.00,591.00
             394.00,591.00 397.50,620.75 397.50,620.75
             397.50,620.75 392.50,620.38 392.50,620.38
             392.50,620.38 387.88,582.00 387.88,582.00
             387.88,582.00 394.75,581.38 394.75,581.38
             394.75,581.38 409.65,604.91 413.00,609.00
             413.00,609.00 409.00,579.00 409.00,579.00 Z
           M 342.00,581.00
           C 342.00,581.00 346.50,581.88 346.50,581.88
             346.50,581.88 346.00,588.79 346.00,597.00
             346.00,597.00 363.00,598.00 363.00,598.00
             363.00,598.00 364.00,582.00 364.00,582.00
             370.59,583.16 369.00,581.88 369.00,581.88
             369.00,581.88 366.50,621.25 366.50,621.25
             366.01,621.95 361.38,621.75 361.38,621.75
             361.38,621.75 362.25,604.25 362.25,604.25
             362.25,604.25 345.00,603.25 345.00,603.25
             345.00,608.61 344.50,619.38 344.50,619.38
             344.50,619.38 339.75,619.50 339.75,619.50
             339.75,619.50 342.00,581.00 342.00,581.00 Z
           M 375.62,582.38
           C 375.62,582.38 380.75,582.62 380.75,582.62
             380.75,582.62 381.25,621.50 381.25,621.50
             381.25,621.50 376.38,621.00 376.38,621.00
             376.38,621.00 375.62,582.38 375.62,582.38 Z
           M 424.62,603.50
           C 424.62,603.50 423.12,598.38 423.12,598.38
             423.12,598.38 432.50,596.50 432.50,596.50
             432.50,596.50 435.00,601.00 435.00,601.00
             435.00,601.00 424.62,603.50 424.62,603.50 Z
           M 343.52,539.78
           C 340.93,539.66 341.98,536.19 343.48,536.26
             345.19,535.65 346.03,539.98 343.52,539.78 Z
           M 349.27,506.00
           C 349.27,506.00 347.30,511.39 347.30,511.39
             347.30,511.39 349.30,512.05 349.30,512.05
             349.30,512.05 350.09,506.48 350.09,506.48
             350.09,506.48 349.27,506.00 349.27,506.00 Z
           M 408.00,500.09
           C 408.00,500.09 410.96,500.13 411.00,500.09
             411.04,500.04 410.96,501.87 410.96,501.87
             410.96,501.87 408.00,501.83 408.00,501.83
             408.00,501.83 408.00,500.09 408.00,500.09 Z" />
</svg>
