<?xml version="1.0" encoding="UTF-8" standalone="no"?>
<!DOCTYPE svg PUBLIC "-//W3C//DTD SVG 20010904//EN"
              "http://www.w3.org/TR/2001/REC-SVG-20010904/DTD/svg10.dtd">

<svg xmlns="http://www.w3.org/2000/svg"
     width="2.5in" height="2.5in"
     viewBox="0 0 750 750">
  <path id="Seleção #2"
        fill="none" stroke="black" stroke-width="1"
        d="M 355.00,174.21
           C 355.00,174.21 375.00,174.21 375.00,174.21
             397.68,174.04 426.20,180.75 447.00,189.72
             483.44,205.44 514.56,230.60 536.31,264.00
             586.50,341.09 578.65,448.04 513.00,514.00
             497.28,529.79 480.98,542.69 461.00,552.75
             427.47,569.63 398.31,575.43 361.00,575.00
             344.67,574.81 321.54,570.14 306.00,565.00
             285.06,558.08 264.49,547.19 247.00,533.77
             172.58,476.62 148.43,374.89 187.31,290.00
             209.32,241.93 251.17,203.44 301.00,185.69
             312.38,181.64 326.04,177.98 338.00,176.28
             338.00,176.28 355.00,174.21 355.00,174.21 Z" />
</svg>
