<?xml version="1.0" encoding="UTF-8" standalone="no"?>
<!DOCTYPE svg PUBLIC "-//W3C//DTD SVG 20010904//EN"
              "http://www.w3.org/TR/2001/REC-SVG-20010904/DTD/svg10.dtd">

<svg xmlns="http://www.w3.org/2000/svg"
     width="2.5in" height="2.5in"
     viewBox="0 0 750 750">
  <path id="Seleção #3"
        fill="none" stroke="black" stroke-width="1"
        d="M 354.00,107.21
           C 354.00,107.21 360.00,107.21 360.00,107.21
             390.28,106.65 415.75,109.23 445.00,117.58
             476.42,126.54 505.91,141.78 532.00,161.37
             551.51,176.03 570.47,195.29 584.85,215.00
             602.34,238.98 616.15,265.62 624.98,294.00
             653.25,384.98 631.06,486.07 565.91,556.00
             545.54,577.86 520.58,597.03 494.00,610.74
             450.28,633.30 408.88,641.57 360.00,641.00
             360.00,641.00 350.00,640.09 350.00,640.09
             324.98,638.34 300.50,633.29 277.00,624.42
             244.08,612.01 213.81,593.96 188.00,569.91
             103.72,491.40 79.33,366.49 127.31,262.00
             158.64,193.76 217.60,142.17 289.00,119.34
             304.23,114.48 320.12,111.06 336.00,109.15
             336.00,109.15 354.00,107.21 354.00,107.21 Z" />
</svg>
