<?xml version="1.0" encoding="UTF-8" standalone="no"?>
<!DOCTYPE svg PUBLIC "-//W3C//DTD SVG 20010904//EN"
              "http://www.w3.org/TR/2001/REC-SVG-20010904/DTD/svg10.dtd">

<svg xmlns="http://www.w3.org/2000/svg"
     width="2.5in" height="2.5in"
     viewBox="0 0 750 750">
  <path id="Seleção #4"
        fill="none" stroke="black" stroke-width="1"
        d="M 270.00,277.00
           C 275.46,279.28 280.11,283.04 285.00,286.33
             296.04,293.77 309.28,301.37 313.00,315.00
             321.36,308.91 320.93,306.29 333.00,299.89
             356.83,287.26 379.35,291.40 402.00,304.00
             404.78,295.71 409.62,297.57 417.00,299.37
             423.42,300.94 440.16,304.99 446.00,303.03
             446.00,303.03 456.00,298.68 456.00,298.68
             468.08,294.13 471.60,294.02 484.00,292.83
             487.48,292.50 489.21,291.92 493.00,292.04
             499.88,292.26 509.56,293.83 516.00,296.23
             522.04,298.48 528.82,302.10 534.00,305.92
             540.15,310.46 543.81,314.80 548.12,321.00
             563.45,343.08 564.09,367.22 562.00,393.00
             562.00,393.00 555.00,393.00 555.00,393.00
             556.11,400.10 559.49,407.23 561.94,414.00
             563.23,417.53 565.06,420.08 564.44,424.00
             563.37,430.75 558.67,433.73 554.00,438.00
             554.00,438.00 528.90,461.34 528.90,461.34
             526.06,464.32 519.86,472.54 516.00,472.71
             514.01,472.79 510.75,470.71 509.00,469.72
             509.00,469.72 495.00,461.94 495.00,461.94
             493.01,460.72 490.41,458.68 488.00,458.77
             485.81,458.85 479.55,462.87 477.00,464.05
             471.57,466.56 465.98,467.93 460.00,468.00
             450.03,468.11 441.96,467.01 433.00,462.21
             429.52,460.34 421.63,453.36 419.00,453.53
             416.91,453.66 412.99,456.87 411.00,458.07
             407.62,460.12 399.78,463.60 396.00,464.71
             374.10,471.11 347.35,468.95 328.00,456.30
             321.59,452.12 314.06,446.14 311.00,439.00
             311.00,439.00 309.00,439.00 309.00,439.00
             307.13,445.54 303.69,450.16 298.96,454.99
             283.83,470.42 268.27,472.23 248.00,472.00
             242.50,471.93 236.18,470.75 231.00,468.91
             226.03,467.14 219.16,463.68 215.00,460.47
             212.34,458.42 209.22,454.72 206.00,454.04
             201.61,453.11 190.74,456.51 187.00,459.00
             181.62,449.93 176.67,434.53 175.72,424.01
             175.19,418.12 178.65,401.45 181.37,396.00
             185.13,388.50 190.19,383.81 196.00,378.00
             173.70,361.26 178.60,316.40 207.00,298.66
             218.69,291.36 232.30,288.05 246.00,290.62
             246.00,290.62 264.00,296.00 264.00,296.00
             264.00,296.00 270.00,277.00 270.00,277.00 Z
           M 275.00,288.00
           C 271.86,291.65 269.32,301.09 268.00,306.00
             247.49,298.89 238.06,291.92 216.00,301.86
             193.55,311.98 182.37,343.26 194.32,364.99
             198.81,373.15 204.01,374.98 211.00,380.00
             206.57,381.48 203.92,382.14 200.00,384.94
             189.04,392.76 183.34,406.74 183.34,420.00
             183.34,420.00 184.85,433.00 184.85,433.00
             184.85,433.00 187.00,450.00 187.00,450.00
             191.51,449.36 205.67,445.64 208.91,446.35
             211.86,447.00 213.93,449.91 216.04,451.92
             219.26,454.97 223.92,458.65 228.00,460.40
             239.02,465.14 247.39,465.13 259.00,465.00
             274.46,464.82 290.25,456.98 298.90,444.00
             303.83,436.59 304.81,431.22 307.00,423.00
             307.00,423.00 309.00,423.00 309.00,423.00
             311.39,431.19 317.03,437.15 323.00,442.99
             340.09,459.69 355.44,461.26 378.00,461.00
             384.06,460.93 390.31,459.53 396.00,457.46
             405.46,454.01 413.86,447.98 421.00,441.00
             431.58,456.79 442.69,461.22 461.00,461.00
             464.20,460.96 465.89,460.91 469.00,459.91
             478.83,456.74 481.37,452.44 489.00,447.00
             493.23,453.82 501.05,457.68 508.00,461.25
             510.35,462.46 513.28,464.40 516.00,463.55
             518.95,462.64 522.10,458.29 524.17,456.00
             527.77,452.03 532.95,446.94 537.00,443.42
             537.00,443.42 551.00,431.15 551.00,431.15
             552.79,429.56 555.93,427.21 556.77,424.96
             557.82,422.14 555.45,417.71 554.42,415.00
             554.42,415.00 547.00,394.00 547.00,394.00
             547.00,394.00 536.00,401.00 536.00,401.00
             536.00,401.00 534.00,386.00 534.00,386.00
             534.00,386.00 555.00,386.00 555.00,386.00
             555.00,371.98 556.09,357.53 551.64,344.00
             549.71,338.12 545.68,330.01 542.08,325.00
             531.13,309.78 515.00,300.09 496.00,300.00
             496.00,300.00 484.00,300.00 484.00,300.00
             479.62,300.05 475.28,300.73 471.00,301.66
             465.63,302.82 458.89,304.69 454.00,307.12
             454.00,307.12 447.00,310.71 447.00,310.71
             441.69,312.88 427.13,308.50 421.00,307.12
             418.35,306.65 412.89,305.26 410.59,307.12
             408.84,308.37 408.39,312.87 408.00,315.00
             397.56,310.48 393.32,306.21 381.00,302.35
             362.23,296.46 342.32,300.58 327.00,312.67
             316.91,320.62 314.56,327.81 309.00,333.00
             308.95,326.98 308.10,319.40 305.33,314.00
             299.54,302.69 284.84,295.83 275.00,288.00 Z
           M 277.00,297.00
           C 290.62,303.64 302.93,312.59 303.00,329.00
             303.02,334.41 303.11,337.81 301.07,343.00
             300.12,345.43 296.61,351.25 296.50,353.00
             296.30,356.14 302.65,364.70 305.00,367.00
             306.29,339.01 329.97,305.36 360.00,305.00
             384.81,304.71 391.11,314.00 412.00,323.00
             412.44,320.69 413.23,315.22 414.85,313.64
             417.05,311.48 427.89,314.07 430.98,314.82
             432.36,315.16 434.09,315.53 435.00,316.73
             437.27,319.76 433.34,322.95 435.00,330.00
             439.52,321.57 448.51,315.78 457.00,311.78
             478.78,301.54 510.31,301.36 528.99,318.18
             548.29,335.57 550.00,355.88 550.00,380.00
             550.00,380.00 527.00,380.00 527.00,380.00
             527.00,380.00 528.79,388.00 528.79,388.00
             528.79,388.00 530.00,411.00 530.00,411.00
             530.00,411.00 544.00,403.00 544.00,403.00
             545.65,406.75 551.27,419.50 550.30,423.00
             549.48,425.95 546.22,428.33 544.00,430.28
             544.00,430.28 528.04,444.17 528.04,444.17
             524.54,447.47 517.80,457.29 513.00,457.19
             510.94,457.15 506.83,454.66 505.00,453.55
             494.94,447.49 494.03,445.55 487.00,437.00
             477.90,457.00 453.32,461.78 436.00,449.37
             427.51,443.28 426.57,438.25 422.00,430.00
             419.01,435.57 415.26,438.98 410.42,442.96
             386.33,462.80 346.91,459.81 325.09,437.91
             316.42,429.21 308.91,414.05 306.45,402.00
             306.45,402.00 304.00,386.00 304.00,386.00
             301.41,386.99 297.36,388.38 296.23,391.19
             295.30,393.50 297.07,396.73 297.78,399.00
             299.48,404.38 300.93,410.36 301.00,416.00
             301.06,421.73 301.02,426.48 299.10,432.00
             295.00,443.77 282.94,454.71 271.00,458.08
             263.57,460.18 258.55,460.08 251.00,460.00
             241.46,459.88 231.70,457.29 224.00,451.49
             224.00,451.49 211.91,440.57 211.91,440.57
             206.71,438.54 194.33,446.05 191.59,440.57
             191.59,440.57 189.87,430.00 189.87,430.00
             188.33,418.92 188.63,409.00 194.36,399.00
             202.65,384.53 222.33,380.27 236.00,389.77
             246.18,396.85 248.62,405.66 251.72,417.00
             253.43,423.28 255.33,432.50 260.00,437.00
             260.00,437.00 245.76,393.00 245.76,393.00
             243.63,384.51 245.62,378.19 245.76,370.00
             237.33,374.56 232.99,376.22 223.00,375.99
             218.49,375.88 215.08,375.17 211.00,373.18
             184.55,360.28 192.96,321.68 216.00,307.76
             224.45,302.66 228.64,302.99 238.00,303.00
             254.74,303.03 258.96,310.56 272.00,313.00
             272.00,313.00 277.00,297.00 277.00,297.00 Z
           M 286.00,316.00
           C 287.33,319.71 290.97,325.02 286.74,328.13
             284.59,329.71 282.36,329.41 280.00,328.64
             259.28,321.91 235.80,301.11 215.17,321.18
             212.86,323.43 209.99,327.12 208.53,330.00
             206.48,334.03 205.22,339.49 205.04,344.00
             204.81,349.88 206.13,356.15 210.53,360.20
             217.33,366.95 233.50,368.54 239.00,360.20
             230.86,362.90 223.29,365.73 215.01,360.77
             205.48,355.06 202.71,339.51 217.00,333.36
             223.05,330.76 229.34,333.43 235.00,335.93
             235.00,335.93 259.00,348.16 259.00,348.16
             264.11,350.81 270.11,353.69 276.00,352.48
             292.31,349.14 299.55,326.70 286.00,316.00 Z
           M 424.00,324.00
           C 419.98,327.08 420.30,332.82 414.98,334.30
             411.36,335.31 402.46,330.02 399.00,328.22
             388.51,322.76 377.12,315.29 365.00,315.01
             331.86,314.25 313.97,348.74 314.00,378.00
             314.03,406.17 325.61,435.56 355.00,443.96
             359.28,445.18 368.46,446.09 373.00,445.99
             402.46,445.32 422.33,422.88 422.99,394.00
             423.21,384.08 420.89,374.04 412.96,367.38
             404.21,360.02 389.01,357.04 378.00,359.92
             372.58,361.35 366.69,364.49 362.00,367.54
             356.83,370.91 344.04,382.65 338.00,381.08
             330.61,379.15 327.68,365.81 336.10,358.38
             344.11,351.31 353.07,353.91 362.00,357.00
             358.84,351.59 352.86,350.74 347.00,351.04
             320.54,352.39 325.55,393.21 347.00,401.13
             364.14,407.45 379.92,396.08 393.00,386.37
             396.60,383.69 406.93,374.80 411.00,375.07
             417.80,375.51 426.66,389.49 415.79,401.98
             407.14,411.93 387.66,414.85 375.00,415.00
             355.38,415.23 331.75,414.40 320.53,395.00
             307.92,373.21 322.48,337.53 348.00,339.09
             368.18,340.33 391.75,365.19 411.96,347.67
             414.85,345.17 416.88,342.35 418.68,339.00
             421.03,334.62 422.89,328.85 424.00,324.00 Z
           M 538.00,356.00
           C 537.52,350.64 535.85,345.82 533.48,341.00
             524.66,323.12 509.43,314.97 490.00,315.00
             464.52,315.04 437.97,328.02 435.17,356.00
             434.65,361.24 435.19,364.92 436.20,370.00
             439.43,386.26 444.06,391.52 454.59,404.00
             460.81,411.37 472.62,421.31 471.15,432.00
             469.61,443.17 457.88,446.06 454.21,438.89
             452.64,435.82 454.22,432.15 454.83,429.00
             455.60,425.03 455.54,416.53 453.11,413.21
             449.41,408.17 439.64,407.39 435.51,412.23
             432.81,415.38 432.92,420.07 433.01,424.00
             433.53,445.34 462.68,453.67 475.45,436.98
             481.77,428.72 483.75,411.91 481.24,402.00
             481.24,402.00 474.00,383.00 474.00,383.00
             477.42,383.00 481.84,382.71 485.00,384.01
             490.00,386.06 492.77,390.85 493.67,396.00
             493.67,396.00 495.67,427.00 495.67,427.00
             496.15,429.25 496.94,432.01 498.09,434.00
             500.34,437.93 507.93,445.87 513.00,443.87
             515.57,442.86 524.02,434.00 527.00,431.42
             531.42,427.61 536.42,424.33 539.00,419.00
             539.00,419.00 531.00,422.77 531.00,422.77
             525.39,424.23 521.94,419.92 520.61,415.00
             520.61,415.00 518.15,388.00 518.15,388.00
             515.81,381.13 509.42,378.89 504.00,375.00
             504.00,375.00 518.00,371.92 518.00,371.92
             520.09,371.55 523.62,371.20 524.98,369.42
             528.79,364.42 522.95,349.72 520.07,345.00
             507.43,324.22 477.15,327.24 470.90,351.00
             467.71,363.12 469.50,363.07 470.00,374.00
             465.79,370.00 465.06,364.56 464.08,359.00
             460.56,338.91 471.82,318.57 494.00,318.57
             509.50,318.57 522.85,328.22 530.77,341.00
             530.77,341.00 538.00,356.00 538.00,356.00 Z
           M 236.00,348.00
           C 233.72,346.71 231.45,345.41 229.00,344.47
             227.72,343.98 226.36,343.55 225.00,343.33
             216.03,341.91 217.91,349.53 219.74,351.40
             222.04,353.77 228.22,353.13 230.98,351.92
             233.34,350.88 234.31,349.80 236.00,348.00 Z
           M 426.00,348.00
           C 418.44,354.24 416.21,357.62 425.00,364.00
             425.00,364.00 426.00,348.00 426.00,348.00 Z
           M 472.00,381.00
           C 470.95,375.11 470.93,373.96 471.00,368.00
             471.05,364.45 471.27,361.37 472.56,358.00
             475.75,349.66 485.51,345.72 492.90,351.57
             496.55,354.46 498.05,358.58 498.91,363.00
             499.51,366.13 500.73,370.88 498.40,373.49
             496.30,375.85 488.24,377.43 485.00,378.23
             479.15,379.67 478.46,380.68 472.00,381.00 Z
           M 254.00,357.00
           C 254.00,357.00 249.00,355.00 249.00,355.00
             249.00,355.00 250.00,362.00 250.00,362.00
             250.00,362.00 254.00,357.00 254.00,357.00 Z
           M 295.00,375.00
           C 292.41,361.39 278.54,352.33 266.00,360.70
             257.84,366.14 254.80,375.63 255.01,385.00
             255.35,399.75 266.92,418.14 270.09,433.00
             271.51,439.66 267.02,446.77 260.00,447.33
             251.53,448.01 247.25,437.49 245.28,431.00
             245.28,431.00 240.51,416.00 240.51,416.00
             236.92,404.53 233.39,395.07 219.00,395.08
             199.94,395.08 195.02,421.90 202.00,431.00
             202.00,431.00 201.04,423.00 201.04,423.00
             200.87,418.62 203.31,402.72 210.79,408.42
             214.78,411.47 217.90,425.49 220.49,431.00
             227.48,445.89 239.56,450.02 255.00,450.00
             261.60,449.99 262.69,449.87 269.00,447.66
             272.89,446.29 275.70,445.03 279.00,442.47
             300.12,426.15 288.42,402.72 280.60,383.00
             279.19,379.44 275.64,370.57 276.03,367.02
             276.42,363.48 279.38,360.85 283.00,361.84
             288.28,363.30 291.15,371.16 295.00,375.00 Z
           M 486.00,359.00
           C 481.93,361.29 482.19,362.73 481.00,367.00
             481.00,367.00 489.00,366.00 489.00,366.00
             489.00,366.00 486.00,359.00 486.00,359.00 Z
           M 349.00,364.00
           C 344.23,363.66 343.10,364.83 341.00,369.00
             341.00,369.00 349.00,364.00 349.00,364.00 Z
           M 233.00,381.00
           C 233.00,381.00 239.00,380.00 239.00,380.00
             239.00,380.00 238.00,385.00 238.00,385.00
             238.00,385.00 233.00,381.00 233.00,381.00 Z
           M 410.00,386.00
           C 404.85,389.22 389.74,399.40 387.00,404.00
             397.37,402.60 413.08,399.97 410.00,386.00 Z
           M 434.00,393.00
           C 434.00,393.00 433.00,401.00 433.00,401.00
             433.00,401.00 437.00,399.00 437.00,399.00
             437.00,399.00 434.00,393.00 434.00,393.00 Z" />
</svg>
