<?xml version="1.0" encoding="UTF-8" standalone="no"?>
<!DOCTYPE svg PUBLIC "-//W3C//DTD SVG 20010904//EN"
              "http://www.w3.org/TR/2001/REC-SVG-20010904/DTD/svg10.dtd">

<svg xmlns="http://www.w3.org/2000/svg" width="2.5in" height="2.5in" viewBox="0 0 750 750">
  <g>
    <path id="circuloInterno" fill="#9b803d" stroke="#9b803d" stroke-width="1" d="M 355.00,174.21
           C 355.00,174.21 375.00,174.21 375.00,174.21
             397.68,174.04 426.20,180.75 447.00,189.72
             483.44,205.44 514.56,230.60 536.31,264.00
             586.50,341.09 578.65,448.04 513.00,514.00
             497.28,529.79 480.98,542.69 461.00,552.75
             427.47,569.63 398.31,575.43 361.00,575.00
             344.67,574.81 321.54,570.14 306.00,565.00
             285.06,558.08 264.49,547.19 247.00,533.77
             172.58,476.62 148.43,374.89 187.31,290.00
             209.32,241.93 251.17,203.44 301.00,185.69
             312.38,181.64 326.04,177.98 338.00,176.28
             338.00,176.28 355.00,174.21 355.00,174.21 Z" />
    <path id="circuloExterno" fill="none" stroke="#9b803d" stroke-width="15" d="M 354.00,107.21
           C 354.00,107.21 360.00,107.21 360.00,107.21
             390.28,106.65 415.75,109.23 445.00,117.58
             476.42,126.54 505.91,141.78 532.00,161.37
             551.51,176.03 570.47,195.29 584.85,215.00
             602.34,238.98 616.15,265.62 624.98,294.00
             653.25,384.98 631.06,486.07 565.91,556.00
             545.54,577.86 520.58,597.03 494.00,610.74
             450.28,633.30 408.88,641.57 360.00,641.00
             360.00,641.00 350.00,640.09 350.00,640.09
             324.98,638.34 300.50,633.29 277.00,624.42
             244.08,612.01 213.81,593.96 188.00,569.91
             103.72,491.40 79.33,366.49 127.31,262.00
             158.64,193.76 217.60,142.17 289.00,119.34
             304.23,114.48 320.12,111.06 336.00,109.15
             336.00,109.15 354.00,107.21 354.00,107.21 Z" />


  </g>

  <g>
    <path id="escritaExterna" fill="black" stroke="black" stroke-width="1" d="M 363.00,41.00
           C 363.00,41.00 374.79,42.02 374.79,42.02
             374.79,42.02 389.00,61.00 389.00,61.00
             389.00,53.74 390.19,43.12 390.19,43.12
             390.19,43.12 402.00,43.00 402.00,43.00
             402.00,43.00 399.00,82.00 399.00,82.00
             399.00,82.00 387.19,81.06 387.19,81.06
             387.19,81.06 374.44,60.38 374.44,60.38
             374.43,63.89 372.44,79.50 372.44,79.50
             372.44,79.50 363.19,79.10 361.00,79.18
             361.00,79.18 363.00,41.00 363.00,41.00 Z
           M 324.44,42.88
           C 324.44,42.88 338.94,42.38 338.94,42.38
             338.94,42.38 356.25,79.00 356.25,79.00
             356.25,79.00 344.50,80.06 344.50,80.06
             344.50,80.06 340.81,74.31 340.81,74.31
             340.81,74.31 327.38,75.19 327.38,75.19
             327.38,75.19 326.44,81.69 326.44,81.69
             326.44,81.69 314.56,82.50 314.56,82.50
             314.56,82.50 324.44,42.88 324.44,42.88 Z
           M 416.44,45.31
           C 420.22,43.91 443.59,49.63 446.99,58.00
             450.13,65.71 447.19,86.25 431.00,86.00
             421.96,86.12 413.69,83.88 406.75,82.06
             406.75,82.06 416.44,45.31 416.44,45.31 Z
           M 289.00,49.00
           C 289.00,49.00 300.31,46.75 300.31,46.75
             300.31,46.75 310.25,83.88 310.25,83.88
             310.25,83.88 298.25,86.06 298.25,86.06
             298.25,86.06 281.00,70.25 281.00,70.25
             281.00,70.25 285.00,89.00 285.00,89.00
             285.00,89.00 273.56,92.06 273.56,92.06
             273.56,92.06 264.00,54.00 264.00,54.00
             264.00,54.00 275.19,53.00 275.19,53.00
             275.19,53.00 289.56,63.65 294.00,67.00
             294.00,67.00 289.00,49.00 289.00,49.00 Z
           M 333.00,55.00
           C 333.00,55.00 330.00,65.00 330.00,65.00
             330.00,65.00 337.00,65.00 337.00,65.00
             337.00,65.00 333.00,55.00 333.00,55.00 Z
           M 421.38,75.50
           C 423.95,75.97 427.43,77.27 429.89,75.98
             435.21,73.14 436.06,62.68 433.83,59.48
             432.47,57.54 429.16,56.73 427.00,56.00
             427.00,56.00 421.38,75.50 421.38,75.50 Z
           M 464.00,55.00
           C 464.00,55.00 494.00,66.00 494.00,66.00
             494.00,66.00 491.00,74.00 491.00,74.00
             491.00,74.00 472.00,67.00 472.00,67.00
             472.00,67.00 470.00,72.00 470.00,72.00
             470.00,72.00 487.00,79.00 487.00,79.00
             487.00,79.00 485.00,86.00 485.00,86.00
             485.00,86.00 467.12,80.38 467.12,80.38
             467.12,80.38 465.00,87.00 465.00,87.00
             468.21,87.75 483.88,93.69 483.88,93.69
             483.88,93.69 481.63,100.05 481.00,102.00
             481.00,102.00 449.00,91.00 449.00,91.00
             449.00,91.00 464.00,55.00 464.00,55.00 Z
           M 245.00,104.00
           C 242.62,105.24 233.62,108.12 233.62,108.12
             233.62,108.12 217.19,73.38 217.19,73.38
             217.19,73.38 239.93,60.55 246.69,62.06
             256.20,64.19 256.42,75.29 252.00,82.00
             258.70,83.28 264.69,87.83 269.00,93.00
             269.00,93.00 256.44,97.85 256.44,97.85
             256.44,97.85 246.19,89.05 238.44,89.25
             238.44,89.25 245.00,104.00 245.00,104.00 Z
           M 235.00,82.00
           C 237.32,81.11 240.66,80.02 241.92,77.68
             243.33,75.07 241.43,72.50 237.00,73.66
             235.21,74.13 233.61,75.13 232.00,76.00
             232.00,76.00 235.00,82.00 235.00,82.00 Z
           M 510.62,82.94
           C 505.25,85.44 522.49,97.32 522.50,97.31
             528.18,105.69 521.80,114.26 512.00,115.44
             502.84,116.55 485.56,105.81 489.69,93.44
             489.69,93.44 500.75,96.88 500.75,96.88
             502.10,98.62 500.98,102.30 503.50,104.69
             506.30,107.34 510.88,105.82 510.88,103.12
             510.88,100.10 505.04,96.76 503.04,94.83
             497.30,89.29 493.84,81.14 502.04,75.74
             509.39,70.90 534.31,77.35 528.31,93.56
             528.31,93.56 519.36,90.27 519.36,90.27
             515.00,83.62 516.44,82.12 510.62,82.94 Z
           M 177.81,93.88
           C 177.81,93.88 206.81,77.88 206.81,77.88
             206.81,77.88 210.88,85.69 210.88,85.69
             210.88,85.69 194.00,95.00 194.00,95.00
             194.00,95.00 196.00,100.00 196.00,100.00
             196.00,100.00 213.00,91.00 213.00,91.00
             213.00,91.00 217.00,99.00 217.00,99.00
             214.36,100.40 202.31,106.88 201.19,107.56
             201.88,108.94 204.38,112.69 204.88,113.81
             205.94,113.31 221.62,104.62 223.06,103.75
             224.06,105.25 226.38,110.62 226.94,111.62
             226.25,112.25 200.00,127.50 198.62,128.06
             198.12,127.44 178.88,96.19 177.81,93.88 Z
           M 179.13,143.65
           C 177.96,144.57 170.96,149.78 169.48,150.83
             168.87,150.35 144.39,120.22 143.78,119.61
             144.78,118.70 166.78,101.83 167.39,101.43
             168.22,101.91 172.87,107.17 173.43,107.96
             172.57,108.83 159.96,118.96 159.96,118.96
             159.96,118.96 163.70,124.43 163.70,124.43
             163.70,124.43 175.39,114.87 175.39,114.87
             175.39,114.87 180.78,121.65 180.78,121.65
             178.37,123.43 171.17,129.43 170.17,130.65
             170.48,131.48 177.91,141.78 179.13,143.65 Z
           M 562.17,105.17
           C 567.06,104.68 570.42,108.75 574.00,111.75
             577.80,114.94 582.01,118.23 583.85,123.00
             587.35,132.04 579.58,143.36 572.00,147.77
             562.03,153.58 553.69,147.88 546.00,141.58
             543.73,139.72 537.81,135.93 538.12,132.69
             538.12,132.69 562.17,105.17 562.17,105.17 Z
           M 553.31,134.25
           C 556.17,135.68 559.68,139.29 563.00,138.22
             568.67,136.39 577.77,124.77 566.00,119.00
             561.83,124.51 553.31,134.25 553.31,134.25 Z
           M 600.00,135.00
           C 605.74,139.11 622.69,159.25 622.69,159.25
             622.69,159.25 615.31,164.62 615.31,164.62
             615.31,164.62 602.38,150.88 602.38,150.88
             602.38,150.88 597.75,153.31 597.75,153.31
             597.75,153.31 610.19,168.00 610.19,168.00
             610.19,168.00 603.69,173.19 603.69,173.19
             603.69,173.19 590.69,159.81 590.69,159.81
             590.69,159.81 585.69,163.50 585.69,163.50
             585.69,163.50 599.81,180.50 599.81,180.50
             599.81,180.50 592.00,186.00 592.00,186.00
             592.00,186.00 571.61,161.17 571.61,161.17
             571.61,161.17 600.00,135.00 600.00,135.00 Z
           M 116.00,150.53
           C 126.72,148.77 137.42,153.60 141.91,164.00
             146.58,174.81 138.06,189.78 127.00,192.47
             114.37,195.54 99.46,185.19 99.13,172.00
             98.89,162.31 107.19,153.28 116.00,150.53 Z
           M 117.00,162.45
           C 103.35,167.92 116.98,182.82 125.98,180.55
             131.52,179.16 133.08,173.65 130.11,169.04
             127.09,164.35 122.48,161.91 117.00,162.45 Z
           M 608.00,205.00
           C 608.00,205.00 642.25,185.88 642.25,185.88
             642.25,185.88 648.69,196.06 648.69,196.06
             648.69,196.06 637.19,203.44 637.19,203.44
             637.19,203.44 655.19,206.88 655.19,206.88
             655.19,206.88 663.00,221.00 663.00,221.00
             663.00,221.00 643.38,216.62 643.38,216.62
             643.38,216.62 630.00,242.00 630.00,242.00
             630.00,242.00 672.75,240.94 672.75,240.94
             672.75,240.94 677.12,253.50 677.12,253.50
             677.12,253.50 667.90,262.60 665.00,265.15
             659.48,270.02 651.36,278.28 645.00,281.00
             643.67,278.44 640.94,268.62 640.94,268.62
             640.94,268.62 645.00,266.44 645.00,266.44
             645.00,266.44 640.81,253.00 640.81,253.00
             640.81,253.00 633.94,253.06 633.94,253.06
             633.94,253.06 622.55,229.00 622.55,229.00
             622.55,229.00 630.56,213.12 630.56,213.12
             630.56,213.12 625.69,211.75 625.69,211.75
             625.69,211.75 613.44,216.00 613.44,216.00
             613.44,216.00 608.00,205.00 608.00,205.00 Z
           M 72.31,188.34
           C 74.26,188.44 74.86,188.18 76.22,190.16
             79.36,194.75 74.12,197.19 71.44,200.12
             70.49,201.72 70.74,205.11 69.41,205.83
             67.38,206.94 65.22,204.75 64.66,202.94
             63.48,199.15 66.69,196.94 69.31,195.00
             72.75,192.12 69.41,190.94 72.31,188.34 Z
           M 102.00,238.00
           C 96.86,236.36 95.14,233.00 91.73,229.00
             88.56,225.29 75.76,211.12 74.36,208.00
             72.71,204.32 76.05,196.99 79.39,195.06
             81.86,193.63 87.99,195.57 91.00,196.00
             91.00,196.00 122.00,201.00 122.00,201.00
             121.30,204.43 119.61,209.18 116.62,211.31
             113.08,213.85 110.85,210.19 106.25,217.02
             101.91,224.05 106.34,224.41 106.25,229.00
             105.91,231.29 103.16,235.81 102.00,238.00 Z
           M 99.00,209.00
           C 99.00,209.00 88.00,207.00 88.00,207.00
             88.00,207.00 96.00,215.00 96.00,215.00
             96.00,215.00 99.00,209.00 99.00,209.00 Z
           M 93.96,266.26
           C 89.87,261.17 87.67,268.43 82.00,270.20
             73.59,272.83 62.43,269.81 56.21,263.68
             46.27,253.86 53.04,229.04 72.13,230.04
             72.13,230.04 71.00,242.00 71.00,242.00
             69.53,242.31 67.86,241.62 66.48,242.39
             57.22,249.17 68.39,260.26 78.09,259.00
             80.82,258.53 84.03,256.04 84.65,253.35
             85.55,249.45 81.56,246.47 79.75,244.34
             80.41,243.06 85.88,236.62 87.00,235.75
             90.97,235.66 96.72,244.29 94.91,253.94
             94.91,253.94 96.81,253.94 96.81,253.94
             102.47,250.28 105.62,258.12 103.35,264.00
             102.70,266.21 100.91,268.89 99.81,270.98
             99.81,270.98 96.16,269.86 96.16,269.86
             98.01,265.43 100.02,260.97 98.50,260.00
             96.69,259.44 95.65,264.12 93.96,266.26 Z
           M 662.00,252.00
           C 662.00,252.00 651.00,252.00 651.00,252.00
             651.00,252.00 653.00,259.00 653.00,259.00
             653.00,259.00 662.00,252.00 662.00,252.00 Z
           M 665.31,294.88
           C 662.56,295.25 648.94,298.00 648.94,298.00
             648.94,298.00 647.59,286.14 647.59,286.14
             647.59,286.14 686.00,277.00 686.00,277.00
             687.10,284.14 692.97,301.15 691.42,307.00
             689.29,315.01 676.29,316.91 672.00,310.00
             672.00,310.00 656.00,323.00 656.00,323.00
             656.00,323.00 697.00,335.00 697.00,335.00
             697.00,335.00 698.00,348.44 698.00,348.44
             698.00,348.44 659.50,366.56 659.50,366.56
             659.50,366.56 658.06,354.00 658.06,354.00
             658.06,354.00 664.00,351.94 664.00,351.94
             664.00,351.94 662.69,337.56 662.69,337.56
             662.69,337.56 656.50,336.69 656.50,336.69
             656.50,336.69 652.12,310.06 652.12,310.06
             652.12,310.06 662.62,304.05 665.31,294.88 Z
           M 77.25,308.25
           C 76.75,310.06 74.25,318.88 73.81,320.50
             72.38,319.62 38.62,298.00 37.62,297.31
             37.69,296.38 40.75,284.88 41.19,283.88
             42.69,283.62 84.06,278.31 84.06,278.31
             83.75,280.06 81.56,288.44 81.12,290.62
             80.25,290.81 75.25,291.88 74.25,292.12
             73.81,294.25 71.74,302.21 71.00,305.00
             71.00,305.00 77.25,308.25 77.25,308.25 Z
           M 681.00,302.00
           C 680.97,292.98 680.87,291.67 673.00,293.00
             674.48,298.42 675.10,301.02 681.00,302.00 Z
           M 64.00,293.00
           C 64.00,293.00 51.81,293.88 51.81,293.88
             51.94,294.25 62.12,298.50 62.88,299.06
             62.88,299.06 64.00,293.00 64.00,293.00 Z
           M 33.00,321.00
           C 33.00,321.00 72.22,324.91 73.16,325.06
             73.16,325.78 72.69,336.38 72.69,336.84
             71.78,336.81 32.00,334.00 32.00,334.00
             32.00,334.00 33.00,321.00 33.00,321.00 Z
           M 685.00,342.00
           C 685.00,342.00 672.00,340.00 672.00,340.00
             672.00,340.00 673.00,348.00 673.00,348.00
             677.29,346.99 682.45,345.80 685.00,342.00 Z
           M 57.00,344.00
           C 68.73,345.32 72.54,354.33 71.13,365.00
             70.73,367.96 70.44,370.34 68.91,373.00
             65.24,379.44 59.11,382.20 52.00,382.83
             46.36,383.33 38.32,381.88 34.21,377.79
             27.60,371.22 26.62,355.16 33.39,348.39
             35.77,346.01 39.32,344.77 42.48,343.87
             42.74,345.65 44.07,353.13 44.30,355.13
             42.46,357.61 38.51,359.87 39.79,363.96
             41.76,370.20 53.02,371.21 57.77,367.91
             61.35,365.43 61.69,360.66 58.57,357.65
             57.27,356.40 55.60,355.75 54.00,355.00
             54.00,355.00 57.00,344.00 57.00,344.00 Z
           M 689.00,367.00
           C 689.00,367.00 698.00,367.00 698.00,367.00
             698.00,367.00 697.25,405.06 697.25,405.06
             694.42,405.06 687.31,404.88 687.31,404.88
             687.31,404.88 686.88,390.81 686.88,390.81
             686.88,390.81 657.38,389.31 657.38,389.31
             657.38,389.31 656.94,377.38 656.94,377.38
             656.94,377.38 688.56,378.44 688.56,378.44
             688.56,378.44 689.00,370.20 689.00,367.00 Z
           M 50.00,390.44
           C 56.45,389.61 62.70,389.92 67.90,394.39
             75.74,401.13 76.46,418.18 69.47,425.67
             64.41,431.10 57.03,432.18 50.00,431.98
             35.98,431.60 31.71,421.39 32.01,409.00
             32.11,405.10 32.76,401.40 34.99,398.09
             38.56,392.81 44.16,391.53 50.00,390.44 Z
           M 51.00,403.33
           C 48.15,404.04 45.49,404.73 43.60,407.22
             40.63,411.14 41.72,418.48 50.00,418.96
             53.27,419.15 57.92,418.87 60.66,416.91
             64.94,413.86 64.87,406.82 60.66,404.17
             58.07,402.55 53.90,403.01 51.00,403.33 Z
           M 656.00,408.00
           C 656.00,408.00 696.00,417.00 696.00,417.00
             696.00,417.00 689.44,448.44 689.44,448.44
             689.44,448.44 681.06,446.81 681.06,446.81
             681.06,446.81 684.50,426.38 684.50,426.38
             684.50,426.38 678.12,425.69 678.12,425.69
             678.12,425.69 675.00,444.00 675.00,444.00
             675.00,444.00 667.12,441.94 667.12,441.94
             667.12,441.94 668.73,432.41 670.00,422.94
             668.67,422.87 663.12,422.00 663.12,422.00
             663.12,422.00 657.94,441.75 657.94,441.75
             657.94,441.75 649.12,439.69 649.12,439.69
             649.12,439.69 656.00,408.00 656.00,408.00 Z
           M 50.00,443.00
           C 51.43,446.09 53.18,449.49 52.66,453.00
             52.30,455.49 50.60,457.68 51.03,459.92
             51.42,461.94 53.48,463.46 54.99,461.54
             56.01,460.25 55.97,457.58 56.00,456.00
             56.00,456.00 56.00,452.00 56.00,452.00
             56.05,443.20 59.66,435.31 70.00,436.56
             83.86,438.22 92.73,465.97 74.00,472.00
             72.78,469.22 70.40,464.17 71.30,461.17
             71.30,461.17 74.16,455.91 74.16,455.91
             75.21,451.98 71.49,447.97 68.73,450.58
             66.69,452.51 67.02,457.37 67.00,460.00
             66.96,466.38 65.84,472.54 59.00,475.11
             57.41,475.70 55.67,475.87 54.00,475.62
             41.95,473.81 34.54,448.32 50.00,443.00 Z
           M 662.00,465.00
           C 662.00,465.00 653.94,462.69 653.94,462.69
             653.94,462.69 658.75,447.06 658.75,447.06
             658.75,447.06 667.00,450.00 667.00,450.00
             667.00,450.00 662.00,465.00 662.00,465.00 Z
           M 642.00,465.00
           C 642.00,465.00 679.69,481.38 679.69,481.38
             679.69,481.38 674.83,493.65 673.22,497.00
             670.79,502.05 668.53,506.36 663.00,508.44
             653.38,512.04 628.39,505.08 633.92,484.00
             635.40,478.38 639.43,470.45 642.00,465.00 Z
           M 92.13,510.65
           C 91.10,508.51 87.11,504.01 86.94,502.00
             86.70,499.00 92.45,491.32 85.94,489.34
             81.90,488.11 81.54,493.44 81.93,496.00
             81.93,496.00 82.96,503.00 82.96,503.00
             83.05,505.16 83.01,507.94 82.30,509.99
             79.93,516.81 72.24,519.75 66.00,515.99
             58.94,511.74 51.98,496.33 58.43,489.16
             60.47,486.89 61.09,486.09 62.96,485.61
             63.96,487.48 67.96,494.58 68.57,496.00
             67.74,498.04 65.43,498.22 66.09,502.57
             66.89,505.38 72.22,506.39 71.87,503.39
             70.65,499.74 70.01,492.00 70.01,492.00
             69.95,489.39 69.83,485.42 70.85,483.04
             73.51,476.85 82.29,475.42 88.00,477.72
             97.77,481.66 106.57,503.70 92.13,510.65 Z
           M 645.00,481.00
           C 644.50,482.96 643.36,486.05 643.81,488.00
             645.01,493.23 654.97,498.18 659.98,496.39
             663.96,494.96 666.52,490.23 661.85,487.13
             661.85,487.13 654.00,483.77 654.00,483.77
             650.26,482.11 649.06,481.64 645.00,481.00 Z
           M 105.06,506.56
           C 105.06,506.56 111.00,514.94 112.06,516.69
             110.89,518.86 109.31,520.62 108.25,522.25
             108.81,523.81 112.42,530.67 114.42,533.80
             116.05,533.53 120.58,532.93 121.78,532.84
             122.49,533.89 128.13,542.36 128.89,543.62
             128.89,543.62 89.12,552.50 85.44,552.94
             84.19,551.44 79.19,544.19 77.69,541.12
             79.06,538.94 105.06,506.56 105.06,506.56 Z
           M 626.00,510.56
           C 636.56,508.72 648.07,513.87 652.47,524.00
             657.57,535.75 648.99,550.26 637.00,553.29
             626.06,556.06 611.33,545.21 610.20,534.00
             609.19,524.04 616.88,513.74 626.00,510.56 Z
           M 628.02,522.48
           C 613.95,526.72 625.54,542.15 636.00,540.84
             640.38,540.29 643.47,536.43 642.53,532.00
             641.25,526.01 633.57,522.43 628.02,522.48 Z
           M 105.00,537.00
           C 100.41,529.16 96.64,533.84 94.00,540.00
             94.00,540.00 105.00,537.00 105.00,537.00 Z
           M 590.00,576.66
           C 603.16,576.08 604.10,593.02 593.00,594.62
             583.37,596.00 577.61,581.11 590.00,576.66 Z
           M 141.02,581.74
           C 154.42,578.83 156.69,595.53 146.98,599.10
             136.57,602.92 129.22,588.23 141.02,581.74 Z
           M 427.64,666.73
           C 427.45,655.82 432.17,652.39 442.00,650.62
             452.56,648.71 460.00,652.05 458.90,664.00
             458.68,666.31 458.20,667.92 457.16,670.00
             455.28,673.76 450.80,678.58 448.00,682.00
             450.84,681.62 464.09,679.36 464.09,679.36
             464.09,679.36 466.45,687.64 466.45,687.64
             466.45,687.64 433.55,695.36 433.55,695.36
             432.45,683.55 440.52,677.03 445.86,668.00
             447.39,665.40 450.18,659.18 444.00,658.73
             437.73,658.55 440.66,664.50 438.64,666.00
             438.64,666.00 427.64,666.73 427.64,666.73 Z
           M 273.00,668.00
           C 273.00,668.00 274.61,659.22 274.61,659.22
             283.17,657.43 285.68,656.35 291.65,651.13
             291.65,651.13 300.26,653.17 300.26,653.17
             300.26,653.17 290.52,695.09 290.52,695.09
             290.52,695.09 279.26,691.48 279.26,691.48
             279.26,691.48 285.65,665.83 285.65,665.83
             282.87,666.00 280.00,667.57 273.00,668.00 Z
           M 343.00,686.00
           C 326.49,692.19 319.63,677.50 324.23,667.04
             328.75,656.74 344.85,657.04 351.66,664.21
             357.23,670.08 356.97,683.76 354.39,691.10
             349.41,704.95 325.25,707.08 323.00,691.10
             323.00,691.10 333.55,691.18 333.55,691.18
             334.54,696.21 344.46,698.53 343.00,686.00 Z
           M 398.18,684.91
           C 391.47,688.05 385.04,690.12 379.22,683.89
             376.92,681.42 375.53,678.36 375.20,675.00
             373.85,661.50 389.53,655.84 399.96,661.05
             406.97,664.55 409.13,672.80 409.68,680.00
             409.99,684.13 409.01,692.32 406.35,695.56
             398.98,704.55 383.87,704.57 378.00,693.91
             378.00,693.91 387.73,691.36 387.73,691.36
             390.41,697.60 401.11,695.53 398.18,684.91 Z
           M 337.22,667.64
           C 331.19,671.87 334.57,681.86 340.78,679.24
             344.96,677.48 346.16,666.56 337.22,667.64 Z
           M 391.01,667.66
           C 382.81,670.61 387.56,681.14 392.88,679.34
             397.19,677.89 398.21,668.69 391.01,667.66 Z" />



    <path id="escritaInterna" fill="black" stroke="black" stroke-width="1" d="M 607.00,98.00
           C 607.00,98.00 608.00,98.00 608.00,98.00
             608.00,98.00 607.00,99.00 607.00,99.00
             607.00,99.00 607.00,98.00 607.00,98.00 Z
           M 371.00,137.25
           C 371.00,137.25 370.12,166.81 370.12,166.81
             370.12,166.81 365.25,166.88 365.25,166.88
             365.25,166.88 366.88,127.00 366.88,127.00
             366.88,127.00 372.81,127.56 372.81,127.56
             372.81,127.56 382.75,157.38 382.75,157.38
             382.75,157.38 384.36,128.21 384.31,128.12
             384.31,128.12 387.12,128.75 389.00,129.00
             387.19,136.44 387.75,167.81 387.75,167.81
             387.75,167.81 381.25,167.56 381.25,167.56
             381.25,167.56 371.00,137.25 371.00,137.25 Z
           M 353.00,128.00
           C 353.00,128.00 358.19,127.88 358.19,127.88
             358.19,127.88 358.81,168.25 358.81,168.25
             358.81,168.25 354.88,168.06 354.88,168.06
             354.88,168.06 353.00,128.00 353.00,128.00 Z
           M 403.04,130.53
           C 405.21,130.26 405.68,130.02 408.00,130.53
             421.57,132.09 418.10,147.75 415.87,157.00
             414.77,161.55 413.83,167.28 408.96,169.26
             403.90,171.31 396.11,169.82 394.43,163.96
             392.58,157.53 395.15,139.62 398.99,134.11
             400.47,131.98 400.96,131.94 403.04,130.53 Z
           M 306.00,135.49
           C 309.32,135.19 311.11,135.14 313.87,137.43
             316.51,139.62 317.79,142.87 318.95,146.00
             322.28,155.04 328.17,172.30 314.00,174.67
             305.41,176.10 302.69,169.94 300.36,163.00
             298.46,157.36 294.77,144.47 298.74,139.34
             300.63,136.89 303.18,136.23 306.00,135.49 Z
           M 406.02,136.73
           C 399.14,138.89 399.48,145.91 398.84,152.00
             398.65,153.75 398.12,156.33 398.31,158.00
             398.77,161.99 401.90,164.57 405.96,163.67
             410.47,162.67 411.23,157.85 411.92,154.00
             413.15,147.06 415.78,137.41 406.02,136.73 Z
           M 429.31,134.88
           C 429.31,134.88 433.50,137.31 433.50,137.31
             433.50,137.31 420.72,166.93 430.04,169.75
             434.46,171.08 436.78,167.60 438.19,164.00
             439.79,159.91 446.19,140.00 446.19,140.00
             446.19,140.00 450.44,141.06 450.44,141.06
             450.44,141.06 444.42,160.00 444.42,160.00
             443.30,163.84 441.89,169.73 439.35,172.79
             433.66,179.66 423.45,176.10 421.18,169.96
             419.71,165.96 421.45,159.94 422.66,156.00
             422.66,156.00 429.31,134.88 429.31,134.88 Z
           M 308.99,141.73
           C 298.59,142.46 302.19,153.15 304.16,160.00
             305.19,163.61 306.75,167.92 311.01,168.58
             315.32,169.26 318.48,166.25 318.38,161.98
             318.30,158.88 315.09,146.50 313.28,144.23
             311.73,142.29 311.11,142.39 308.99,141.73 Z
           M 266.00,150.00
           C 266.00,150.00 279.06,143.54 283.44,145.06
             286.45,146.11 288.07,149.37 289.65,152.00
             292.91,157.43 298.93,171.67 296.26,177.82
             294.60,181.65 280.56,186.69 280.56,186.69
             280.56,186.69 266.00,150.00 266.00,150.00 Z
           M 460.00,187.81
           C 460.00,187.81 443.00,180.25 443.00,180.25
             443.00,180.25 458.31,144.50 458.31,144.50
             458.31,144.50 475.31,152.00 475.31,152.00
             475.31,152.00 473.00,157.00 473.00,157.00
             473.00,157.00 460.56,151.31 460.56,151.31
             460.56,151.31 456.56,161.25 456.56,161.25
             456.56,161.25 468.62,167.06 468.62,167.06
             468.62,167.06 466.19,171.38 466.19,171.38
             466.19,171.38 454.19,166.56 454.19,166.56
             454.19,166.56 449.81,176.88 449.81,176.88
             449.81,176.88 462.44,182.88 462.44,182.88
             462.44,182.88 460.00,187.81 460.00,187.81 Z
           M 282.00,179.00
           C 285.29,178.18 290.79,176.61 291.67,172.79
             292.67,168.45 286.88,154.06 282.90,152.06
             279.64,150.43 275.11,152.77 272.00,154.00
             272.00,154.00 282.00,179.00 282.00,179.00 Z
           M 230.00,170.00
           C 230.00,170.00 246.00,161.00 246.00,161.00
             246.97,163.50 248.30,165.96 248.30,165.96
             248.30,165.96 236.74,173.04 236.74,173.04
             236.74,173.04 242.26,181.43 242.26,181.43
             242.26,181.43 254.00,175.00 254.00,175.00
             254.00,175.00 256.22,180.65 256.22,180.65
             256.22,180.65 245.57,186.09 245.57,186.09
             245.57,186.09 251.91,196.09 251.91,196.09
             251.91,196.09 264.00,189.00 264.00,189.00
             264.00,189.00 266.30,194.70 266.30,194.70
             266.30,194.70 250.96,203.30 250.96,203.30
             250.96,203.30 232.47,176.70 230.00,170.00 Z
           M 478.00,197.31
           C 478.00,197.31 474.19,195.81 474.19,195.81
             474.19,195.81 495.06,162.00 495.06,162.00
             495.06,162.00 498.69,164.50 498.69,164.50
             498.69,164.50 491.77,175.69 490.00,178.00
             492.20,179.07 501.12,184.50 501.12,184.50
             501.12,184.50 507.32,174.75 509.00,172.00
             509.00,172.00 513.00,173.00 513.00,173.00
             513.00,173.00 492.56,206.31 492.56,206.31
             492.56,206.31 488.69,204.00 488.69,204.00
             488.69,204.00 494.49,195.57 497.00,189.00
             497.00,189.00 486.50,182.62 486.50,182.62
             485.37,185.58 478.00,197.31 478.00,197.31 Z
           M 263.00,182.00
           C 262.23,179.78 261.06,176.94 261.06,176.94
             261.06,176.94 269.25,173.44 269.25,173.44
             269.25,173.44 271.06,178.38 271.06,178.38
             271.06,178.38 263.00,182.00 263.00,182.00 Z
           M 470.62,173.75
           C 470.62,173.75 478.62,178.06 478.62,178.06
             478.62,178.06 476.25,182.31 476.25,182.31
             476.25,182.31 468.00,177.00 468.00,177.00
             468.00,177.00 470.62,173.75 470.62,173.75 Z
           M 223.52,174.91
           C 223.52,174.91 227.52,179.35 227.52,179.35
             227.52,179.35 221.39,184.57 221.39,184.57
             221.39,184.57 241.57,210.17 241.57,210.17
             241.57,210.17 237.87,213.09 237.87,213.09
             237.87,213.09 216.87,187.91 216.87,187.91
             216.87,187.91 211.48,192.70 211.48,192.70
             211.48,192.70 207.26,187.74 207.26,187.74
             207.26,187.74 223.52,174.91 223.52,174.91 Z
           M 497.94,211.69
           C 497.94,211.69 494.44,209.06 494.44,209.06
             494.44,209.06 513.29,194.69 520.00,189.85
             522.24,188.23 528.67,182.97 530.27,188.23
             531.06,190.83 527.62,196.60 526.36,199.00
             526.36,199.00 513.12,224.69 513.12,224.69
             513.12,224.69 509.69,221.00 509.69,221.00
             509.69,221.00 513.44,212.94 513.44,212.94
             513.44,212.94 506.00,205.94 506.00,205.94
             506.00,205.94 497.94,211.69 497.94,211.69 Z
           M 523.00,194.00
           C 523.00,194.00 511.00,203.00 511.00,203.00
             511.00,203.00 517.00,207.00 517.00,207.00
             517.00,207.00 523.00,194.00 523.00,194.00 Z
           M 195.75,199.12
           C 195.75,199.12 230.75,219.75 230.75,219.75
             230.75,219.75 227.12,222.12 227.12,222.12
             227.12,222.12 218.50,217.62 218.50,217.62
             218.50,217.62 211.75,224.88 211.75,224.88
             211.75,224.88 216.75,233.88 216.75,233.88
             216.75,233.88 213.12,237.00 213.12,237.00
             213.12,237.00 191.88,203.00 191.88,203.00
             191.88,203.00 195.75,199.12 195.75,199.12 Z
           M 200.38,206.88
           C 201.59,210.59 205.70,217.13 209.00,220.00
             209.00,220.00 213.00,214.00 213.00,214.00
             213.00,214.00 200.38,206.88 200.38,206.88 Z
           M 199.00,255.62
           C 199.00,255.62 167.38,231.12 167.38,231.12
             167.69,229.65 176.24,219.71 179.04,218.83
             185.61,216.77 192.58,224.33 194.00,230.00
             200.51,230.69 208.83,235.01 211.88,240.88
             210.57,241.09 208.00,242.62 208.00,242.62
             208.00,242.62 197.76,230.04 191.38,237.62
             191.38,237.62 188.88,241.88 188.88,241.88
             188.88,241.88 202.12,252.00 202.12,252.00
             202.12,252.00 199.00,255.62 199.00,255.62 Z
           M 181.33,224.59
           C 172.03,229.24 178.99,237.88 183.83,237.10
             189.20,236.24 192.82,224.39 181.33,224.59 Z
           M 562.00,224.74
           C 567.86,225.45 573.11,231.99 570.96,237.96
             570.31,239.75 565.44,244.12 565.44,244.12
             565.44,244.12 562.94,241.19 562.94,241.19
             562.94,241.19 567.84,235.20 564.75,232.19
             562.62,229.93 558.60,229.52 556.56,231.56
             553.16,235.31 558.02,240.40 558.51,245.00
             559.15,251.10 550.59,257.45 545.00,257.68
             538.74,257.94 532.95,249.86 535.05,244.00
             535.83,241.81 541.81,235.94 541.81,235.94
             541.81,235.94 544.12,240.50 544.12,240.50
             544.12,240.50 538.50,244.38 541.94,249.62
             544.37,252.48 548.16,252.38 550.66,249.60
             554.41,245.42 549.39,241.32 548.85,237.00
             547.96,230.02 556.36,225.82 562.00,224.74 Z
           M 258.09,234.00
           C 258.09,234.00 261.00,234.00 261.00,234.00
             261.00,234.00 260.91,265.96 260.91,265.96
             260.91,265.96 258.00,266.00 258.00,266.00
             258.00,266.00 258.09,234.00 258.09,234.00 Z
           M 267.00,266.00
           C 267.00,266.00 267.09,233.91 267.09,233.91
             267.09,233.91 271.73,234.09 271.73,234.09
             271.73,234.09 279.57,257.83 279.57,257.83
             279.57,257.83 280.00,234.00 280.00,234.00
             280.00,234.00 283.09,233.87 283.09,233.87
             283.09,233.87 283.00,266.00 283.00,266.00
             283.00,266.00 278.65,266.09 278.65,266.09
             278.65,266.09 270.13,243.22 270.13,243.22
             270.13,243.22 270.00,260.25 270.00,266.00
             270.00,266.00 267.00,266.00 267.00,266.00 Z
           M 292.00,239.00
           C 291.37,238.95 286.94,239.00 286.94,239.00
             286.94,239.00 287.00,234.38 287.00,234.38
             287.00,234.38 300.75,234.25 300.75,234.25
             300.75,234.25 300.94,239.00 300.94,239.00
             300.94,239.00 295.12,239.06 295.12,239.06
             295.12,239.06 295.00,266.00 295.00,266.00
             295.00,266.00 292.00,266.00 292.00,266.00
             292.00,266.00 292.00,239.00 292.00,239.00 Z
           M 304.00,265.91
           C 304.00,265.91 304.00,234.18 304.00,234.18
             304.00,234.18 317.09,234.17 317.09,234.17
             317.09,234.17 317.00,238.87 317.00,238.87
             317.00,238.87 308.22,239.04 308.22,239.04
             308.22,239.04 308.30,247.78 308.30,247.78
             308.30,247.78 317.00,248.00 317.00,248.00
             317.00,248.00 316.87,251.91 316.87,251.91
             316.87,251.91 308.00,251.91 308.00,251.91
             308.00,251.91 307.91,260.83 307.91,260.83
             307.91,260.83 316.83,261.04 316.83,261.04
             316.83,261.04 316.87,266.00 316.87,266.00
             316.87,266.00 304.00,265.91 304.00,265.91 Z
           M 324.61,265.83
           C 324.61,265.83 321.13,265.87 321.13,265.87
             321.13,265.87 321.09,234.13 321.09,234.13
             321.09,234.13 332.43,233.40 334.65,236.70
             337.26,241.70 335.32,247.28 333.91,250.09
             336.09,255.27 335.45,266.00 335.45,266.00
             335.45,266.00 332.48,266.04 332.48,266.04
             332.70,265.57 332.82,252.41 331.09,253.09
             331.09,253.09 324.09,253.22 324.09,253.22
             324.09,253.22 324.61,265.83 324.61,265.83 Z
           M 339.88,234.00
           C 339.88,234.00 344.26,234.04 344.26,234.04
             344.26,234.04 351.57,257.61 351.57,257.61
             351.57,257.61 352.00,234.00 352.00,234.00
             352.00,234.00 355.00,233.91 355.00,233.91
             355.00,233.91 355.00,265.87 355.00,265.87
             355.00,265.87 350.70,265.87 350.70,265.87
             350.70,265.87 343.26,243.00 343.26,243.00
             343.26,243.00 343.17,266.13 343.17,266.13
             343.17,266.13 339.88,266.00 339.88,266.00
             339.88,266.00 339.88,234.00 339.88,234.00 Z
           M 358.57,266.04
           C 358.57,266.04 366.30,234.13 366.30,234.13
             366.30,234.13 369.61,234.26 369.61,234.26
             369.61,234.26 377.22,266.04 377.22,266.04
             377.22,266.04 372.96,265.91 372.96,265.91
             372.96,265.91 371.35,258.30 371.35,258.30
             371.35,258.30 366.47,258.06 364.00,258.00
             364.00,258.00 362.65,266.04 362.65,266.04
             362.65,266.04 358.57,266.04 358.57,266.04 Z
           M 385.00,239.00
           C 384.09,238.92 379.12,238.88 379.12,238.88
             379.12,238.88 379.25,234.06 379.25,234.06
             379.25,234.06 394.31,234.69 394.31,234.69
             394.31,234.69 393.94,239.00 393.94,239.00
             393.94,239.00 388.38,239.06 388.38,239.06
             388.38,239.06 388.19,266.12 388.19,266.12
             388.19,266.12 385.00,266.00 385.00,266.00
             385.00,266.00 385.00,239.00 385.00,239.00 Z
           M 398.00,234.50
           C 398.24,234.83 400.94,234.56 400.94,234.56
             400.94,234.56 401.19,265.69 401.19,265.69
             401.19,265.69 398.06,265.62 398.06,265.62
             398.06,265.62 398.00,234.50 398.00,234.50 Z
           M 411.11,234.74
           C 424.47,231.50 422.11,246.46 422.00,255.00
             421.94,258.89 421.74,262.83 417.89,264.98
             413.15,267.61 408.45,264.86 406.94,259.98
             405.46,255.21 405.35,241.43 408.14,237.23
             409.27,235.52 409.58,235.70 411.11,234.74 Z
           M 427.00,266.00
           C 427.00,266.00 427.06,234.56 427.06,234.56
             427.06,234.56 431.62,234.56 431.62,234.56
             431.62,234.56 438.69,255.06 438.69,255.06
             438.69,255.06 439.31,234.38 439.31,234.38
             439.31,234.38 442.94,234.31 442.94,234.31
             442.94,234.31 443.00,265.75 443.00,265.75
             443.00,265.75 438.31,265.69 438.31,265.69
             438.31,265.69 430.31,242.00 430.31,242.00
             430.31,242.00 430.06,266.06 430.06,266.06
             430.06,266.06 427.00,266.00 427.00,266.00 Z
           M 453.38,234.12
           C 453.38,234.12 457.06,234.12 457.06,234.12
             457.06,234.12 464.00,266.06 464.00,266.06
             464.00,266.06 460.31,266.00 460.31,266.00
             460.31,266.00 459.00,258.00 459.00,258.00
             456.24,258.10 452.00,258.06 452.00,258.06
             452.00,258.06 450.44,266.12 450.44,266.12
             450.44,266.12 446.56,266.19 446.56,266.19
             446.56,266.19 453.38,234.12 453.38,234.12 Z
           M 468.06,233.94
           C 468.06,233.94 471.19,233.75 471.19,233.75
             471.19,233.75 471.31,261.06 471.31,261.06
             471.31,261.06 480.50,261.06 480.50,261.06
             480.50,261.06 480.38,266.25 480.38,266.25
             480.38,266.25 468.00,266.12 468.00,266.12
             468.00,266.12 468.06,233.94 468.06,233.94 Z
           M 332.00,248.00
           C 333.01,240.16 331.58,239.10 324.00,239.00
             324.01,248.40 323.91,248.97 332.00,248.00 Z
           M 413.13,239.66
           C 412.65,239.98 411.96,239.92 411.02,241.31
             409.68,243.32 409.73,253.39 410.15,255.98
             410.62,258.92 412.55,261.47 415.86,260.34
             419.28,259.18 418.98,254.90 419.00,252.00
             419.03,246.87 420.35,239.12 413.13,239.66 Z
           M 368.00,242.00
           C 368.00,242.00 365.00,253.00 365.00,253.00
             365.00,253.00 370.00,253.00 370.00,253.00
             370.00,253.00 368.00,242.00 368.00,242.00 Z
           M 455.44,243.31
           C 455.44,243.31 453.00,253.00 453.00,253.00
             453.00,253.00 458.00,253.00 458.00,253.00
             458.00,253.00 455.44,243.31 455.44,243.31 Z
           M 196.00,257.00
           C 196.00,257.00 194.00,262.12 194.00,262.12
             194.00,262.12 185.00,260.25 185.00,260.25
             185.00,260.25 180.00,268.25 180.00,268.25
             180.00,268.25 186.38,274.62 186.38,274.62
             186.38,274.62 183.38,277.62 183.38,277.62
             183.38,277.62 160.06,256.00 160.06,256.00
             158.44,254.22 154.94,250.32 157.76,248.01
             159.96,246.20 165.54,248.57 168.00,249.26
             168.00,249.26 196.00,257.00 196.00,257.00 Z
           M 546.88,268.62
           C 546.88,268.62 545.81,264.38 545.81,264.38
             545.81,264.38 580.88,246.88 580.88,246.88
             580.88,246.88 581.31,250.56 581.31,250.56
             581.31,250.56 568.62,257.19 568.62,257.19
             568.62,257.19 574.50,268.56 574.50,268.56
             574.50,268.56 588.69,261.75 588.69,261.75
             588.69,261.75 589.81,266.00 589.81,266.00
             589.81,266.00 555.69,283.94 555.69,283.94
             555.69,283.94 554.94,279.62 554.94,279.62
             554.94,279.62 564.83,273.86 569.00,272.00
             569.00,272.00 563.62,260.56 563.62,260.56
             563.62,260.56 546.88,268.62 546.88,268.62 Z
           M 166.00,253.00
           C 167.20,257.54 172.28,261.34 176.00,264.00
             176.00,264.00 179.00,257.00 179.00,257.00
             179.00,257.00 166.00,253.00 166.00,253.00 Z
           M 148.12,266.50
           C 148.12,266.50 160.75,284.00 160.75,284.00
             160.75,284.00 178.24,281.22 183.00,281.00
             183.00,281.00 182.62,285.50 182.62,285.50
             182.62,285.50 161.25,289.12 161.25,289.12
             164.48,290.00 176.00,296.38 176.00,296.38
             176.00,296.38 174.75,300.00 174.75,300.00
             174.75,300.00 147.60,288.70 139.00,285.00
             139.68,283.86 141.38,281.00 141.38,281.00
             141.38,281.00 153.05,285.82 156.00,287.00
             156.00,287.00 146.11,271.00 146.11,271.00
             146.11,271.00 148.12,266.50 148.12,266.50 Z
           M 595.19,273.62
           C 595.19,273.62 596.00,278.00 596.00,278.00
             596.00,278.00 560.25,293.50 560.25,293.50
             560.25,293.50 558.69,289.00 558.69,289.00
             558.69,289.00 595.19,273.62 595.19,273.62 Z
           M 596.06,294.12
           C 595.79,292.57 594.31,287.06 594.31,287.06
             594.31,287.06 599.94,285.19 599.94,285.19
             599.94,285.19 606.38,304.31 606.38,304.31
             606.38,304.31 600.38,305.88 600.38,305.88
             600.38,305.88 598.31,298.62 598.31,298.62
             598.31,298.62 566.00,309.00 566.00,309.00
             566.00,309.00 565.00,305.00 565.00,305.00
             565.00,305.00 596.06,294.12 596.06,294.12 Z
           M 157.25,299.00
           C 157.25,299.00 161.91,300.04 162.25,300.62
             162.25,300.62 160.00,308.00 160.00,308.00
             160.00,308.00 154.38,307.00 154.38,307.00
             154.38,307.00 157.25,299.00 157.25,299.00 Z
           M 130.12,310.62
           C 130.12,310.62 132.25,306.12 132.25,306.12
             132.25,306.12 170.00,316.00 170.00,316.00
             168.02,323.37 168.75,321.75 168.75,321.75
             168.75,321.75 136.38,325.50 136.38,325.50
             136.38,325.50 166.00,333.00 166.00,333.00
             166.00,333.00 165.75,335.88 165.75,335.88
             165.75,335.88 133.12,330.45 126.00,327.00
             126.85,325.03 129.38,321.38 129.38,321.38
             129.38,321.38 160.50,318.50 160.50,318.50
             160.50,318.50 130.12,310.62 130.12,310.62 Z
           M 593.00,314.44
           C 596.40,314.00 602.92,313.41 605.96,315.02
             611.31,317.87 613.64,326.03 609.57,330.79
             605.56,335.48 594.99,337.63 589.00,338.56
             585.63,339.09 579.10,339.51 576.11,337.83
             571.07,335.00 569.62,325.70 573.51,321.39
             577.04,317.48 587.81,315.40 593.00,314.44 Z
           M 598.00,318.47
           C 594.08,318.80 581.99,321.03 579.35,323.56
             576.33,326.46 577.24,334.43 585.00,334.39
             588.36,334.37 600.17,331.84 602.69,329.91
             605.89,327.47 606.75,319.49 598.00,318.47 Z
           M 161.88,359.62
           C 161.88,359.62 161.70,362.26 162.00,364.00
             156.26,363.41 122.62,353.00 122.75,348.00
             126.12,343.38 164.00,340.00 164.00,340.00
             163.67,341.90 163.25,344.62 163.25,344.62
             163.25,344.62 154.00,346.00 154.00,346.00
             154.00,346.00 152.88,357.38 152.88,357.38
             156.62,357.97 161.88,359.62 161.88,359.62 Z
           M 587.36,352.36
           C 587.36,352.36 587.01,346.65 587.00,343.00
             589.85,343.24 592.82,343.09 592.82,343.09
             592.82,343.09 592.99,348.52 593.00,352.00
             590.34,351.78 587.36,352.36 587.36,352.36 Z
           M 148.00,347.00
           C 148.00,347.00 133.00,350.00 133.00,350.00
             133.00,350.00 147.00,354.00 147.00,354.00
             147.00,354.00 148.00,347.00 148.00,347.00 Z
           M 576.09,361.64
           C 576.09,361.64 576.38,359.07 576.00,356.81
             576.00,356.81 612.32,354.98 615.45,356.73
             615.45,356.73 618.11,372.21 611.94,375.51
             601.91,379.91 598.59,374.35 595.73,374.27
             595.78,374.27 593.52,377.07 576.73,377.55
             576.95,376.31 577.09,373.45 577.09,373.45
             581.73,373.45 597.37,375.13 592.55,361.82
             592.55,361.82 576.09,361.64 576.09,361.64 Z
           M 610.00,361.00
           C 610.00,361.00 599.00,361.00 599.00,361.00
             599.00,363.28 598.64,368.66 600.02,370.40
             601.91,372.79 608.02,372.37 609.43,369.57
             610.21,368.01 610.00,362.94 610.00,361.00 Z
           M 122.00,388.00
           C 122.00,384.07 121.40,374.21 123.17,371.13
             126.22,365.84 140.60,365.50 144.69,369.43
             148.54,373.15 146.75,383.38 146.75,383.38
             146.75,383.38 161.50,383.50 161.50,383.50
             161.50,383.50 161.38,387.62 161.38,387.62
             161.38,387.62 122.00,388.00 122.00,388.00 Z
           M 133.02,371.36
           C 125.42,373.70 127.96,381.68 129.60,382.98
             131.16,384.21 136.90,384.27 138.77,383.71
             142.48,382.58 141.76,375.96 139.98,373.43
             138.25,370.98 135.63,371.19 133.02,371.36 Z
           M 576.00,390.00
           C 576.00,390.00 594.09,390.82 594.09,390.82
             594.09,390.82 616.00,384.00 616.00,384.00
             615.75,385.42 615.45,388.55 615.45,388.55
             615.45,388.55 604.08,391.45 598.73,393.73
             602.18,395.36 615.27,401.73 615.27,401.73
             615.27,401.73 614.29,405.62 614.14,407.00
             614.14,407.00 592.18,395.64 592.18,395.64
             592.18,395.64 576.00,394.00 576.00,394.00
             576.00,394.00 576.00,390.00 576.00,390.00 Z
           M 155.12,410.00
           C 155.12,410.00 164.50,410.62 164.50,410.62
             164.50,410.62 165.00,415.00 165.00,415.00
             165.00,415.00 124.75,410.50 124.75,410.50
             124.75,410.50 124.88,405.38 124.88,405.38
             124.88,405.38 161.75,390.88 161.75,390.88
             161.75,390.88 162.00,396.62 162.00,396.62
             162.00,396.62 154.12,399.00 154.12,399.00
             154.12,399.00 155.12,410.00 155.12,410.00 Z
           M 148.00,402.00
           C 143.15,402.88 137.00,405.11 133.00,408.00
             133.00,408.00 149.00,409.00 149.00,409.00
             149.00,409.00 148.00,402.00 148.00,402.00 Z
           M 608.00,436.00
           C 608.00,436.00 590.00,432.12 590.00,432.12
             590.00,432.12 578.18,429.27 578.18,429.27
             570.59,426.35 568.18,415.38 575.45,409.91
             581.30,405.52 613.36,415.18 613.36,415.18
             613.36,415.18 612.36,418.64 612.36,418.64
             612.36,418.64 589.00,414.01 589.00,414.01
             586.87,413.80 584.22,413.12 582.10,414.01
             578.04,415.18 576.25,420.35 579.51,423.52
             583.04,426.96 609.09,431.55 609.09,431.55
             609.09,431.55 608.00,436.00 608.00,436.00 Z
           M 128.00,429.00
           C 132.81,426.66 148.61,422.56 154.25,421.38
             157.03,420.79 161.27,420.11 163.90,421.09
             168.88,422.96 170.43,430.75 167.40,434.79
             164.87,438.17 156.00,440.25 156.00,440.25
             156.00,440.25 155.00,436.00 155.00,436.00
             155.00,436.00 163.50,434.54 163.50,430.25
             163.50,426.10 158.08,425.31 155.00,425.92
             146.84,427.52 128.50,432.50 128.50,432.50
             128.50,432.50 128.00,429.00 128.00,429.00 Z
           M 298.50,487.25
           C 298.87,487.72 300.50,487.38 300.50,487.38
             300.50,487.38 300.75,492.88 300.75,492.88
             300.75,492.88 303.69,492.62 306.00,493.00
             306.00,493.00 306.00,487.00 306.00,487.00
             306.00,487.00 308.19,486.94 308.19,486.94
             308.19,486.94 308.31,493.00 308.31,493.00
             308.31,493.00 312.81,493.00 312.81,493.00
             312.81,493.00 312.81,495.19 312.81,495.19
             312.81,495.19 308.44,495.19 308.44,495.19
             308.23,497.60 308.31,500.50 308.31,500.50
             308.31,500.50 312.44,501.05 315.00,502.00
             315.00,502.00 314.62,504.88 314.62,504.88
             314.76,504.42 308.39,502.69 308.00,504.00
             308.32,506.65 308.50,512.25 308.50,512.25
             308.50,512.25 307.10,511.24 306.00,512.00
             306.00,512.00 306.00,503.00 306.00,503.00
             302.98,503.25 299.75,503.88 299.75,503.88
             299.95,503.84 296.90,511.39 295.62,511.62
             295.62,511.62 293.14,511.74 292.00,512.00
             292.26,512.60 297.54,505.23 297.00,504.00
             296.06,504.14 292.25,505.00 292.25,505.00
             292.25,505.00 291.27,503.43 290.62,503.00
             294.00,501.62 298.17,500.28 298.00,500.38
             298.00,500.38 298.00,496.00 298.00,496.00
             298.00,496.00 293.00,496.00 293.00,496.00
             293.00,496.00 293.00,493.00 293.00,493.00
             293.00,493.00 298.25,493.12 298.25,493.12
             298.25,493.12 298.50,487.25 298.50,487.25 Z
           M 381.18,498.00
           C 381.18,498.00 377.82,493.36 377.82,493.36
             377.82,493.36 387.55,486.64 387.55,486.64
             387.55,486.64 388.00,489.91 388.00,489.91
             388.00,489.91 382.18,493.27 382.18,493.27
             382.18,493.27 382.73,496.45 382.73,496.45
             382.73,496.45 392.36,490.82 392.36,490.82
             392.36,490.82 393.45,493.09 393.45,493.09
             393.45,493.09 381.82,501.82 381.82,501.82
             381.82,501.82 391.00,502.00 391.00,502.00
             391.00,502.00 390.91,499.09 390.91,499.09
             390.91,499.09 392.55,499.00 392.55,499.00
             392.55,499.00 394.55,504.00 394.55,504.00
             394.55,504.00 387.27,504.45 387.27,504.45
             387.27,504.45 387.14,508.15 387.00,512.00
             387.00,512.00 385.09,511.91 385.09,511.91
             385.09,511.91 384.55,504.18 384.55,504.18
             384.55,504.18 379.62,504.37 376.09,504.45
             376.09,504.45 381.18,498.00 381.18,498.00 Z
           M 412.09,489.64
           C 412.09,489.64 412.36,487.18 412.36,487.18
             412.36,487.18 414.55,487.27 414.55,487.27
             414.55,487.27 414.64,489.64 414.64,489.64
             414.64,489.64 420.85,489.99 424.00,490.00
             424.00,490.00 424.00,492.00 424.00,492.00
             424.00,492.00 415.00,492.00 415.00,492.00
             415.00,492.00 415.18,494.36 415.18,494.36
             415.18,494.36 421.75,494.44 421.75,494.44
             421.75,494.44 421.00,504.00 421.00,504.00
             421.00,504.00 416.00,504.00 416.00,504.00
             414.98,506.93 424.93,509.34 425.00,509.35
             425.00,509.35 424.30,512.52 424.30,512.52
             424.30,512.52 414.39,506.87 414.39,506.87
             414.39,506.87 414.30,511.96 414.30,511.96
             414.30,511.96 412.00,512.00 412.00,512.00
             412.00,512.00 412.00,507.00 412.00,507.00
             412.00,507.00 402.00,512.00 402.00,512.00
             402.00,512.00 401.00,509.00 401.00,509.00
             405.90,508.10 409.92,507.47 410.00,504.00
             410.00,504.00 405.00,504.00 405.00,504.00
             405.00,504.00 404.25,494.81 404.25,494.81
             404.25,494.81 411.82,494.64 411.82,494.64
             411.82,494.64 412.00,492.00 412.00,492.00
             412.00,492.00 402.36,491.82 402.36,491.82
             402.36,491.82 402.09,489.91 402.09,489.91
             402.09,489.91 412.09,489.64 412.09,489.64 Z
           M 329.73,488.09
           C 329.73,488.09 332.00,488.00 332.00,488.00
             332.00,488.00 332.00,495.00 332.00,495.00
             332.00,495.00 339.45,495.09 339.45,495.09
             339.45,495.09 339.55,497.91 339.55,497.91
             339.55,497.91 334.80,497.96 332.00,498.00
             332.00,498.00 332.00,506.00 332.00,506.00
             332.00,506.00 343.18,507.64 343.18,507.64
             343.18,507.64 343.00,511.00 343.00,511.00
             335.27,508.85 326.03,507.88 319.18,510.73
             319.18,510.73 319.00,507.91 319.00,507.91
             321.88,506.71 325.63,506.40 329.45,505.64
             329.45,505.64 329.73,488.09 329.73,488.09 Z
           M 348.36,488.73
           C 348.36,488.73 352.27,493.64 352.27,493.64
             349.45,493.16 349.95,494.05 346.55,490.45
             346.55,490.45 348.36,488.73 348.36,488.73 Z
           M 355.00,490.00
           C 355.00,490.00 368.64,489.36 368.64,489.36
             368.13,490.12 369.09,491.55 369.09,491.55
             369.09,491.55 360.32,491.90 356.82,492.36
             356.18,501.18 356.53,502.28 354.00,510.00
             354.00,510.00 352.09,509.55 352.09,509.55
             352.09,509.55 351.64,506.36 351.64,506.36
             355.27,502.55 355.00,495.50 355.00,490.00 Z
           M 430.81,488.69
           C 430.81,488.69 434.88,492.00 434.88,492.00
             434.88,492.00 435.00,494.00 435.00,494.00
             435.00,494.00 429.94,492.19 429.94,492.19
             429.94,492.19 430.81,488.69 430.81,488.69 Z
           M 443.00,492.06
           C 443.00,492.06 443.00,489.00 443.00,489.00
             443.00,489.00 446.00,489.00 446.00,489.00
             446.00,489.00 446.12,492.06 446.12,492.06
             446.12,492.06 453.00,492.12 453.00,492.12
             453.00,492.12 453.19,493.88 453.19,493.88
             453.19,493.88 449.81,494.25 449.81,494.25
             449.81,494.25 451.75,499.94 451.75,499.94
             451.75,499.94 438.56,500.12 438.56,500.12
             438.56,500.12 440.31,494.88 440.31,494.88
             440.31,494.88 437.25,494.88 437.25,494.88
             437.25,494.88 437.12,491.94 437.12,491.94
             437.12,491.94 443.00,492.06 443.00,492.06 Z
           M 358.73,496.36
           C 358.73,496.36 369.55,494.09 369.55,494.09
             369.55,494.09 369.45,496.45 369.45,496.45
             369.45,496.45 364.13,497.84 361.00,498.00
             361.00,498.00 361.00,511.00 361.00,511.00
             361.00,511.00 359.00,511.00 359.00,511.00
             359.00,511.00 358.73,496.36 358.73,496.36 Z
           M 448.00,498.00
           C 447.66,497.19 447.75,495.06 447.75,495.06
             447.75,495.06 442.94,494.88 442.94,494.88
             442.94,494.88 441.88,497.88 441.88,497.88
             441.88,497.88 448.00,498.00 448.00,498.00 Z
           M 305.88,495.75
           C 305.88,495.75 301.00,496.00 301.00,496.00
             301.00,496.00 301.00,500.00 301.00,500.00
             301.00,500.00 305.88,499.88 305.88,499.88
             305.88,499.88 305.88,495.75 305.88,495.75 Z
           M 412.00,498.96
           C 412.00,498.96 412.00,496.00 412.00,496.00
             412.00,496.00 407.04,495.96 407.04,495.96
             407.04,495.96 407.04,499.00 407.04,499.00
             407.04,499.00 412.00,498.96 412.00,498.96 Z
           M 419.00,496.00
           C 419.00,496.00 415.00,496.00 415.00,496.00
             415.00,496.00 414.88,498.38 414.88,498.38
             414.88,498.38 418.94,498.31 418.94,498.31
             418.94,498.31 419.00,496.00 419.00,496.00 Z
           M 346.00,499.00
           C 346.00,499.00 350.91,499.00 350.91,499.00
             350.91,499.00 350.91,500.45 350.91,500.45
             350.91,500.45 346.00,501.18 346.00,501.18
             346.00,501.18 346.00,499.00 346.00,499.00 Z
           M 433.62,498.75
           C 433.62,498.75 433.62,500.62 433.62,500.62
             433.62,500.62 429.62,502.00 429.62,502.00
             429.62,502.00 428.81,498.62 428.81,498.62
             428.81,498.62 433.62,498.75 433.62,498.75 Z
           M 363.00,501.00
           C 363.00,501.00 369.00,499.00 369.00,499.00
             369.00,499.00 369.00,501.00 369.00,501.00
             369.00,501.00 365.73,502.36 365.73,502.36
             367.00,505.28 370.27,509.18 370.27,509.18
             370.27,509.18 368.80,510.71 368.00,512.00
             368.00,512.00 363.00,501.00 363.00,501.00 Z
           M 414.91,502.00
           C 414.91,502.00 418.91,501.87 418.91,501.87
             418.91,501.87 418.87,499.96 418.87,499.96
             418.87,499.96 415.00,500.00 415.00,500.00
             415.00,500.00 414.91,502.00 414.91,502.00 Z
           M 450.88,511.94
           C 450.88,511.94 448.69,503.44 448.69,503.44
             448.69,503.44 450.50,503.25 450.50,503.25
             450.50,503.25 452.89,509.19 453.19,512.06
             453.19,512.06 450.88,511.94 450.88,511.94 Z
           M 439.00,503.00
           C 439.00,503.00 441.00,503.00 441.00,503.00
             440.40,506.18 437.81,512.06 437.81,512.06
             437.81,512.06 436.34,511.53 435.00,512.00
             435.51,512.08 440.03,503.17 439.00,503.00 Z
           M 444.00,503.00
           C 444.00,503.00 445.44,503.00 445.44,503.00
             445.44,503.00 445.38,512.06 445.38,512.06
             445.38,512.06 444.00,512.00 444.00,512.00
             444.00,512.00 444.00,503.00 444.00,503.00 Z
           M 432.00,505.00
           C 432.00,505.00 434.00,505.00 434.00,505.00
             434.00,505.00 432.56,511.75 432.56,511.75
             432.56,511.75 431.00,512.00 431.00,512.00
             431.00,512.00 432.00,505.00 432.00,505.00 Z
           M 378.55,507.27
           C 378.55,507.27 380.00,507.00 380.00,507.00
             377.86,512.02 377.77,512.51 374.00,512.00
             374.00,512.00 378.55,507.27 378.55,507.27 Z
           M 391.45,507.73
           C 391.75,507.80 392.64,507.00 392.64,507.00
             392.64,507.00 396.81,509.29 397.45,511.18
             394.45,512.45 394.45,513.09 391.45,507.73 Z
           M 325.76,523.00
           C 325.76,523.00 331.83,523.04 335.91,522.87
             336.30,521.91 336.13,520.65 337.48,519.96
             338.61,521.35 340.73,520.75 341.35,521.00
             341.38,521.35 341.56,522.58 341.87,522.83
             343.70,523.61 350.39,523.03 353.00,523.00
             353.00,523.00 353.00,525.00 353.00,525.00
             353.00,525.00 344.00,525.00 344.00,525.00
             344.00,525.00 344.00,527.17 344.00,527.17
             347.03,527.21 352.00,527.43 352.00,527.43
             352.00,527.43 351.78,532.04 351.78,532.04
             351.78,532.04 337.00,532.04 337.00,532.04
             337.00,532.04 328.17,532.09 328.17,532.09
             328.17,532.09 328.00,535.00 328.00,535.00
             328.00,535.00 354.00,535.00 354.00,535.00
             353.22,543.87 345.35,540.83 345.00,549.00
             345.00,549.00 354.00,550.00 354.00,550.00
             350.44,556.07 354.26,553.26 342.39,550.22
             342.39,550.22 332.57,554.00 332.57,554.00
             332.30,550.43 334.53,550.77 338.00,550.00
             338.00,550.00 338.13,547.83 338.13,547.83
             338.13,547.83 326.00,548.00 326.00,548.00
             324.87,550.35 326.57,551.39 322.00,551.00
             322.52,543.96 325.48,545.74 325.76,539.00
             325.76,539.00 325.76,523.00 325.76,523.00 Z
           M 393.38,535.19
           C 394.31,527.62 395.89,531.97 403.19,527.00
             405.36,525.52 406.46,522.05 409.31,522.50
             410.95,522.76 418.91,528.26 425.00,530.00
             425.00,530.00 423.31,535.69 423.31,535.69
             423.31,535.69 418.12,533.12 418.12,533.12
             418.00,536.00 418.06,534.81 409.94,535.06
             405.00,534.69 403.69,534.81 402.50,535.75
             397.99,535.55 402.88,532.62 393.38,535.19 Z
           M 334.87,524.87
           C 334.87,524.87 328.00,525.00 328.00,525.00
             328.00,525.00 328.13,531.09 328.13,531.09
             328.13,531.09 335.00,531.00 335.00,531.00
             335.00,531.00 335.00,529.00 335.00,529.00
             335.00,529.00 330.00,529.00 330.00,529.00
             330.00,529.00 330.00,527.00 330.00,527.00
             330.00,527.00 334.87,527.04 334.87,527.04
             334.87,527.04 334.87,524.87 334.87,524.87 Z
           M 341.83,526.87
           C 341.83,526.87 342.09,525.00 342.09,525.00
             342.09,525.00 337.09,525.04 337.09,525.04
             337.09,525.04 336.91,526.87 336.91,526.87
             336.91,526.87 341.83,526.87 341.83,526.87 Z
           M 377.00,524.00
           C 377.00,524.00 379.00,524.00 379.00,524.00
             379.00,524.00 380.00,525.00 380.00,525.00
             378.68,528.74 378.51,529.13 375.00,531.00
             375.00,531.00 377.00,524.00 377.00,524.00 Z
           M 415.75,531.94
           C 415.75,531.94 409.19,526.94 409.19,526.94
             409.19,526.94 403.75,532.00 403.75,532.00
             403.75,532.00 415.75,531.94 415.75,531.94 Z
           M 341.43,528.13
           C 341.43,528.13 337.00,528.09 337.00,528.09
             337.00,528.09 337.04,530.83 337.04,530.83
             337.04,530.83 341.43,530.83 341.43,530.83
             341.43,530.83 341.43,528.13 341.43,528.13 Z
           M 349.00,531.00
           C 349.00,531.00 348.87,528.57 348.87,528.57
             348.87,528.57 344.09,528.35 344.09,528.35
             344.09,528.35 344.37,530.46 344.00,531.00
             344.00,531.00 349.00,531.00 349.00,531.00 Z
           M 364.31,530.75
           C 364.31,530.75 366.00,531.00 366.00,531.00
             365.06,535.75 363.94,541.05 360.19,543.06
             360.19,543.06 358.75,543.31 357.31,542.75
             358.62,541.00 362.88,535.62 364.31,530.75 Z
           M 384.00,531.00
           C 384.00,531.00 386.00,531.00 386.00,531.00
             386.62,535.26 386.17,536.58 382.00,538.00
             382.00,538.00 384.00,531.00 384.00,531.00 Z
           M 339.83,538.09
           C 339.83,538.09 340.13,536.17 340.13,536.17
             340.13,536.17 328.22,536.65 328.22,536.65
             328.22,536.65 327.17,547.96 327.17,547.96
             332.45,545.82 333.65,544.62 337.00,540.00
             332.32,540.37 331.98,542.72 331.00,543.70
             331.00,543.70 329.54,544.30 328.74,543.96
             329.74,538.96 335.26,538.43 339.83,538.09 Z
           M 367.81,544.56
           C 367.41,545.16 366.04,544.53 365.75,544.75
             365.93,541.54 366.98,534.32 372.04,536.17
             374.11,536.92 378.35,541.74 380.44,543.31
             384.09,546.07 385.87,545.59 390.00,547.00
             385.65,558.68 375.89,541.08 370.69,539.56
             368.77,541.12 367.81,544.56 367.81,544.56 Z
           M 349.83,539.83
           C 350.33,539.54 350.78,536.87 350.78,536.87
             350.78,536.87 348.23,536.42 346.78,537.00
             345.83,537.38 346.04,539.96 346.04,539.96
             347.84,540.10 349.12,540.23 349.83,539.83 Z
           M 395.31,544.00
           C 395.38,542.56 395.40,541.27 396.62,540.25
             401.12,539.50 418.06,539.69 423.38,540.06
             423.31,540.94 423.00,542.69 423.00,542.69
             423.00,542.69 419.62,542.82 417.44,543.00
             417.44,543.00 419.00,552.00 419.00,552.00
             407.60,549.96 408.14,551.53 398.00,552.00
             398.00,552.00 402.19,543.00 402.19,543.00
             402.19,543.00 395.31,544.00 395.31,544.00 Z
           M 415.00,548.00
           C 414.37,546.29 414.42,544.46 413.44,543.56
             411.88,543.00 409.12,542.94 407.56,543.12
             406.13,543.83 405.31,546.19 403.88,547.88
             403.88,547.88 415.00,548.00 415.00,548.00 Z
           M 342.87,544.96
           C 342.85,544.55 340.40,543.80 338.52,544.09
             337.11,544.30 336.12,545.42 336.17,545.96
             337.91,545.78 341.96,548.70 342.87,544.96 Z
           M 493.00,544.00
           C 493.00,544.00 515.12,573.75 515.12,573.75
             515.12,573.75 511.25,577.38 511.25,577.38
             511.25,577.38 487.75,547.50 487.75,547.50
             487.75,547.50 493.00,544.00 493.00,544.00 Z
           M 233.44,581.25
           C 233.44,581.25 229.38,577.50 229.38,577.50
             229.38,577.50 249.50,545.56 249.50,545.56
             249.50,545.56 254.44,547.38 254.44,547.38
             254.44,547.38 245.50,562.94 245.50,562.94
             249.51,561.07 267.56,555.69 267.56,555.69
             267.56,555.69 271.62,559.44 271.62,559.44
             271.62,559.44 249.25,567.69 249.25,567.69
             249.25,567.69 252.31,591.69 252.31,591.69
             252.31,591.69 246.25,589.81 246.25,589.81
             246.25,589.81 243.75,566.06 243.75,566.06
             243.75,566.06 233.44,581.25 233.44,581.25 Z
           M 468.25,558.88
           C 468.25,558.88 474.50,555.88 474.50,555.88
             474.50,555.88 503.88,583.62 503.88,583.62
             503.88,583.62 498.75,586.25 498.75,586.25
             498.75,586.25 494.76,582.80 493.00,580.00
             493.00,580.00 480.00,586.00 480.00,586.00
             480.00,586.00 482.25,597.25 482.25,597.25
             482.25,597.25 477.00,599.00 477.00,599.00
             477.00,599.00 468.25,558.88 468.25,558.88 Z
           M 281.50,606.00
           C 275.85,604.48 260.00,596.62 260.00,596.62
             260.00,596.62 276.00,561.00 276.00,561.00
             276.00,561.00 296.62,570.00 296.62,570.00
             296.62,570.00 293.38,575.38 293.38,575.38
             293.38,575.38 278.00,568.00 278.00,568.00
             278.00,568.00 274.00,578.00 274.00,578.00
             274.00,578.00 289.00,584.00 289.00,584.00
             288.68,585.40 287.25,589.62 287.25,589.62
             287.25,589.62 274.03,584.29 271.00,583.00
             271.00,583.00 266.88,593.25 266.88,593.25
             266.88,593.25 284.00,601.00 284.00,601.00
             284.00,601.00 281.50,606.00 281.50,606.00 Z
           M 476.00,565.00
           C 476.00,565.00 478.00,580.00 478.00,580.00
             478.00,580.00 487.00,576.00 487.00,576.00
             487.00,576.00 476.00,565.00 476.00,565.00 Z
           M 443.12,589.00
           C 443.12,589.00 450.00,567.50 450.00,567.50
             450.00,567.50 456.12,566.62 456.12,566.62
             456.12,566.62 449.38,588.25 449.38,588.25
             449.38,588.25 470.50,602.12 470.50,602.12
             470.50,602.12 463.12,603.88 463.12,603.88
             463.12,603.88 444.00,592.00 444.00,592.00
             444.00,592.00 447.05,600.00 447.05,600.00
             447.94,602.38 450.12,608.38 450.12,608.38
             450.12,608.38 445.00,610.88 445.00,610.88
             445.00,610.88 432.12,574.75 432.12,574.75
             432.12,574.75 436.75,572.62 436.75,572.62
             436.75,572.62 443.12,589.00 443.12,589.00 Z
           M 301.88,571.38
           C 301.88,571.38 306.69,572.12 306.69,572.12
             306.69,572.12 294.50,610.56 294.50,610.56
             294.50,610.56 289.44,608.44 289.44,608.44
             289.44,608.44 301.88,571.38 301.88,571.38 Z
           M 306.62,600.00
           C 308.60,600.81 310.75,601.38 310.75,601.38
             310.75,601.38 310.14,606.03 313.25,608.50
             319.82,613.72 328.36,608.11 325.92,603.22
             323.19,597.76 308.67,599.58 309.39,588.00
             309.48,586.51 310.04,584.39 310.61,583.02
             311.44,581.02 312.56,579.29 314.33,578.01
             318.94,574.66 327.89,576.51 331.77,580.28
             334.11,582.54 334.38,592.12 334.38,592.12
             334.38,592.12 329.25,591.00 329.25,591.00
             331.38,584.50 319.25,577.62 315.50,585.62
             313.55,591.28 322.50,593.19 326.00,594.91
             332.57,598.17 333.74,604.47 330.99,610.98
             330.13,613.03 328.87,614.73 326.90,615.83
             321.83,618.64 310.27,616.48 307.09,610.90
             305.34,607.59 306.62,600.00 306.62,600.00 Z
           M 409.00,579.00
           C 409.00,579.00 414.38,578.62 414.38,578.62
             414.38,578.62 419.00,617.94 419.00,617.94
             419.00,617.94 412.25,618.75 412.25,618.75
             412.25,618.75 394.00,591.00 394.00,591.00
             394.00,591.00 397.50,620.75 397.50,620.75
             397.50,620.75 392.50,620.38 392.50,620.38
             392.50,620.38 387.88,582.00 387.88,582.00
             387.88,582.00 394.75,581.38 394.75,581.38
             394.75,581.38 409.65,604.91 413.00,609.00
             413.00,609.00 409.00,579.00 409.00,579.00 Z
           M 342.00,581.00
           C 342.00,581.00 346.50,581.88 346.50,581.88
             346.50,581.88 346.00,588.79 346.00,597.00
             346.00,597.00 363.00,598.00 363.00,598.00
             363.00,598.00 364.00,582.00 364.00,582.00
             370.59,583.16 369.00,581.88 369.00,581.88
             369.00,581.88 366.50,621.25 366.50,621.25
             366.01,621.95 361.38,621.75 361.38,621.75
             361.38,621.75 362.25,604.25 362.25,604.25
             362.25,604.25 345.00,603.25 345.00,603.25
             345.00,608.61 344.50,619.38 344.50,619.38
             344.50,619.38 339.75,619.50 339.75,619.50
             339.75,619.50 342.00,581.00 342.00,581.00 Z
           M 375.62,582.38
           C 375.62,582.38 380.75,582.62 380.75,582.62
             380.75,582.62 381.25,621.50 381.25,621.50
             381.25,621.50 376.38,621.00 376.38,621.00
             376.38,621.00 375.62,582.38 375.62,582.38 Z
           M 424.62,603.50
           C 424.62,603.50 423.12,598.38 423.12,598.38
             423.12,598.38 432.50,596.50 432.50,596.50
             432.50,596.50 435.00,601.00 435.00,601.00
             435.00,601.00 424.62,603.50 424.62,603.50 Z
           M 343.52,539.78
           C 340.93,539.66 341.98,536.19 343.48,536.26
             345.19,535.65 346.03,539.98 343.52,539.78 Z
           M 349.27,506.00
           C 349.27,506.00 347.30,511.39 347.30,511.39
             347.30,511.39 349.30,512.05 349.30,512.05
             349.30,512.05 350.09,506.48 350.09,506.48
             350.09,506.48 349.27,506.00 349.27,506.00 Z
           M 408.00,500.09
           C 408.00,500.09 410.96,500.13 411.00,500.09
             411.04,500.04 410.96,501.87 410.96,501.87
             410.96,501.87 408.00,501.83 408.00,501.83
             408.00,501.83 408.00,500.09 408.00,500.09 Z" />


    <path id="escritaMeio" fill="white" stroke="white" stroke-width="1" d="M 270.00,277.00
           C 275.46,279.28 280.11,283.04 285.00,286.33
             296.04,293.77 309.28,301.37 313.00,315.00
             321.36,308.91 320.93,306.29 333.00,299.89
             356.83,287.26 379.35,291.40 402.00,304.00
             404.78,295.71 409.62,297.57 417.00,299.37
             423.42,300.94 440.16,304.99 446.00,303.03
             446.00,303.03 456.00,298.68 456.00,298.68
             468.08,294.13 471.60,294.02 484.00,292.83
             487.48,292.50 489.21,291.92 493.00,292.04
             499.88,292.26 509.56,293.83 516.00,296.23
             522.04,298.48 528.82,302.10 534.00,305.92
             540.15,310.46 543.81,314.80 548.12,321.00
             563.45,343.08 564.09,367.22 562.00,393.00
             562.00,393.00 555.00,393.00 555.00,393.00
             556.11,400.10 559.49,407.23 561.94,414.00
             563.23,417.53 565.06,420.08 564.44,424.00
             563.37,430.75 558.67,433.73 554.00,438.00
             554.00,438.00 528.90,461.34 528.90,461.34
             526.06,464.32 519.86,472.54 516.00,472.71
             514.01,472.79 510.75,470.71 509.00,469.72
             509.00,469.72 495.00,461.94 495.00,461.94
             493.01,460.72 490.41,458.68 488.00,458.77
             485.81,458.85 479.55,462.87 477.00,464.05
             471.57,466.56 465.98,467.93 460.00,468.00
             450.03,468.11 441.96,467.01 433.00,462.21
             429.52,460.34 421.63,453.36 419.00,453.53
             416.91,453.66 412.99,456.87 411.00,458.07
             407.62,460.12 399.78,463.60 396.00,464.71
             374.10,471.11 347.35,468.95 328.00,456.30
             321.59,452.12 314.06,446.14 311.00,439.00
             311.00,439.00 309.00,439.00 309.00,439.00
             307.13,445.54 303.69,450.16 298.96,454.99
             283.83,470.42 268.27,472.23 248.00,472.00
             242.50,471.93 236.18,470.75 231.00,468.91
             226.03,467.14 219.16,463.68 215.00,460.47
             212.34,458.42 209.22,454.72 206.00,454.04
             201.61,453.11 190.74,456.51 187.00,459.00
             181.62,449.93 176.67,434.53 175.72,424.01
             175.19,418.12 178.65,401.45 181.37,396.00
             185.13,388.50 190.19,383.81 196.00,378.00
             173.70,361.26 178.60,316.40 207.00,298.66
             218.69,291.36 232.30,288.05 246.00,290.62
             246.00,290.62 264.00,296.00 264.00,296.00
             264.00,296.00 270.00,277.00 270.00,277.00 Z
           M 275.00,288.00
           C 271.86,291.65 269.32,301.09 268.00,306.00
             247.49,298.89 238.06,291.92 216.00,301.86
             193.55,311.98 182.37,343.26 194.32,364.99
             198.81,373.15 204.01,374.98 211.00,380.00
             206.57,381.48 203.92,382.14 200.00,384.94
             189.04,392.76 183.34,406.74 183.34,420.00
             183.34,420.00 184.85,433.00 184.85,433.00
             184.85,433.00 187.00,450.00 187.00,450.00
             191.51,449.36 205.67,445.64 208.91,446.35
             211.86,447.00 213.93,449.91 216.04,451.92
             219.26,454.97 223.92,458.65 228.00,460.40
             239.02,465.14 247.39,465.13 259.00,465.00
             274.46,464.82 290.25,456.98 298.90,444.00
             303.83,436.59 304.81,431.22 307.00,423.00
             307.00,423.00 309.00,423.00 309.00,423.00
             311.39,431.19 317.03,437.15 323.00,442.99
             340.09,459.69 355.44,461.26 378.00,461.00
             384.06,460.93 390.31,459.53 396.00,457.46
             405.46,454.01 413.86,447.98 421.00,441.00
             431.58,456.79 442.69,461.22 461.00,461.00
             464.20,460.96 465.89,460.91 469.00,459.91
             478.83,456.74 481.37,452.44 489.00,447.00
             493.23,453.82 501.05,457.68 508.00,461.25
             510.35,462.46 513.28,464.40 516.00,463.55
             518.95,462.64 522.10,458.29 524.17,456.00
             527.77,452.03 532.95,446.94 537.00,443.42
             537.00,443.42 551.00,431.15 551.00,431.15
             552.79,429.56 555.93,427.21 556.77,424.96
             557.82,422.14 555.45,417.71 554.42,415.00
             554.42,415.00 547.00,394.00 547.00,394.00
             547.00,394.00 536.00,401.00 536.00,401.00
             536.00,401.00 534.00,386.00 534.00,386.00
             534.00,386.00 555.00,386.00 555.00,386.00
             555.00,371.98 556.09,357.53 551.64,344.00
             549.71,338.12 545.68,330.01 542.08,325.00
             531.13,309.78 515.00,300.09 496.00,300.00
             496.00,300.00 484.00,300.00 484.00,300.00
             479.62,300.05 475.28,300.73 471.00,301.66
             465.63,302.82 458.89,304.69 454.00,307.12
             454.00,307.12 447.00,310.71 447.00,310.71
             441.69,312.88 427.13,308.50 421.00,307.12
             418.35,306.65 412.89,305.26 410.59,307.12
             408.84,308.37 408.39,312.87 408.00,315.00
             397.56,310.48 393.32,306.21 381.00,302.35
             362.23,296.46 342.32,300.58 327.00,312.67
             316.91,320.62 314.56,327.81 309.00,333.00
             308.95,326.98 308.10,319.40 305.33,314.00
             299.54,302.69 284.84,295.83 275.00,288.00 Z
           M 277.00,297.00
           C 290.62,303.64 302.93,312.59 303.00,329.00
             303.02,334.41 303.11,337.81 301.07,343.00
             300.12,345.43 296.61,351.25 296.50,353.00
             296.30,356.14 302.65,364.70 305.00,367.00
             306.29,339.01 329.97,305.36 360.00,305.00
             384.81,304.71 391.11,314.00 412.00,323.00
             412.44,320.69 413.23,315.22 414.85,313.64
             417.05,311.48 427.89,314.07 430.98,314.82
             432.36,315.16 434.09,315.53 435.00,316.73
             437.27,319.76 433.34,322.95 435.00,330.00
             439.52,321.57 448.51,315.78 457.00,311.78
             478.78,301.54 510.31,301.36 528.99,318.18
             548.29,335.57 550.00,355.88 550.00,380.00
             550.00,380.00 527.00,380.00 527.00,380.00
             527.00,380.00 528.79,388.00 528.79,388.00
             528.79,388.00 530.00,411.00 530.00,411.00
             530.00,411.00 544.00,403.00 544.00,403.00
             545.65,406.75 551.27,419.50 550.30,423.00
             549.48,425.95 546.22,428.33 544.00,430.28
             544.00,430.28 528.04,444.17 528.04,444.17
             524.54,447.47 517.80,457.29 513.00,457.19
             510.94,457.15 506.83,454.66 505.00,453.55
             494.94,447.49 494.03,445.55 487.00,437.00
             477.90,457.00 453.32,461.78 436.00,449.37
             427.51,443.28 426.57,438.25 422.00,430.00
             419.01,435.57 415.26,438.98 410.42,442.96
             386.33,462.80 346.91,459.81 325.09,437.91
             316.42,429.21 308.91,414.05 306.45,402.00
             306.45,402.00 304.00,386.00 304.00,386.00
             301.41,386.99 297.36,388.38 296.23,391.19
             295.30,393.50 297.07,396.73 297.78,399.00
             299.48,404.38 300.93,410.36 301.00,416.00
             301.06,421.73 301.02,426.48 299.10,432.00
             295.00,443.77 282.94,454.71 271.00,458.08
             263.57,460.18 258.55,460.08 251.00,460.00
             241.46,459.88 231.70,457.29 224.00,451.49
             224.00,451.49 211.91,440.57 211.91,440.57
             206.71,438.54 194.33,446.05 191.59,440.57
             191.59,440.57 189.87,430.00 189.87,430.00
             188.33,418.92 188.63,409.00 194.36,399.00
             202.65,384.53 222.33,380.27 236.00,389.77
             246.18,396.85 248.62,405.66 251.72,417.00
             253.43,423.28 255.33,432.50 260.00,437.00
             260.00,437.00 245.76,393.00 245.76,393.00
             243.63,384.51 245.62,378.19 245.76,370.00
             237.33,374.56 232.99,376.22 223.00,375.99
             218.49,375.88 215.08,375.17 211.00,373.18
             184.55,360.28 192.96,321.68 216.00,307.76
             224.45,302.66 228.64,302.99 238.00,303.00
             254.74,303.03 258.96,310.56 272.00,313.00
             272.00,313.00 277.00,297.00 277.00,297.00 Z
           M 286.00,316.00
           C 287.33,319.71 290.97,325.02 286.74,328.13
             284.59,329.71 282.36,329.41 280.00,328.64
             259.28,321.91 235.80,301.11 215.17,321.18
             212.86,323.43 209.99,327.12 208.53,330.00
             206.48,334.03 205.22,339.49 205.04,344.00
             204.81,349.88 206.13,356.15 210.53,360.20
             217.33,366.95 233.50,368.54 239.00,360.20
             230.86,362.90 223.29,365.73 215.01,360.77
             205.48,355.06 202.71,339.51 217.00,333.36
             223.05,330.76 229.34,333.43 235.00,335.93
             235.00,335.93 259.00,348.16 259.00,348.16
             264.11,350.81 270.11,353.69 276.00,352.48
             292.31,349.14 299.55,326.70 286.00,316.00 Z
           M 424.00,324.00
           C 419.98,327.08 420.30,332.82 414.98,334.30
             411.36,335.31 402.46,330.02 399.00,328.22
             388.51,322.76 377.12,315.29 365.00,315.01
             331.86,314.25 313.97,348.74 314.00,378.00
             314.03,406.17 325.61,435.56 355.00,443.96
             359.28,445.18 368.46,446.09 373.00,445.99
             402.46,445.32 422.33,422.88 422.99,394.00
             423.21,384.08 420.89,374.04 412.96,367.38
             404.21,360.02 389.01,357.04 378.00,359.92
             372.58,361.35 366.69,364.49 362.00,367.54
             356.83,370.91 344.04,382.65 338.00,381.08
             330.61,379.15 327.68,365.81 336.10,358.38
             344.11,351.31 353.07,353.91 362.00,357.00
             358.84,351.59 352.86,350.74 347.00,351.04
             320.54,352.39 325.55,393.21 347.00,401.13
             364.14,407.45 379.92,396.08 393.00,386.37
             396.60,383.69 406.93,374.80 411.00,375.07
             417.80,375.51 426.66,389.49 415.79,401.98
             407.14,411.93 387.66,414.85 375.00,415.00
             355.38,415.23 331.75,414.40 320.53,395.00
             307.92,373.21 322.48,337.53 348.00,339.09
             368.18,340.33 391.75,365.19 411.96,347.67
             414.85,345.17 416.88,342.35 418.68,339.00
             421.03,334.62 422.89,328.85 424.00,324.00 Z
           M 538.00,356.00
           C 537.52,350.64 535.85,345.82 533.48,341.00
             524.66,323.12 509.43,314.97 490.00,315.00
             464.52,315.04 437.97,328.02 435.17,356.00
             434.65,361.24 435.19,364.92 436.20,370.00
             439.43,386.26 444.06,391.52 454.59,404.00
             460.81,411.37 472.62,421.31 471.15,432.00
             469.61,443.17 457.88,446.06 454.21,438.89
             452.64,435.82 454.22,432.15 454.83,429.00
             455.60,425.03 455.54,416.53 453.11,413.21
             449.41,408.17 439.64,407.39 435.51,412.23
             432.81,415.38 432.92,420.07 433.01,424.00
             433.53,445.34 462.68,453.67 475.45,436.98
             481.77,428.72 483.75,411.91 481.24,402.00
             481.24,402.00 474.00,383.00 474.00,383.00
             477.42,383.00 481.84,382.71 485.00,384.01
             490.00,386.06 492.77,390.85 493.67,396.00
             493.67,396.00 495.67,427.00 495.67,427.00
             496.15,429.25 496.94,432.01 498.09,434.00
             500.34,437.93 507.93,445.87 513.00,443.87
             515.57,442.86 524.02,434.00 527.00,431.42
             531.42,427.61 536.42,424.33 539.00,419.00
             539.00,419.00 531.00,422.77 531.00,422.77
             525.39,424.23 521.94,419.92 520.61,415.00
             520.61,415.00 518.15,388.00 518.15,388.00
             515.81,381.13 509.42,378.89 504.00,375.00
             504.00,375.00 518.00,371.92 518.00,371.92
             520.09,371.55 523.62,371.20 524.98,369.42
             528.79,364.42 522.95,349.72 520.07,345.00
             507.43,324.22 477.15,327.24 470.90,351.00
             467.71,363.12 469.50,363.07 470.00,374.00
             465.79,370.00 465.06,364.56 464.08,359.00
             460.56,338.91 471.82,318.57 494.00,318.57
             509.50,318.57 522.85,328.22 530.77,341.00
             530.77,341.00 538.00,356.00 538.00,356.00 Z
           M 236.00,348.00
           C 233.72,346.71 231.45,345.41 229.00,344.47
             227.72,343.98 226.36,343.55 225.00,343.33
             216.03,341.91 217.91,349.53 219.74,351.40
             222.04,353.77 228.22,353.13 230.98,351.92
             233.34,350.88 234.31,349.80 236.00,348.00 Z
           M 426.00,348.00
           C 418.44,354.24 416.21,357.62 425.00,364.00
             425.00,364.00 426.00,348.00 426.00,348.00 Z
           M 472.00,381.00
           C 470.95,375.11 470.93,373.96 471.00,368.00
             471.05,364.45 471.27,361.37 472.56,358.00
             475.75,349.66 485.51,345.72 492.90,351.57
             496.55,354.46 498.05,358.58 498.91,363.00
             499.51,366.13 500.73,370.88 498.40,373.49
             496.30,375.85 488.24,377.43 485.00,378.23
             479.15,379.67 478.46,380.68 472.00,381.00 Z
           M 254.00,357.00
           C 254.00,357.00 249.00,355.00 249.00,355.00
             249.00,355.00 250.00,362.00 250.00,362.00
             250.00,362.00 254.00,357.00 254.00,357.00 Z
           M 295.00,375.00
           C 292.41,361.39 278.54,352.33 266.00,360.70
             257.84,366.14 254.80,375.63 255.01,385.00
             255.35,399.75 266.92,418.14 270.09,433.00
             271.51,439.66 267.02,446.77 260.00,447.33
             251.53,448.01 247.25,437.49 245.28,431.00
             245.28,431.00 240.51,416.00 240.51,416.00
             236.92,404.53 233.39,395.07 219.00,395.08
             199.94,395.08 195.02,421.90 202.00,431.00
             202.00,431.00 201.04,423.00 201.04,423.00
             200.87,418.62 203.31,402.72 210.79,408.42
             214.78,411.47 217.90,425.49 220.49,431.00
             227.48,445.89 239.56,450.02 255.00,450.00
             261.60,449.99 262.69,449.87 269.00,447.66
             272.89,446.29 275.70,445.03 279.00,442.47
             300.12,426.15 288.42,402.72 280.60,383.00
             279.19,379.44 275.64,370.57 276.03,367.02
             276.42,363.48 279.38,360.85 283.00,361.84
             288.28,363.30 291.15,371.16 295.00,375.00 Z
           M 486.00,359.00
           C 481.93,361.29 482.19,362.73 481.00,367.00
             481.00,367.00 489.00,366.00 489.00,366.00
             489.00,366.00 486.00,359.00 486.00,359.00 Z
           M 349.00,364.00
           C 344.23,363.66 343.10,364.83 341.00,369.00
             341.00,369.00 349.00,364.00 349.00,364.00 Z
           M 233.00,381.00
           C 233.00,381.00 239.00,380.00 239.00,380.00
             239.00,380.00 238.00,385.00 238.00,385.00
             238.00,385.00 233.00,381.00 233.00,381.00 Z
           M 410.00,386.00
           C 404.85,389.22 389.74,399.40 387.00,404.00
             397.37,402.60 413.08,399.97 410.00,386.00 Z
           M 434.00,393.00
           C 434.00,393.00 433.00,401.00 433.00,401.00
             433.00,401.00 437.00,399.00 437.00,399.00
             437.00,399.00 434.00,393.00 434.00,393.00 Z" />
  </g>



</svg>
